<?xml version="1.0" encoding="utf-8" standalone="no"?>
<!DOCTYPE svg PUBLIC "-//W3C//DTD SVG 1.1//EN"
  "http://www.w3.org/Graphics/SVG/1.1/DTD/svg11.dtd">
<svg xmlns:xlink="http://www.w3.org/1999/xlink" width="475.2pt" height="302.4pt" viewBox="0 0 475.2 302.4" xmlns="http://www.w3.org/2000/svg" version="1.1">
 <metadata>
  <rdf:RDF xmlns:dc="http://purl.org/dc/elements/1.1/" xmlns:cc="http://creativecommons.org/ns#" xmlns:rdf="http://www.w3.org/1999/02/22-rdf-syntax-ns#">
   <cc:Work>
    <dc:type rdf:resource="http://purl.org/dc/dcmitype/StillImage"/>
    <dc:date>2026-09-13T13:56:59.915014</dc:date>
    <dc:format>image/svg+xml</dc:format>
    <dc:creator>
     <cc:Agent>
      <dc:title>Matplotlib v3.11.1, https://matplotlib.org/</dc:title>
     </cc:Agent>
    </dc:creator>
   </cc:Work>
  </rdf:RDF>
 </metadata>
 <defs>
  <style type="text/css">*{stroke-linejoin: round; stroke-linecap: butt}</style>
 </defs>
 <g id="figure_1">
  <g id="patch_1">
   <path d="M 0 302.4 
L 475.2 302.4 
L 475.2 0 
L 0 0 
z
" style="fill: #ffffff"/>
  </g>
  <g id="axes_1">
   <g id="patch_2">
    <path d="M 43.088521 268.398979 
L 472.19976 268.398979 
L 472.19976 18.118365 
L 43.088521 18.118365 
z
" style="fill: #ffffff"/>
   </g>
   <g id="matplotlib.axis_1">
    <g id="xtick_1">
     <g id="line2d_1">
      <path d="M 61.968415 268.398979 
L 61.968415 18.118365 
" clip-path="url(#p2a695e9c2d)" style="fill: none; stroke: #b0b0b0; stroke-opacity: 0.2; stroke-width: 0.8; stroke-linecap: square"/>
     </g>
     <g id="line2d_2">
      <defs>
       <path id="m97c988daba" d="M 0 0 
L 0 3.5 
" style="stroke: #000000; stroke-width: 0.8"/>
      </defs>
      <g>
       <use xlink:href="#m97c988daba" x="61.968415" y="268.398979" style="stroke: #000000; stroke-width: 0.8"/>
      </g>
     </g>
     <g id="text_1">
      <!-- 0 -->
      <g transform="translate(58.787165 282.996635) scale(0.1 -0.1)">
       <defs>
        <path id="DejaVuSans-13" d="M 2034 4250 
Q 1547 4250 1301 3770 
Q 1056 3291 1056 2328 
Q 1056 1369 1301 889 
Q 1547 409 2034 409 
Q 2525 409 2770 889 
Q 3016 1369 3016 2328 
Q 3016 3291 2770 3770 
Q 2525 4250 2034 4250 
z
M 2034 4750 
Q 2819 4750 3233 4129 
Q 3647 3509 3647 2328 
Q 3647 1150 3233 529 
Q 2819 -91 2034 -91 
Q 1250 -91 836 529 
Q 422 1150 422 2328 
Q 422 3509 836 4129 
Q 1250 4750 2034 4750 
z
" transform="scale(0.015625)"/>
       </defs>
       <use xlink:href="#DejaVuSans-13"/>
      </g>
     </g>
    </g>
    <g id="xtick_2">
     <g id="line2d_3">
      <path d="M 140.113673 268.398979 
L 140.113673 18.118365 
" clip-path="url(#p2a695e9c2d)" style="fill: none; stroke: #b0b0b0; stroke-opacity: 0.2; stroke-width: 0.8; stroke-linecap: square"/>
     </g>
     <g id="line2d_4">
      <g>
       <use xlink:href="#m97c988daba" x="140.113673" y="268.398979" style="stroke: #000000; stroke-width: 0.8"/>
      </g>
     </g>
     <g id="text_2">
      <!-- 1000 -->
      <g transform="translate(127.388673 282.996635) scale(0.1 -0.1)">
       <defs>
        <path id="DejaVuSans-14" d="M 794 531 
L 1825 531 
L 1825 4091 
L 703 3866 
L 703 4441 
L 1819 4666 
L 2450 4666 
L 2450 531 
L 3481 531 
L 3481 0 
L 794 0 
L 794 531 
z
" transform="scale(0.015625)"/>
       </defs>
       <use xlink:href="#DejaVuSans-14"/>
       <use xlink:href="#DejaVuSans-13" transform="translate(63.625 0)"/>
       <use xlink:href="#DejaVuSans-13" transform="translate(127.25 0)"/>
       <use xlink:href="#DejaVuSans-13" transform="translate(190.875 0)"/>
      </g>
     </g>
    </g>
    <g id="xtick_3">
     <g id="line2d_5">
      <path d="M 218.258931 268.398979 
L 218.258931 18.118365 
" clip-path="url(#p2a695e9c2d)" style="fill: none; stroke: #b0b0b0; stroke-opacity: 0.2; stroke-width: 0.8; stroke-linecap: square"/>
     </g>
     <g id="line2d_6">
      <g>
       <use xlink:href="#m97c988daba" x="218.258931" y="268.398979" style="stroke: #000000; stroke-width: 0.8"/>
      </g>
     </g>
     <g id="text_3">
      <!-- 2000 -->
      <g transform="translate(205.533931 282.996635) scale(0.1 -0.1)">
       <defs>
        <path id="DejaVuSans-15" d="M 1228 531 
L 3431 531 
L 3431 0 
L 469 0 
L 469 531 
Q 828 903 1448 1529 
Q 2069 2156 2228 2338 
Q 2531 2678 2651 2914 
Q 2772 3150 2772 3378 
Q 2772 3750 2511 3984 
Q 2250 4219 1831 4219 
Q 1534 4219 1204 4116 
Q 875 4013 500 3803 
L 500 4441 
Q 881 4594 1212 4672 
Q 1544 4750 1819 4750 
Q 2544 4750 2975 4387 
Q 3406 4025 3406 3419 
Q 3406 3131 3298 2873 
Q 3191 2616 2906 2266 
Q 2828 2175 2409 1742 
Q 1991 1309 1228 531 
z
" transform="scale(0.015625)"/>
       </defs>
       <use xlink:href="#DejaVuSans-15"/>
       <use xlink:href="#DejaVuSans-13" transform="translate(63.625 0)"/>
       <use xlink:href="#DejaVuSans-13" transform="translate(127.25 0)"/>
       <use xlink:href="#DejaVuSans-13" transform="translate(190.875 0)"/>
      </g>
     </g>
    </g>
    <g id="xtick_4">
     <g id="line2d_7">
      <path d="M 296.404188 268.398979 
L 296.404188 18.118365 
" clip-path="url(#p2a695e9c2d)" style="fill: none; stroke: #b0b0b0; stroke-opacity: 0.2; stroke-width: 0.8; stroke-linecap: square"/>
     </g>
     <g id="line2d_8">
      <g>
       <use xlink:href="#m97c988daba" x="296.404188" y="268.398979" style="stroke: #000000; stroke-width: 0.8"/>
      </g>
     </g>
     <g id="text_4">
      <!-- 3000 -->
      <g transform="translate(283.679188 282.996635) scale(0.1 -0.1)">
       <defs>
        <path id="DejaVuSans-16" d="M 2597 2516 
Q 3050 2419 3304 2112 
Q 3559 1806 3559 1356 
Q 3559 666 3084 287 
Q 2609 -91 1734 -91 
Q 1441 -91 1130 -33 
Q 819 25 488 141 
L 488 750 
Q 750 597 1062 519 
Q 1375 441 1716 441 
Q 2309 441 2620 675 
Q 2931 909 2931 1356 
Q 2931 1769 2642 2001 
Q 2353 2234 1838 2234 
L 1294 2234 
L 1294 2753 
L 1863 2753 
Q 2328 2753 2575 2939 
Q 2822 3125 2822 3475 
Q 2822 3834 2567 4026 
Q 2313 4219 1838 4219 
Q 1578 4219 1281 4162 
Q 984 4106 628 3988 
L 628 4550 
Q 988 4650 1302 4700 
Q 1616 4750 1894 4750 
Q 2613 4750 3031 4423 
Q 3450 4097 3450 3541 
Q 3450 3153 3228 2886 
Q 3006 2619 2597 2516 
z
" transform="scale(0.015625)"/>
       </defs>
       <use xlink:href="#DejaVuSans-16"/>
       <use xlink:href="#DejaVuSans-13" transform="translate(63.625 0)"/>
       <use xlink:href="#DejaVuSans-13" transform="translate(127.25 0)"/>
       <use xlink:href="#DejaVuSans-13" transform="translate(190.875 0)"/>
      </g>
     </g>
    </g>
    <g id="xtick_5">
     <g id="line2d_9">
      <path d="M 374.549446 268.398979 
L 374.549446 18.118365 
" clip-path="url(#p2a695e9c2d)" style="fill: none; stroke: #b0b0b0; stroke-opacity: 0.2; stroke-width: 0.8; stroke-linecap: square"/>
     </g>
     <g id="line2d_10">
      <g>
       <use xlink:href="#m97c988daba" x="374.549446" y="268.398979" style="stroke: #000000; stroke-width: 0.8"/>
      </g>
     </g>
     <g id="text_5">
      <!-- 4000 -->
      <g transform="translate(361.824446 282.996635) scale(0.1 -0.1)">
       <defs>
        <path id="DejaVuSans-17" d="M 2419 4116 
L 825 1625 
L 2419 1625 
L 2419 4116 
z
M 2253 4666 
L 3047 4666 
L 3047 1625 
L 3713 1625 
L 3713 1100 
L 3047 1100 
L 3047 0 
L 2419 0 
L 2419 1100 
L 313 1100 
L 313 1709 
L 2253 4666 
z
" transform="scale(0.015625)"/>
       </defs>
       <use xlink:href="#DejaVuSans-17"/>
       <use xlink:href="#DejaVuSans-13" transform="translate(63.625 0)"/>
       <use xlink:href="#DejaVuSans-13" transform="translate(127.25 0)"/>
       <use xlink:href="#DejaVuSans-13" transform="translate(190.875 0)"/>
      </g>
     </g>
    </g>
    <g id="xtick_6">
     <g id="line2d_11">
      <path d="M 452.694704 268.398979 
L 452.694704 18.118365 
" clip-path="url(#p2a695e9c2d)" style="fill: none; stroke: #b0b0b0; stroke-opacity: 0.2; stroke-width: 0.8; stroke-linecap: square"/>
     </g>
     <g id="line2d_12">
      <g>
       <use xlink:href="#m97c988daba" x="452.694704" y="268.398979" style="stroke: #000000; stroke-width: 0.8"/>
      </g>
     </g>
     <g id="text_6">
      <!-- 5000 -->
      <g transform="translate(439.969704 282.996635) scale(0.1 -0.1)">
       <defs>
        <path id="DejaVuSans-18" d="M 691 4666 
L 3169 4666 
L 3169 4134 
L 1269 4134 
L 1269 2991 
Q 1406 3038 1543 3061 
Q 1681 3084 1819 3084 
Q 2600 3084 3056 2656 
Q 3513 2228 3513 1497 
Q 3513 744 3044 326 
Q 2575 -91 1722 -91 
Q 1428 -91 1123 -41 
Q 819 9 494 109 
L 494 744 
Q 775 591 1075 516 
Q 1375 441 1709 441 
Q 2250 441 2565 725 
Q 2881 1009 2881 1497 
Q 2881 1984 2565 2268 
Q 2250 2553 1709 2553 
Q 1456 2553 1204 2497 
Q 953 2441 691 2322 
L 691 4666 
z
" transform="scale(0.015625)"/>
       </defs>
       <use xlink:href="#DejaVuSans-18"/>
       <use xlink:href="#DejaVuSans-13" transform="translate(63.625 0)"/>
       <use xlink:href="#DejaVuSans-13" transform="translate(127.25 0)"/>
       <use xlink:href="#DejaVuSans-13" transform="translate(190.875 0)"/>
      </g>
     </g>
    </g>
    <g id="text_7">
     <!-- Training groups -->
     <g transform="translate(219.200391 296.997416) scale(0.1 -0.1)">
      <defs>
       <path id="DejaVuSans-37" d="M -19 4666 
L 3928 4666 
L 3928 4134 
L 2272 4134 
L 2272 0 
L 1638 0 
L 1638 4134 
L -19 4134 
L -19 4666 
z
" transform="scale(0.015625)"/>
       <path id="DejaVuSans-55" d="M 2631 2963 
Q 2534 3019 2420 3045 
Q 2306 3072 2169 3072 
Q 1681 3072 1420 2755 
Q 1159 2438 1159 1844 
L 1159 0 
L 581 0 
L 581 3500 
L 1159 3500 
L 1159 2956 
Q 1341 3275 1631 3429 
Q 1922 3584 2338 3584 
Q 2397 3584 2469 3576 
Q 2541 3569 2628 3553 
L 2631 2963 
z
" transform="scale(0.015625)"/>
       <path id="DejaVuSans-44" d="M 2194 1759 
Q 1497 1759 1228 1600 
Q 959 1441 959 1056 
Q 959 750 1161 570 
Q 1363 391 1709 391 
Q 2188 391 2477 730 
Q 2766 1069 2766 1631 
L 2766 1759 
L 2194 1759 
z
M 3341 1997 
L 3341 0 
L 2766 0 
L 2766 531 
Q 2569 213 2275 61 
Q 1981 -91 1556 -91 
Q 1019 -91 701 211 
Q 384 513 384 1019 
Q 384 1609 779 1909 
Q 1175 2209 1959 2209 
L 2766 2209 
L 2766 2266 
Q 2766 2663 2505 2880 
Q 2244 3097 1772 3097 
Q 1472 3097 1187 3025 
Q 903 2953 641 2809 
L 641 3341 
Q 956 3463 1253 3523 
Q 1550 3584 1831 3584 
Q 2591 3584 2966 3190 
Q 3341 2797 3341 1997 
z
" transform="scale(0.015625)"/>
       <path id="DejaVuSans-4c" d="M 603 3500 
L 1178 3500 
L 1178 0 
L 603 0 
L 603 3500 
z
M 603 4863 
L 1178 4863 
L 1178 4134 
L 603 4134 
L 603 4863 
z
" transform="scale(0.015625)"/>
       <path id="DejaVuSans-51" d="M 3513 2113 
L 3513 0 
L 2938 0 
L 2938 2094 
Q 2938 2591 2744 2837 
Q 2550 3084 2163 3084 
Q 1697 3084 1428 2787 
Q 1159 2491 1159 1978 
L 1159 0 
L 581 0 
L 581 3500 
L 1159 3500 
L 1159 2956 
Q 1366 3272 1645 3428 
Q 1925 3584 2291 3584 
Q 2894 3584 3203 3211 
Q 3513 2838 3513 2113 
z
" transform="scale(0.015625)"/>
       <path id="DejaVuSans-4a" d="M 2906 1791 
Q 2906 2416 2648 2759 
Q 2391 3103 1925 3103 
Q 1463 3103 1205 2759 
Q 947 2416 947 1791 
Q 947 1169 1205 825 
Q 1463 481 1925 481 
Q 2391 481 2648 825 
Q 2906 1169 2906 1791 
z
M 3481 434 
Q 3481 -459 3084 -895 
Q 2688 -1331 1869 -1331 
Q 1566 -1331 1297 -1286 
Q 1028 -1241 775 -1147 
L 775 -588 
Q 1028 -725 1275 -790 
Q 1522 -856 1778 -856 
Q 2344 -856 2625 -561 
Q 2906 -266 2906 331 
L 2906 616 
Q 2728 306 2450 153 
Q 2172 0 1784 0 
Q 1141 0 747 490 
Q 353 981 353 1791 
Q 353 2603 747 3093 
Q 1141 3584 1784 3584 
Q 2172 3584 2450 3431 
Q 2728 3278 2906 2969 
L 2906 3500 
L 3481 3500 
L 3481 434 
z
" transform="scale(0.015625)"/>
       <path id="DejaVuSans-3" transform="scale(0.015625)"/>
       <path id="DejaVuSans-52" d="M 1959 3097 
Q 1497 3097 1228 2736 
Q 959 2375 959 1747 
Q 959 1119 1226 758 
Q 1494 397 1959 397 
Q 2419 397 2687 759 
Q 2956 1122 2956 1747 
Q 2956 2369 2687 2733 
Q 2419 3097 1959 3097 
z
M 1959 3584 
Q 2709 3584 3137 3096 
Q 3566 2609 3566 1747 
Q 3566 888 3137 398 
Q 2709 -91 1959 -91 
Q 1206 -91 779 398 
Q 353 888 353 1747 
Q 353 2609 779 3096 
Q 1206 3584 1959 3584 
z
" transform="scale(0.015625)"/>
       <path id="DejaVuSans-58" d="M 544 1381 
L 544 3500 
L 1119 3500 
L 1119 1403 
Q 1119 906 1312 657 
Q 1506 409 1894 409 
Q 2359 409 2629 706 
Q 2900 1003 2900 1516 
L 2900 3500 
L 3475 3500 
L 3475 0 
L 2900 0 
L 2900 538 
Q 2691 219 2414 64 
Q 2138 -91 1772 -91 
Q 1169 -91 856 284 
Q 544 659 544 1381 
z
M 1991 3584 
L 1991 3584 
z
" transform="scale(0.015625)"/>
       <path id="DejaVuSans-53" d="M 1159 525 
L 1159 -1331 
L 581 -1331 
L 581 3500 
L 1159 3500 
L 1159 2969 
Q 1341 3281 1617 3432 
Q 1894 3584 2278 3584 
Q 2916 3584 3314 3078 
Q 3713 2572 3713 1747 
Q 3713 922 3314 415 
Q 2916 -91 2278 -91 
Q 1894 -91 1617 61 
Q 1341 213 1159 525 
z
M 3116 1747 
Q 3116 2381 2855 2742 
Q 2594 3103 2138 3103 
Q 1681 3103 1420 2742 
Q 1159 2381 1159 1747 
Q 1159 1113 1420 752 
Q 1681 391 2138 391 
Q 2594 391 2855 752 
Q 3116 1113 3116 1747 
z
" transform="scale(0.015625)"/>
       <path id="DejaVuSans-56" d="M 2834 3397 
L 2834 2853 
Q 2591 2978 2328 3040 
Q 2066 3103 1784 3103 
Q 1356 3103 1142 2972 
Q 928 2841 928 2578 
Q 928 2378 1081 2264 
Q 1234 2150 1697 2047 
L 1894 2003 
Q 2506 1872 2764 1633 
Q 3022 1394 3022 966 
Q 3022 478 2636 193 
Q 2250 -91 1575 -91 
Q 1294 -91 989 -36 
Q 684 19 347 128 
L 347 722 
Q 666 556 975 473 
Q 1284 391 1588 391 
Q 1994 391 2212 530 
Q 2431 669 2431 922 
Q 2431 1156 2273 1281 
Q 2116 1406 1581 1522 
L 1381 1569 
Q 847 1681 609 1914 
Q 372 2147 372 2553 
Q 372 3047 722 3315 
Q 1072 3584 1716 3584 
Q 2034 3584 2315 3537 
Q 2597 3491 2834 3397 
z
" transform="scale(0.015625)"/>
      </defs>
      <use xlink:href="#DejaVuSans-37"/>
      <use xlink:href="#DejaVuSans-55" transform="translate(46.375 0)"/>
      <use xlink:href="#DejaVuSans-44" transform="translate(87.484375 0)"/>
      <use xlink:href="#DejaVuSans-4c" transform="translate(148.765625 0)"/>
      <use xlink:href="#DejaVuSans-51" transform="translate(176.546875 0)"/>
      <use xlink:href="#DejaVuSans-4c" transform="translate(239.921875 0)"/>
      <use xlink:href="#DejaVuSans-51" transform="translate(267.703125 0)"/>
      <use xlink:href="#DejaVuSans-4a" transform="translate(331.078125 0)"/>
      <use xlink:href="#DejaVuSans-3" transform="translate(394.5625 0)"/>
      <use xlink:href="#DejaVuSans-4a" transform="translate(426.34375 0)"/>
      <use xlink:href="#DejaVuSans-55" transform="translate(489.828125 0)"/>
      <use xlink:href="#DejaVuSans-52" transform="translate(528.734375 0)"/>
      <use xlink:href="#DejaVuSans-58" transform="translate(589.921875 0)"/>
      <use xlink:href="#DejaVuSans-53" transform="translate(653.296875 0)"/>
      <use xlink:href="#DejaVuSans-56" transform="translate(716.78125 0)"/>
     </g>
    </g>
   </g>
   <g id="matplotlib.axis_2">
    <g id="ytick_1">
     <g id="line2d_13">
      <path d="M 43.088521 249.115962 
L 472.19976 249.115962 
" clip-path="url(#p2a695e9c2d)" style="fill: none; stroke: #b0b0b0; stroke-opacity: 0.2; stroke-width: 0.8; stroke-linecap: square"/>
     </g>
     <g id="line2d_14">
      <defs>
       <path id="m91664d5865" d="M 0 0 
L -3.5 0 
" style="stroke: #000000; stroke-width: 0.8"/>
      </defs>
      <g>
       <use xlink:href="#m91664d5865" x="43.088521" y="249.115962" style="stroke: #000000; stroke-width: 0.8"/>
      </g>
     </g>
     <g id="text_8">
      <!-- 300 -->
      <g transform="translate(17.001021 252.914791) scale(0.1 -0.1)">
       <use xlink:href="#DejaVuSans-16"/>
       <use xlink:href="#DejaVuSans-13" transform="translate(63.625 0)"/>
       <use xlink:href="#DejaVuSans-13" transform="translate(127.25 0)"/>
      </g>
     </g>
    </g>
    <g id="ytick_2">
     <g id="line2d_15">
      <path d="M 43.088521 205.553291 
L 472.19976 205.553291 
" clip-path="url(#p2a695e9c2d)" style="fill: none; stroke: #b0b0b0; stroke-opacity: 0.2; stroke-width: 0.8; stroke-linecap: square"/>
     </g>
     <g id="line2d_16">
      <g>
       <use xlink:href="#m91664d5865" x="43.088521" y="205.553291" style="stroke: #000000; stroke-width: 0.8"/>
      </g>
     </g>
     <g id="text_9">
      <!-- 400 -->
      <g transform="translate(17.001021 209.35212) scale(0.1 -0.1)">
       <use xlink:href="#DejaVuSans-17"/>
       <use xlink:href="#DejaVuSans-13" transform="translate(63.625 0)"/>
       <use xlink:href="#DejaVuSans-13" transform="translate(127.25 0)"/>
      </g>
     </g>
    </g>
    <g id="ytick_3">
     <g id="line2d_17">
      <path d="M 43.088521 161.99062 
L 472.19976 161.99062 
" clip-path="url(#p2a695e9c2d)" style="fill: none; stroke: #b0b0b0; stroke-opacity: 0.2; stroke-width: 0.8; stroke-linecap: square"/>
     </g>
     <g id="line2d_18">
      <g>
       <use xlink:href="#m91664d5865" x="43.088521" y="161.99062" style="stroke: #000000; stroke-width: 0.8"/>
      </g>
     </g>
     <g id="text_10">
      <!-- 500 -->
      <g transform="translate(17.001021 165.789449) scale(0.1 -0.1)">
       <use xlink:href="#DejaVuSans-18"/>
       <use xlink:href="#DejaVuSans-13" transform="translate(63.625 0)"/>
       <use xlink:href="#DejaVuSans-13" transform="translate(127.25 0)"/>
      </g>
     </g>
    </g>
    <g id="ytick_4">
     <g id="line2d_19">
      <path d="M 43.088521 118.427949 
L 472.19976 118.427949 
" clip-path="url(#p2a695e9c2d)" style="fill: none; stroke: #b0b0b0; stroke-opacity: 0.2; stroke-width: 0.8; stroke-linecap: square"/>
     </g>
     <g id="line2d_20">
      <g>
       <use xlink:href="#m91664d5865" x="43.088521" y="118.427949" style="stroke: #000000; stroke-width: 0.8"/>
      </g>
     </g>
     <g id="text_11">
      <!-- 600 -->
      <g transform="translate(17.001021 122.226778) scale(0.1 -0.1)">
       <defs>
        <path id="DejaVuSans-19" d="M 2113 2584 
Q 1688 2584 1439 2293 
Q 1191 2003 1191 1497 
Q 1191 994 1439 701 
Q 1688 409 2113 409 
Q 2538 409 2786 701 
Q 3034 994 3034 1497 
Q 3034 2003 2786 2293 
Q 2538 2584 2113 2584 
z
M 3366 4563 
L 3366 3988 
Q 3128 4100 2886 4159 
Q 2644 4219 2406 4219 
Q 1781 4219 1451 3797 
Q 1122 3375 1075 2522 
Q 1259 2794 1537 2939 
Q 1816 3084 2150 3084 
Q 2853 3084 3261 2657 
Q 3669 2231 3669 1497 
Q 3669 778 3244 343 
Q 2819 -91 2113 -91 
Q 1303 -91 875 529 
Q 447 1150 447 2328 
Q 447 3434 972 4092 
Q 1497 4750 2381 4750 
Q 2619 4750 2861 4703 
Q 3103 4656 3366 4563 
z
" transform="scale(0.015625)"/>
       </defs>
       <use xlink:href="#DejaVuSans-19"/>
       <use xlink:href="#DejaVuSans-13" transform="translate(63.625 0)"/>
       <use xlink:href="#DejaVuSans-13" transform="translate(127.25 0)"/>
      </g>
     </g>
    </g>
    <g id="ytick_5">
     <g id="line2d_21">
      <path d="M 43.088521 74.865278 
L 472.19976 74.865278 
" clip-path="url(#p2a695e9c2d)" style="fill: none; stroke: #b0b0b0; stroke-opacity: 0.2; stroke-width: 0.8; stroke-linecap: square"/>
     </g>
     <g id="line2d_22">
      <g>
       <use xlink:href="#m91664d5865" x="43.088521" y="74.865278" style="stroke: #000000; stroke-width: 0.8"/>
      </g>
     </g>
     <g id="text_12">
      <!-- 700 -->
      <g transform="translate(17.001021 78.664107) scale(0.1 -0.1)">
       <defs>
        <path id="DejaVuSans-1a" d="M 525 4666 
L 3525 4666 
L 3525 4397 
L 1831 0 
L 1172 0 
L 2766 4134 
L 525 4134 
L 525 4666 
z
" transform="scale(0.015625)"/>
       </defs>
       <use xlink:href="#DejaVuSans-1a"/>
       <use xlink:href="#DejaVuSans-13" transform="translate(63.625 0)"/>
       <use xlink:href="#DejaVuSans-13" transform="translate(127.25 0)"/>
      </g>
     </g>
    </g>
    <g id="ytick_6">
     <g id="line2d_23">
      <path d="M 43.088521 31.302607 
L 472.19976 31.302607 
" clip-path="url(#p2a695e9c2d)" style="fill: none; stroke: #b0b0b0; stroke-opacity: 0.2; stroke-width: 0.8; stroke-linecap: square"/>
     </g>
     <g id="line2d_24">
      <g>
       <use xlink:href="#m91664d5865" x="43.088521" y="31.302607" style="stroke: #000000; stroke-width: 0.8"/>
      </g>
     </g>
     <g id="text_13">
      <!-- 800 -->
      <g transform="translate(17.001021 35.101436) scale(0.1 -0.1)">
       <defs>
        <path id="DejaVuSans-1b" d="M 2034 2216 
Q 1584 2216 1326 1975 
Q 1069 1734 1069 1313 
Q 1069 891 1326 650 
Q 1584 409 2034 409 
Q 2484 409 2743 651 
Q 3003 894 3003 1313 
Q 3003 1734 2745 1975 
Q 2488 2216 2034 2216 
z
M 1403 2484 
Q 997 2584 770 2862 
Q 544 3141 544 3541 
Q 544 4100 942 4425 
Q 1341 4750 2034 4750 
Q 2731 4750 3128 4425 
Q 3525 4100 3525 3541 
Q 3525 3141 3298 2862 
Q 3072 2584 2669 2484 
Q 3125 2378 3379 2068 
Q 3634 1759 3634 1313 
Q 3634 634 3220 271 
Q 2806 -91 2034 -91 
Q 1263 -91 848 271 
Q 434 634 434 1313 
Q 434 1759 690 2068 
Q 947 2378 1403 2484 
z
M 1172 3481 
Q 1172 3119 1398 2916 
Q 1625 2713 2034 2713 
Q 2441 2713 2670 2916 
Q 2900 3119 2900 3481 
Q 2900 3844 2670 4047 
Q 2441 4250 2034 4250 
Q 1625 4250 1398 4047 
Q 1172 3844 1172 3481 
z
" transform="scale(0.015625)"/>
       </defs>
       <use xlink:href="#DejaVuSans-1b"/>
       <use xlink:href="#DejaVuSans-13" transform="translate(63.625 0)"/>
       <use xlink:href="#DejaVuSans-13" transform="translate(127.25 0)"/>
      </g>
     </g>
    </g>
    <g id="text_14">
     <!-- P95 response tokens (all rollout) -->
     <g transform="translate(10.598678 224.003984) rotate(-90) scale(0.1 -0.1)">
      <defs>
       <path id="DejaVuSans-33" d="M 1259 4147 
L 1259 2394 
L 2053 2394 
Q 2494 2394 2734 2622 
Q 2975 2850 2975 3272 
Q 2975 3691 2734 3919 
Q 2494 4147 2053 4147 
L 1259 4147 
z
M 628 4666 
L 2053 4666 
Q 2838 4666 3239 4311 
Q 3641 3956 3641 3272 
Q 3641 2581 3239 2228 
Q 2838 1875 2053 1875 
L 1259 1875 
L 1259 0 
L 628 0 
L 628 4666 
z
" transform="scale(0.015625)"/>
       <path id="DejaVuSans-1c" d="M 703 97 
L 703 672 
Q 941 559 1184 500 
Q 1428 441 1663 441 
Q 2288 441 2617 861 
Q 2947 1281 2994 2138 
Q 2813 1869 2534 1725 
Q 2256 1581 1919 1581 
Q 1219 1581 811 2004 
Q 403 2428 403 3163 
Q 403 3881 828 4315 
Q 1253 4750 1959 4750 
Q 2769 4750 3195 4129 
Q 3622 3509 3622 2328 
Q 3622 1225 3098 567 
Q 2575 -91 1691 -91 
Q 1453 -91 1209 -44 
Q 966 3 703 97 
z
M 1959 2075 
Q 2384 2075 2632 2365 
Q 2881 2656 2881 3163 
Q 2881 3666 2632 3958 
Q 2384 4250 1959 4250 
Q 1534 4250 1286 3958 
Q 1038 3666 1038 3163 
Q 1038 2656 1286 2365 
Q 1534 2075 1959 2075 
z
" transform="scale(0.015625)"/>
       <path id="DejaVuSans-48" d="M 3597 1894 
L 3597 1613 
L 953 1613 
Q 991 1019 1311 708 
Q 1631 397 2203 397 
Q 2534 397 2845 478 
Q 3156 559 3463 722 
L 3463 178 
Q 3153 47 2828 -22 
Q 2503 -91 2169 -91 
Q 1331 -91 842 396 
Q 353 884 353 1716 
Q 353 2575 817 3079 
Q 1281 3584 2069 3584 
Q 2775 3584 3186 3129 
Q 3597 2675 3597 1894 
z
M 3022 2063 
Q 3016 2534 2758 2815 
Q 2500 3097 2075 3097 
Q 1594 3097 1305 2825 
Q 1016 2553 972 2059 
L 3022 2063 
z
" transform="scale(0.015625)"/>
       <path id="DejaVuSans-57" d="M 1172 4494 
L 1172 3500 
L 2356 3500 
L 2356 3053 
L 1172 3053 
L 1172 1153 
Q 1172 725 1289 603 
Q 1406 481 1766 481 
L 2356 481 
L 2356 0 
L 1766 0 
Q 1100 0 847 248 
Q 594 497 594 1153 
L 594 3053 
L 172 3053 
L 172 3500 
L 594 3500 
L 594 4494 
L 1172 4494 
z
" transform="scale(0.015625)"/>
       <path id="DejaVuSans-4e" d="M 581 4863 
L 1159 4863 
L 1159 1991 
L 2875 3500 
L 3609 3500 
L 1753 1863 
L 3688 0 
L 2938 0 
L 1159 1709 
L 1159 0 
L 581 0 
L 581 4863 
z
" transform="scale(0.015625)"/>
       <path id="DejaVuSans-b" d="M 1984 4856 
Q 1566 4138 1362 3434 
Q 1159 2731 1159 2009 
Q 1159 1288 1364 580 
Q 1569 -128 1984 -844 
L 1484 -844 
Q 1016 -109 783 600 
Q 550 1309 550 2009 
Q 550 2706 781 3412 
Q 1013 4119 1484 4856 
L 1984 4856 
z
" transform="scale(0.015625)"/>
       <path id="DejaVuSans-4f" d="M 603 4863 
L 1178 4863 
L 1178 0 
L 603 0 
L 603 4863 
z
" transform="scale(0.015625)"/>
       <path id="DejaVuSans-c" d="M 513 4856 
L 1013 4856 
Q 1481 4119 1714 3412 
Q 1947 2706 1947 2009 
Q 1947 1309 1714 600 
Q 1481 -109 1013 -844 
L 513 -844 
Q 928 -128 1133 580 
Q 1338 1288 1338 2009 
Q 1338 2731 1133 3434 
Q 928 4138 513 4856 
z
" transform="scale(0.015625)"/>
      </defs>
      <use xlink:href="#DejaVuSans-33"/>
      <use xlink:href="#DejaVuSans-1c" transform="translate(60.296875 0)"/>
      <use xlink:href="#DejaVuSans-18" transform="translate(123.921875 0)"/>
      <use xlink:href="#DejaVuSans-3" transform="translate(187.546875 0)"/>
      <use xlink:href="#DejaVuSans-55" transform="translate(219.328125 0)"/>
      <use xlink:href="#DejaVuSans-48" transform="translate(258.234375 0)"/>
      <use xlink:href="#DejaVuSans-56" transform="translate(319.765625 0)"/>
      <use xlink:href="#DejaVuSans-53" transform="translate(371.859375 0)"/>
      <use xlink:href="#DejaVuSans-52" transform="translate(435.34375 0)"/>
      <use xlink:href="#DejaVuSans-51" transform="translate(496.53125 0)"/>
      <use xlink:href="#DejaVuSans-56" transform="translate(559.90625 0)"/>
      <use xlink:href="#DejaVuSans-48" transform="translate(612 0)"/>
      <use xlink:href="#DejaVuSans-3" transform="translate(673.53125 0)"/>
      <use xlink:href="#DejaVuSans-57" transform="translate(705.3125 0)"/>
      <use xlink:href="#DejaVuSans-52" transform="translate(744.515625 0)"/>
      <use xlink:href="#DejaVuSans-4e" transform="translate(805.703125 0)"/>
      <use xlink:href="#DejaVuSans-48" transform="translate(860.046875 0)"/>
      <use xlink:href="#DejaVuSans-51" transform="translate(921.578125 0)"/>
      <use xlink:href="#DejaVuSans-56" transform="translate(984.953125 0)"/>
      <use xlink:href="#DejaVuSans-3" transform="translate(1037.046875 0)"/>
      <use xlink:href="#DejaVuSans-b" transform="translate(1068.828125 0)"/>
      <use xlink:href="#DejaVuSans-44" transform="translate(1107.84375 0)"/>
      <use xlink:href="#DejaVuSans-4f" transform="translate(1169.125 0)"/>
      <use xlink:href="#DejaVuSans-4f" transform="translate(1196.90625 0)"/>
      <use xlink:href="#DejaVuSans-3" transform="translate(1224.6875 0)"/>
      <use xlink:href="#DejaVuSans-55" transform="translate(1256.46875 0)"/>
      <use xlink:href="#DejaVuSans-52" transform="translate(1295.375 0)"/>
      <use xlink:href="#DejaVuSans-4f" transform="translate(1356.5625 0)"/>
      <use xlink:href="#DejaVuSans-4f" transform="translate(1384.34375 0)"/>
      <use xlink:href="#DejaVuSans-52" transform="translate(1412.125 0)"/>
      <use xlink:href="#DejaVuSans-58" transform="translate(1473.3125 0)"/>
      <use xlink:href="#DejaVuSans-57" transform="translate(1536.6875 0)"/>
      <use xlink:href="#DejaVuSans-c" transform="translate(1575.890625 0)"/>
     </g>
    </g>
   </g>
   <g id="line2d_25">
    <path d="M 62.593578 244.694351 
L 63.21874 229.99195 
L 63.843902 226.746531 
L 64.469064 241.601402 
L 65.094226 219.384439 
L 65.719388 223.152611 
L 66.34455 214.941047 
L 66.969712 228.445475 
L 67.594874 228.489038 
L 68.220036 209.190774 
L 68.845198 226.332685 
L 69.47036 215.899426 
L 70.095522 223.522893 
L 70.720684 194.226997 
L 71.345846 212.697569 
L 71.971008 216.204364 
L 72.596171 209.168993 
L 73.221333 227.37819 
L 73.846495 213.721292 
L 74.471657 227.138595 
L 75.096819 243.975567 
L 75.721981 217.140962 
L 76.347143 204.747382 
L 77.597467 227.399971 
L 78.222629 208.167052 
L 78.847791 235.720441 
L 79.472953 224.764429 
L 80.098115 226.463374 
L 80.723277 236.526351 
L 81.348439 229.556323 
L 81.973601 208.580897 
L 82.598764 244.084474 
L 83.223926 225.200056 
L 83.849088 224.28524 
L 84.47425 235.37194 
L 85.099412 224.916899 
L 85.724574 194.030965 
L 86.349736 224.002083 
L 86.974898 217.968653 
L 87.60006 231.168142 
L 88.225222 226.942563 
L 88.850384 230.667171 
L 89.475546 226.267341 
L 90.100708 207.905676 
L 90.72587 193.660682 
L 91.351032 218.426061 
L 91.976194 208.95118 
L 92.601356 234.56603 
L 93.226519 220.125005 
L 93.851681 218.796343 
L 94.476843 217.010274 
L 95.102005 232.867086 
L 95.727167 240.468772 
L 96.352329 193.551776 
L 96.977491 215.507362 
L 97.602653 229.861262 
L 98.227815 218.992375 
L 98.852977 218.164685 
L 99.478139 242.8865 
L 100.103301 248.244709 
L 100.728463 223.501112 
L 101.353625 250.662437 
L 101.978787 211.063969 
L 102.603949 230.362233 
L 103.229112 225.483213 
L 103.854274 208.711585 
L 104.479436 226.027747 
L 105.104598 222.629858 
L 105.72976 205.444385 
L 106.354922 201.000992 
L 106.980084 240.621242 
L 107.605246 218.774562 
L 108.230408 221.257634 
L 108.85557 200.064395 
L 109.480732 220.887352 
L 110.105894 215.137079 
L 110.731056 210.9115 
L 111.356218 210.214497 
L 111.98138 205.444385 
L 112.606542 231.189923 
L 113.231705 228.902883 
L 113.856867 223.021922 
L 114.482029 228.009848 
L 115.107191 212.741132 
L 115.732353 227.835598 
L 116.357515 201.175243 
L 116.982677 218.208247 
L 117.607839 216.487522 
L 118.233001 214.287607 
L 118.858163 228.597944 
L 119.483325 217.641933 
L 120.108487 215.071735 
L 120.733649 238.63914 
L 121.358811 213.481698 
L 121.983973 216.966711 
L 122.609135 229.33851 
L 123.234297 218.033997 
L 123.85946 226.594062 
L 124.484622 200.848523 
L 125.109784 204.638475 
L 125.734946 29.494757 
L 126.360108 229.164259 
L 126.98527 224.241677 
L 127.610432 203.266251 
L 128.235594 220.190349 
L 128.860756 221.954637 
L 129.485918 239.161892 
L 130.11108 221.170509 
L 130.736242 215.507362 
L 131.361404 219.798285 
L 131.986566 239.967802 
L 132.611728 219.471565 
L 133.23689 241.601402 
L 133.862053 208.559116 
L 135.737539 231.102798 
L 136.362701 225.897059 
L 136.987863 209.12543 
L 137.613025 224.720867 
L 138.238187 207.535393 
L 138.863349 220.125005 
L 139.488511 220.125005 
L 140.113673 204.398881 
L 140.738835 230.31867 
L 141.363997 228.706851 
L 141.989159 215.376674 
L 142.614321 216.226146 
L 143.239483 226.506936 
L 143.864646 205.422603 
L 144.489808 230.122638 
L 145.11497 209.822433 
L 145.740132 223.827832 
L 146.365294 218.992375 
L 146.990456 240.817274 
L 147.615618 246.393295 
L 148.24078 212.850039 
L 148.865942 225.962403 
L 149.491104 217.816183 
L 150.116266 236.657039 
L 150.741428 234.936313 
L 151.36659 252.252475 
L 151.991752 223.239736 
L 152.616914 212.457975 
L 153.242076 233.346276 
L 153.867238 219.841848 
L 154.492401 229.643448 
L 155.117563 221.84573 
L 155.742725 220.604194 
L 156.367887 228.990008 
L 156.993049 213.35101 
L 157.618211 236.090724 
L 158.243373 227.073251 
L 158.868535 227.269283 
L 159.493697 195.533877 
L 160.118859 222.49917 
L 160.744021 218.818125 
L 161.369183 212.893601 
L 161.994345 224.807992 
L 162.619507 232.779961 
L 163.244669 242.8865 
L 163.869831 233.629433 
L 164.494994 212.457975 
L 165.120156 208.559116 
L 165.745318 224.699085 
L 166.37048 227.182158 
L 166.995642 200.369334 
L 168.245966 217.92509 
L 168.871128 244.302287 
L 169.49629 211.760972 
L 170.121452 240.403428 
L 170.746614 231.821582 
L 171.371776 248.048677 
L 171.996938 225.831715 
L 172.6221 223.065485 
L 173.247262 233.934372 
L 173.872424 228.793976 
L 174.497586 216.13902 
L 175.122749 220.800226 
L 175.747911 194.205216 
L 176.373073 215.333111 
L 176.998235 211.913441 
L 177.623397 225.635683 
L 178.248559 228.793976 
L 178.873721 225.308963 
L 179.498883 216.443959 
L 180.124045 221.497229 
L 180.749207 233.476964 
L 181.374369 202.808843 
L 181.999531 216.487522 
L 182.624693 235.764004 
L 183.875017 199.345611 
L 184.500179 214.962828 
L 185.750504 232.257209 
L 186.375666 227.138595 
L 187.000828 178.892937 
L 187.62599 203.505846 
L 188.251152 207.709644 
L 188.876314 238.072825 
L 189.501476 222.455608 
L 190.126638 242.167716 
L 190.7518 212.915383 
L 191.376962 219.754722 
L 192.002124 194.466592 
L 192.627286 208.493772 
L 193.252448 202.351435 
L 193.87761 248.767461 
L 194.502772 233.019555 
L 195.127935 222.97836 
L 195.753097 231.843363 
L 196.378259 227.639566 
L 197.003421 209.212556 
L 197.628583 228.227662 
L 198.253745 235.69866 
L 198.878907 228.118755 
L 199.504069 229.970169 
L 200.129231 219.907192 
L 200.754393 219.144845 
L 202.004717 231.124579 
L 202.629879 216.247927 
L 203.255041 226.398029 
L 204.505365 236.286756 
L 205.130527 220.429944 
L 205.75569 218.469623 
L 206.380852 224.503053 
L 207.006014 236.722383 
L 207.631176 211.673847 
L 208.256338 193.029024 
L 208.8815 234.544249 
L 209.506662 232.845305 
L 210.131824 223.283299 
L 210.756986 227.726691 
L 211.382148 221.497229 
L 212.00731 206.337419 
L 212.632472 214.113356 
L 213.257634 216.182583 
L 213.882796 237.441167 
L 214.507958 234.152185 
L 215.13312 208.406646 
L 216.383445 228.293006 
L 217.008607 213.089634 
L 217.633769 208.885836 
L 218.258931 231.690894 
L 218.884093 204.333537 
L 219.509255 225.809933 
L 220.134417 231.647331 
L 220.759579 228.423694 
L 221.384741 208.972961 
L 222.009903 244.302287 
L 222.635065 224.503053 
L 223.260227 237.702543 
L 223.885389 224.241677 
L 224.510551 233.041337 
L 225.760876 217.315213 
L 226.386038 244.759695 
L 227.0112 233.25915 
L 227.636362 238.704484 
L 228.261524 210.062028 
L 228.886686 226.310904 
L 229.511848 217.184525 
L 230.13701 241.819215 
L 230.762172 217.92509 
L 231.387334 210.955063 
L 232.012496 206.685921 
L 233.26282 238.726265 
L 233.887982 244.846821 
L 234.513144 235.04522 
L 235.138306 206.555233 
L 235.763468 228.728632 
L 236.388631 223.95852 
L 237.013793 214.701452 
L 237.638955 222.956578 
L 238.264117 217.685495 
L 238.889279 215.725175 
L 239.514441 224.895117 
L 240.139603 220.734882 
L 240.764765 236.461006 
L 241.389927 211.042188 
L 242.015089 221.039821 
L 242.640251 222.194232 
L 243.265413 233.324494 
L 243.890575 232.213646 
L 244.515737 240.92618 
L 245.140899 232.60571 
L 245.766061 193.203274 
L 246.391224 240.42521 
L 247.016386 229.774136 
L 247.641548 222.629858 
L 248.26671 204.747382 
L 248.891872 224.132771 
L 249.517034 229.490979 
L 250.142196 236.918415 
L 250.767358 237.528292 
L 251.39252 232.93243 
L 252.017682 206.228513 
L 252.642844 225.526776 
L 253.268006 229.948387 
L 253.893168 214.570764 
L 254.51833 226.790094 
L 255.143492 216.160802 
L 255.768654 238.421327 
L 256.393817 225.831715 
L 257.018979 234.7185 
L 257.644141 209.757089 
L 258.269303 219.88541 
L 258.894465 240.142052 
L 259.519627 208.689804 
L 260.144789 207.208673 
L 260.769951 234.435342 
L 261.395113 204.333537 
L 262.020275 214.83214 
L 262.645437 216.487522 
L 263.270599 224.089208 
L 263.895761 229.164259 
L 264.520923 219.188407 
L 265.146085 216.923149 
L 265.771247 221.758605 
L 266.396409 222.346701 
L 267.021572 242.211279 
L 267.646734 236.461006 
L 268.271896 207.709644 
L 268.897058 202.373216 
L 269.52222 219.536909 
L 270.147382 220.734882 
L 270.772544 205.270134 
L 271.397706 216.770679 
L 272.022868 206.032481 
L 272.64803 218.57853 
L 273.273192 165.562759 
L 273.898354 222.586296 
L 274.523516 222.390264 
L 275.148678 230.754297 
L 275.77384 231.429518 
L 276.399002 230.471139 
L 277.024165 246.545765 
L 277.649327 230.819641 
L 278.274489 221.431885 
L 278.899651 214.374732 
L 279.524813 234.522468 
L 280.775137 231.930489 
L 281.400299 243.561722 
L 282.025461 237.00554 
L 282.650623 206.925516 
L 283.275785 226.746531 
L 283.900947 218.839906 
L 284.526109 231.974051 
L 285.151271 227.291064 
L 285.776433 221.475448 
L 286.401595 198.082293 
L 287.026757 236.569913 
L 287.65192 240.185615 
L 288.277082 212.980727 
L 288.902244 209.190774 
L 289.527406 242.167716 
L 290.152568 102.549356 
L 290.77773 234.021497 
L 291.402892 212.741132 
L 292.028054 231.102798 
L 292.653216 244.607226 
L 293.278378 193.529994 
L 293.90354 211.89166 
L 294.528702 212.131255 
L 295.153864 211.978785 
L 295.779026 228.380131 
L 296.404188 211.194657 
L 297.02935 220.560632 
L 297.654513 233.672996 
L 298.279675 215.8123 
L 298.904837 207.905676 
L 299.529999 207.622518 
L 300.155161 230.405795 
L 300.780323 229.251384 
L 301.405485 246.349733 
L 302.030647 227.726691 
L 302.655809 233.041337 
L 303.280971 175.908894 
L 303.906133 228.271224 
L 304.531295 223.936739 
L 305.156457 193.377525 
L 305.781619 234.979876 
L 306.406781 181.768073 
L 307.031943 203.331595 
L 307.657106 217.641933 
L 308.282268 206.359201 
L 308.90743 224.350584 
L 309.532592 210.780812 
L 310.157754 227.073251 
L 310.782916 205.335478 
L 311.408078 233.280932 
L 312.03324 230.863203 
L 312.658402 197.254603 
L 313.283564 239.662863 
L 313.908726 217.59837 
L 315.15905 238.094607 
L 315.784212 226.746531 
L 316.409374 222.32492 
L 317.034536 235.350158 
L 317.659698 216.378615 
L 318.284861 218.142903 
L 318.910023 230.558265 
L 319.535185 234.39178 
L 320.160347 225.134712 
L 320.785509 223.087266 
L 321.410671 232.910649 
L 322.035833 200.282208 
L 322.660995 236.635257 
L 323.286157 243.343909 
L 323.911319 232.387897 
L 324.536481 234.827406 
L 325.161643 215.006391 
L 325.786805 206.642358 
L 326.411967 217.707277 
L 327.037129 225.069368 
L 327.662291 239.183673 
L 328.287454 242.842938 
L 329.537778 233.019555 
L 330.16294 231.081017 
L 330.788102 213.568823 
L 331.413264 226.920782 
L 332.038426 225.831715 
L 332.663588 209.996684 
L 333.28875 222.259576 
L 333.913912 199.280267 
L 335.164236 236.308537 
L 335.789398 235.350158 
L 336.41456 199.49808 
L 337.039722 215.855863 
L 337.664884 225.853496 
L 338.290047 212.022348 
L 338.915209 208.210614 
L 339.540371 225.112931 
L 340.165533 229.164259 
L 340.790695 209.909559 
L 341.415857 222.804109 
L 342.041019 221.84573 
L 342.666181 235.611534 
L 343.291343 233.433401 
L 343.916505 212.065911 
L 344.541667 221.51901 
L 345.166829 220.843789 
L 345.791991 240.773711 
L 346.417153 237.397604 
L 347.042315 241.753871 
L 347.667477 232.017614 
L 348.292639 225.679245 
L 348.917802 214.33117 
L 349.542964 196.056629 
L 350.168126 226.136653 
L 350.793288 230.449358 
L 351.41845 228.772195 
L 352.043612 228.881102 
L 352.668774 219.384439 
L 353.293936 220.3646 
L 353.919098 214.069794 
L 354.54426 246.676453 
L 355.169422 202.307872 
L 355.794584 201.93759 
L 356.419746 243.278565 
L 357.044908 244.781477 
L 357.67007 221.083384 
L 358.295232 219.428002 
L 358.920395 209.517494 
L 359.545557 212.349068 
L 360.170719 221.214072 
L 360.795881 200.739616 
L 361.421043 152.537521 
L 362.046205 226.899 
L 362.671367 224.895117 
L 363.296529 224.28524 
L 363.921691 243.256783 
L 364.546853 229.360291 
L 365.172015 219.994317 
L 365.797177 216.531085 
L 366.422339 222.782328 
L 367.047501 211.194657 
L 367.672663 241.514276 
L 368.297825 241.90634 
L 369.54815 208.537334 
L 370.798474 245.565605 
L 371.423636 209.147212 
L 372.048798 226.72475 
L 372.67396 225.047587 
L 373.299122 226.746531 
L 373.924284 231.385955 
L 374.549446 223.30508 
L 375.174608 213.35101 
L 376.424932 228.728632 
L 377.050094 217.729058 
L 377.675256 210.519436 
L 378.300418 250.727781 
L 378.92558 197.799136 
L 379.550743 244.302287 
L 380.175905 233.041337 
L 380.801067 245.086415 
L 381.426229 213.503479 
L 382.051391 206.119606 
L 382.676553 218.121122 
L 383.301715 241.623183 
L 383.926877 200.935648 
L 384.552039 244.324069 
L 385.177201 217.249869 
L 385.802363 237.833231 
L 386.427525 233.73834 
L 387.052687 233.041337 
L 387.677849 229.055352 
L 388.303011 204.834507 
L 388.928173 227.421752 
L 389.553336 221.388322 
L 390.178498 204.486006 
L 390.80366 252.927696 
L 391.428822 238.464889 
L 392.053984 194.335904 
L 392.679146 224.699085 
L 393.304308 226.702968 
L 393.92947 236.02538 
L 394.554632 208.450209 
L 395.179794 208.210614 
L 395.804956 250.706 
L 396.430118 216.574647 
L 397.05528 215.529143 
L 397.680442 230.122638 
L 398.305604 222.782328 
L 398.930766 227.857379 
L 399.555928 228.293006 
L 400.181091 211.216439 
L 400.806253 221.758605 
L 401.431415 222.17245 
L 402.056577 240.773711 
L 402.681739 216.008332 
L 403.306901 236.67882 
L 403.932063 205.400822 
L 404.557225 227.138595 
L 405.182387 233.956153 
L 405.807549 247.656613 
L 406.432711 229.055352 
L 407.057873 226.267341 
L 407.683035 249.965435 
L 408.308197 215.790519 
L 408.933359 238.203513 
L 409.558521 234.282873 
L 410.183684 231.081017 
L 410.808846 225.439651 
L 411.434008 217.097399 
L 412.05917 224.132771 
L 412.684332 229.316728 
L 413.309494 239.205455 
L 413.934656 226.615843 
L 414.559818 234.7185 
L 415.18498 221.932856 
L 415.810142 222.150669 
L 416.435304 199.258485 
L 417.060466 251.141627 
L 417.685628 233.084899 
L 418.31079 247.525925 
L 420.186277 200.369334 
L 420.811439 225.156493 
L 421.436601 231.429518 
L 422.061763 243.147876 
L 422.686925 240.250959 
L 423.312087 237.963919 
L 423.937249 239.510393 
L 425.187573 216.901367 
L 427.063059 246.545765 
L 427.688221 208.559116 
L 428.313383 236.264974 
L 428.938545 231.95227 
L 429.563707 247.177424 
L 430.188869 227.138595 
L 430.814032 240.338084 
L 431.439194 231.102798 
L 432.064356 225.091149 
L 432.689518 211.586721 
L 433.31468 227.813816 
L 433.939842 248.680336 
L 434.565004 212.174817 
L 435.190166 232.475022 
L 435.815328 246.720016 
L 436.44049 226.114872 
L 437.065652 222.32492 
L 437.690814 250.05256 
L 438.315976 239.94602 
L 438.941138 221.388322 
L 439.5663 229.033571 
L 440.191462 239.967802 
L 440.816625 235.524409 
L 441.441787 257.022587 
L 442.066949 236.134286 
L 442.692111 238.290639 
L 443.317273 247.308112 
L 443.942435 225.766371 
L 444.567597 219.667597 
L 445.192759 250.117904 
L 445.817921 246.611109 
L 446.443083 225.831715 
L 447.693407 231.407737 
L 448.318569 221.715042 
L 448.943731 235.611534 
L 449.568893 221.606136 
L 450.194055 221.51901 
L 450.819218 243.213221 
L 451.44438 232.017614 
L 452.069542 235.132345 
L 452.694704 222.019981 
L 452.694704 222.019981 
" clip-path="url(#p2a695e9c2d)" style="fill: none; stroke: #2563eb; stroke-width: 1.5; stroke-linecap: square"/>
   </g>
   <g id="line2d_26">
    <path d="M 62.593578 238.660921 
L 63.21874 234.56603 
L 63.843902 219.144845 
L 64.469064 207.186892 
L 65.094226 216.552866 
L 65.719388 209.495713 
L 66.34455 213.612386 
L 66.969712 215.202423 
L 67.594874 223.196173 
L 68.220036 224.61196 
L 68.845198 214.919266 
L 69.47036 233.760121 
L 70.095522 225.374307 
L 70.720684 220.69132 
L 71.345846 236.373881 
L 71.971008 226.158435 
L 72.596171 212.784695 
L 73.221333 225.875277 
L 73.846495 218.404279 
L 74.471657 227.530659 
L 75.096819 206.424545 
L 75.721981 217.859746 
L 76.347143 220.473506 
L 76.972305 212.719351 
L 77.597467 217.968653 
L 78.222629 216.226146 
L 78.847791 208.820492 
L 79.472953 227.443534 
L 80.098115 211.869879 
L 80.723277 223.95852 
L 81.348439 215.224204 
L 81.973601 221.780386 
L 82.598764 223.697144 
L 83.223926 215.96477 
L 83.849088 227.421752 
L 84.47425 216.443959 
L 85.099412 238.051044 
L 85.724574 221.01804 
L 86.349736 217.206306 
L 86.974898 232.823523 
L 88.225222 207.513612 
L 88.850384 213.634167 
L 90.100708 220.909133 
L 90.72587 207.295798 
L 91.351032 224.176333 
L 91.976194 229.730574 
L 93.226519 201.567307 
L 93.851681 229.18604 
L 94.476843 213.067852 
L 95.102005 217.903309 
L 95.727167 230.623609 
L 96.352329 221.148728 
L 96.977491 219.515127 
L 97.602653 226.289123 
L 98.227815 230.384014 
L 98.852977 214.810359 
L 99.478139 226.463374 
L 100.728463 224.61196 
L 101.353625 223.000141 
L 101.978787 222.869453 
L 102.603949 215.790519 
L 103.229112 225.156493 
L 103.854274 222.281357 
L 104.479436 217.946871 
L 105.104598 187.191626 
L 105.72976 216.683554 
L 106.354922 219.057719 
L 106.980084 227.661347 
L 107.605246 225.2654 
L 108.230408 202.612811 
L 108.85557 226.899 
L 109.480732 214.048012 
L 110.105894 225.809933 
L 110.731056 214.65789 
L 111.356218 231.255267 
L 111.98138 225.2654 
L 112.606542 227.007907 
L 113.231705 206.794828 
L 113.856867 231.734457 
L 114.482029 223.370424 
L 115.107191 222.97836 
L 115.732353 216.552866 
L 116.982677 217.424119 
L 117.607839 214.374732 
L 118.233001 203.004875 
L 118.858163 211.739191 
L 119.483325 217.750839 
L 120.108487 234.195748 
L 121.983973 217.228087 
L 122.609135 225.483213 
L 123.234297 211.434252 
L 123.85946 217.750839 
L 124.484622 229.839481 
L 125.109784 208.820492 
L 126.360108 229.294947 
L 126.98527 223.087266 
L 127.610432 220.473506 
L 128.235594 232.823523 
L 128.860756 216.378615 
L 129.485918 208.602678 
L 130.11108 229.730574 
L 130.736242 221.889293 
L 131.361404 232.888867 
L 131.986566 208.885836 
L 132.611728 219.994317 
L 133.23689 223.30508 
L 133.862053 223.435768 
L 134.487215 224.307021 
L 135.112377 233.825465 
L 135.737539 211.978785 
L 136.362701 227.988067 
L 136.987863 218.208247 
L 137.613025 217.641933 
L 138.238187 229.730574 
L 138.863349 226.942563 
L 139.488511 229.51276 
L 140.113673 215.899426 
L 140.738835 221.67148 
L 141.363997 233.542308 
L 141.989159 221.257634 
L 142.614321 216.770679 
L 143.239483 237.223353 
L 143.864646 220.125005 
L 144.489808 218.273591 
L 145.11497 214.570764 
L 145.740132 222.259576 
L 146.365294 223.087266 
L 146.990456 214.570764 
L 147.615618 219.384439 
L 148.24078 221.214072 
L 148.865942 172.336755 
L 149.491104 208.319521 
L 150.116266 217.881527 
L 150.741428 200.565366 
L 151.36659 212.153036 
L 151.991752 214.483639 
L 152.616914 227.988067 
L 153.242076 219.820066 
L 154.492401 236.068942 
L 155.117563 225.374307 
L 155.742725 223.740707 
L 156.367887 212.087692 
L 156.993049 221.889293 
L 157.618211 217.336994 
L 158.243373 223.566456 
L 158.868535 238.116388 
L 159.493697 231.473081 
L 160.118859 229.904825 
L 160.744021 224.503053 
L 161.369183 222.804109 
L 161.994345 222.956578 
L 162.619507 221.67148 
L 163.244669 217.184525 
L 163.869831 218.687437 
L 164.494994 227.007907 
L 165.120156 226.158435 
L 166.37048 218.012215 
L 166.995642 223.740707 
L 167.620804 223.30508 
L 168.245966 216.552866 
L 168.871128 215.245986 
L 169.49629 202.634592 
L 170.121452 224.503053 
L 170.746614 223.95852 
L 171.371776 222.934797 
L 171.996938 231.473081 
L 172.6221 222.760546 
L 173.247262 221.235853 
L 173.872424 218.077559 
L 174.497586 211.085751 
L 175.122749 217.859746 
L 175.747911 210.454092 
L 176.373073 225.047587 
L 176.998235 227.87916 
L 177.623397 215.354892 
L 178.248559 229.33851 
L 178.873721 221.126946 
L 179.498883 210.671905 
L 180.124045 224.176333 
L 180.749207 220.582413 
L 181.374369 220.255693 
L 181.999531 214.265826 
L 182.624693 217.293431 
L 183.249855 234.086841 
L 183.875017 218.295373 
L 184.500179 228.20588 
L 185.125342 217.424119 
L 185.750504 233.063118 
L 186.375666 213.960887 
L 187.000828 231.908707 
L 187.62599 231.037454 
L 188.251152 212.523319 
L 188.876314 230.057294 
L 189.501476 204.137505 
L 190.126638 228.641507 
L 190.7518 234.195748 
L 191.376962 225.483213 
L 192.002124 211.543159 
L 192.627286 231.603769 
L 193.252448 215.115298 
L 193.87761 225.809933 
L 194.502772 211.085751 
L 195.127935 216.661773 
L 195.753097 214.135138 
L 196.378259 220.03788 
L 197.003421 223.087266 
L 197.628583 236.221412 
L 198.253745 223.95852 
L 198.878907 217.533026 
L 199.504069 218.077559 
L 200.129231 228.968227 
L 200.754393 215.028172 
L 201.379555 242.472655 
L 202.004717 211.368908 
L 202.629879 215.899426 
L 203.255041 222.412045 
L 203.880203 219.384439 
L 204.505365 220.822008 
L 205.130527 216.443959 
L 205.75569 217.859746 
L 206.380852 225.2654 
L 207.006014 234.195748 
L 207.631176 225.701027 
L 208.256338 226.354467 
L 208.8815 225.156493 
L 209.506662 225.2654 
L 210.131824 215.550924 
L 210.756986 221.780386 
L 211.382148 209.038305 
L 212.00731 221.9982 
L 212.632472 222.107106 
L 213.257634 226.180216 
L 213.882796 234.261092 
L 214.507958 228.641507 
L 215.13312 232.344334 
L 215.758283 196.949664 
L 216.383445 219.820066 
L 217.008607 211.260001 
L 217.633769 229.970169 
L 218.258931 229.839481 
L 218.884093 208.428428 
L 219.509255 235.611534 
L 220.134417 211.325345 
L 220.759579 205.771105 
L 221.384741 221.235853 
L 222.009903 224.481272 
L 222.635065 213.830199 
L 223.260227 233.193806 
L 223.885389 235.502628 
L 224.510551 224.459491 
L 225.135713 225.897059 
L 225.760876 209.256118 
L 226.386038 224.61196 
L 227.0112 221.410104 
L 227.636362 234.478905 
L 228.261524 216.988493 
L 228.886686 236.809508 
L 229.511848 220.408162 
L 230.13701 225.483213 
L 230.762172 233.368057 
L 231.387334 218.709218 
L 232.012496 239.858895 
L 232.637658 220.081442 
L 233.26282 222.564514 
L 233.887982 236.047161 
L 234.513144 231.908707 
L 235.138306 225.853496 
L 235.763468 229.077134 
L 236.388631 230.601827 
L 237.013793 216.705335 
L 237.638955 227.988067 
L 238.264117 180.265161 
L 238.889279 231.037454 
L 239.514441 217.641933 
L 240.139603 235.611534 
L 240.764765 218.25181 
L 241.389927 220.996258 
L 242.015089 211.869879 
L 242.640251 233.629433 
L 243.265413 225.504995 
L 243.890575 222.97836 
L 244.515737 229.251384 
L 245.140899 230.013731 
L 245.766061 227.37819 
L 246.391224 221.214072 
L 247.016386 228.35835 
L 247.641548 221.170509 
L 248.26671 208.384865 
L 248.891872 225.069368 
L 250.142196 195.316064 
L 250.767358 227.007907 
L 251.39252 219.820066 
L 252.017682 223.740707 
L 252.642844 231.908707 
L 253.268006 220.69132 
L 253.893168 231.102798 
L 254.51833 212.937164 
L 255.143492 222.97836 
L 255.768654 219.711159 
L 256.393817 217.794402 
L 257.018979 222.433826 
L 257.644141 214.374732 
L 258.269303 233.063118 
L 258.894465 228.510819 
L 259.519627 232.823523 
L 260.144789 239.532175 
L 260.769951 227.029688 
L 261.395113 226.659406 
L 262.020275 231.146361 
L 262.645437 215.093516 
L 263.270599 218.25181 
L 263.895761 230.384014 
L 264.520923 216.531085 
L 265.146085 217.140962 
L 265.771247 227.770254 
L 266.396409 225.221837 
L 267.021572 234.457124 
L 267.646734 227.007907 
L 268.271896 230.057294 
L 268.897058 224.176333 
L 269.52222 222.847672 
L 270.147382 235.197689 
L 270.772544 223.740707 
L 271.397706 240.403428 
L 272.022868 222.433826 
L 272.64803 219.493346 
L 273.273192 234.56603 
L 273.898354 228.750414 
L 274.523516 218.948813 
L 275.148678 215.137079 
L 275.77384 219.014157 
L 276.399002 218.839906 
L 277.024165 218.208247 
L 277.649327 234.89275 
L 278.274489 236.504569 
L 278.899651 216.008332 
L 279.524813 210.671905 
L 280.149975 225.221837 
L 280.775137 232.453241 
L 281.400299 234.674937 
L 282.025461 232.888867 
L 282.650623 224.93868 
L 283.275785 233.324494 
L 283.900947 230.492921 
L 284.526109 238.922297 
L 285.151271 229.839481 
L 285.776433 214.461858 
L 286.401595 227.55244 
L 287.026757 231.146361 
L 287.65192 218.033997 
L 288.277082 208.668022 
L 288.902244 208.428428 
L 289.527406 224.067427 
L 290.152568 230.384014 
L 290.77773 208.929398 
L 291.402892 231.255267 
L 292.028054 227.029688 
L 292.653216 230.275107 
L 293.278378 228.641507 
L 293.90354 237.833231 
L 295.153864 227.007907 
L 295.779026 226.659406 
L 296.404188 201.044555 
L 297.654513 239.641081 
L 298.279675 241.056868 
L 298.904837 225.701027 
L 299.529999 216.988493 
L 300.155161 226.027747 
L 300.780323 227.073251 
L 302.030647 208.62446 
L 302.655809 227.792035 
L 303.280971 224.154552 
L 303.906133 216.335052 
L 304.531295 210.018465 
L 305.156457 220.69132 
L 305.781619 200.870304 
L 306.406781 234.631374 
L 308.282268 218.077559 
L 309.532592 241.470714 
L 310.157754 201.697995 
L 310.782916 235.04522 
L 311.408078 201.741558 
L 312.03324 225.744589 
L 312.658402 225.047587 
L 313.283564 229.294947 
L 313.908726 224.873336 
L 314.533888 223.871395 
L 315.15905 230.166201 
L 315.784212 229.207822 
L 316.409374 226.354467 
L 317.034536 225.59212 
L 317.659698 223.196173 
L 318.284861 209.691745 
L 318.910023 237.680761 
L 319.535185 230.732515 
L 320.160347 235.263033 
L 320.785509 229.207822 
L 321.410671 224.786211 
L 322.035833 222.455608 
L 322.660995 228.554382 
L 323.286157 221.126946 
L 323.911319 228.641507 
L 324.536481 215.96477 
L 325.161643 223.6318 
L 325.786805 225.374307 
L 326.411967 217.641933 
L 327.037129 226.833656 
L 327.662291 218.730999 
L 328.287454 226.57228 
L 328.912616 223.30508 
L 329.537778 215.071735 
L 330.16294 216.117239 
L 330.788102 231.146361 
L 331.413264 236.918415 
L 332.038426 222.32492 
L 332.663588 233.999716 
L 333.913912 222.97836 
L 334.539074 219.602253 
L 335.164236 227.487096 
L 335.789398 225.374307 
L 336.41456 223.871395 
L 337.039722 216.879586 
L 337.664884 206.969078 
L 338.290047 223.849613 
L 338.915209 212.632225 
L 339.540371 216.879586 
L 340.165533 219.624034 
L 340.790695 230.580046 
L 341.415857 227.770254 
L 342.041019 227.87916 
L 342.666181 221.453666 
L 343.291343 205.444385 
L 343.916505 223.740707 
L 344.541667 232.888867 
L 345.166829 224.154552 
L 345.791991 228.20588 
L 346.417153 203.89791 
L 347.042315 225.374307 
L 347.667477 218.948813 
L 348.292639 230.688953 
L 348.917802 235.502628 
L 349.542964 217.968653 
L 350.168126 216.748898 
L 350.793288 220.887352 
L 351.41845 219.689378 
L 352.043612 233.760121 
L 352.668774 221.9982 
L 353.293936 217.228087 
L 353.919098 227.22572 
L 354.54426 219.820066 
L 355.169422 191.547893 
L 355.794584 228.641507 
L 356.419746 211.020407 
L 357.044908 218.208247 
L 357.67007 233.368057 
L 358.295232 221.51901 
L 358.920395 226.332685 
L 359.545557 233.150244 
L 360.170719 231.756238 
L 360.795881 225.483213 
L 361.421043 229.730574 
L 362.046205 230.384014 
L 362.671367 218.513186 
L 363.296529 221.388322 
L 363.921691 216.117239 
L 364.546853 218.142903 
L 365.797177 236.264974 
L 367.047501 221.235853 
L 367.672663 218.818125 
L 368.297825 221.235853 
L 368.922988 226.027747 
L 369.54815 231.690894 
L 370.173312 217.859746 
L 370.798474 216.182583 
L 371.423636 218.600311 
L 372.048798 230.710734 
L 373.299122 216.443959 
L 373.924284 216.552866 
L 374.549446 213.612386 
L 375.174608 222.063544 
L 375.79977 225.59212 
L 376.424932 232.126521 
L 377.050094 226.790094 
L 377.675256 213.895543 
L 378.300418 235.437284 
L 378.92558 218.491405 
L 379.550743 214.396514 
L 380.175905 228.380131 
L 380.801067 225.047587 
L 381.426229 242.037028 
L 382.051391 229.403854 
L 382.676553 224.394147 
L 383.301715 222.32492 
L 383.926877 235.611534 
L 384.552039 222.847672 
L 385.177201 230.601827 
L 386.427525 215.572706 
L 387.677849 236.439225 
L 388.303011 216.770679 
L 388.928173 235.829348 
L 389.553336 244.868602 
L 390.80366 203.266251 
L 391.428822 232.997774 
L 392.053984 232.235427 
L 392.679146 222.542733 
L 393.304308 227.770254 
L 393.92947 213.285666 
L 394.554632 221.148728 
L 395.179794 210.279841 
L 395.804956 225.809933 
L 396.430118 230.057294 
L 397.05528 232.431459 
L 397.680442 219.057719 
L 398.930766 238.225295 
L 399.555928 229.098915 
L 400.181091 226.659406 
L 400.806253 217.206306 
L 401.431415 229.578104 
L 402.056577 207.949238 
L 402.681739 215.028172 
L 403.306901 225.91884 
L 403.932063 226.899 
L 404.557225 214.418295 
L 405.182387 225.374307 
L 405.807549 224.023864 
L 406.432711 224.742648 
L 407.057873 205.226571 
L 407.683035 221.235853 
L 408.308197 233.760121 
L 408.933359 209.691745 
L 409.558521 199.890144 
L 410.183684 222.97836 
L 410.808846 226.920782 
L 411.434008 231.799801 
L 412.05917 219.493346 
L 412.684332 224.503053 
L 413.309494 220.03788 
L 413.934656 220.69132 
L 414.559818 223.30508 
L 415.18498 206.860172 
L 415.810142 218.513186 
L 416.435304 223.413987 
L 417.060466 222.303138 
L 417.685628 212.958945 
L 418.31079 231.62555 
L 418.935952 226.615843 
L 419.561114 232.082958 
L 420.186277 229.251384 
L 420.811439 216.313271 
L 421.436601 226.790094 
L 422.061763 217.968653 
L 422.686925 200.717835 
L 423.312087 232.779961 
L 423.937249 243.343909 
L 424.562411 224.263459 
L 425.187573 215.921207 
L 425.812735 236.961977 
L 426.437897 234.740281 
L 427.063059 223.348643 
L 427.688221 218.643874 
L 428.313383 206.424545 
L 428.938545 225.91884 
L 429.563707 230.819641 
L 430.188869 233.73834 
L 430.814032 229.294947 
L 431.439194 223.043704 
L 432.064356 222.107106 
L 432.689518 236.264974 
L 433.31468 225.047587 
L 433.939842 240.577679 
L 434.565004 223.326861 
L 435.190166 223.849613 
L 435.815328 233.869028 
L 436.44049 215.028172 
L 437.065652 237.354041 
L 437.690814 213.285666 
L 438.315976 233.977934 
L 438.941138 229.142478 
L 439.5663 221.01804 
L 440.191462 225.112931 
L 440.816625 224.786211 
L 441.441787 225.374307 
L 442.066949 227.487096 
L 442.692111 220.146786 
L 443.317273 230.928547 
L 443.942435 230.97211 
L 444.567597 209.800652 
L 445.192759 220.059661 
L 445.817921 216.335052 
L 446.443083 223.501112 
L 447.068245 239.314361 
L 447.693407 221.322978 
L 448.318569 231.778019 
L 448.943731 232.126521 
L 449.568893 226.57228 
L 450.194055 227.443534 
L 450.819218 210.475873 
L 451.44438 235.720441 
L 452.069542 217.641933 
L 452.694704 235.175908 
L 452.694704 235.175908 
" clip-path="url(#p2a695e9c2d)" style="fill: none; stroke: #d97706; stroke-width: 1.5; stroke-linecap: square"/>
   </g>
   <g id="patch_3">
    <path d="M 43.088521 268.398979 
L 43.088521 18.118365 
" style="fill: none; stroke: #000000; stroke-width: 0.8; stroke-linejoin: miter; stroke-linecap: square"/>
   </g>
   <g id="patch_4">
    <path d="M 472.19976 268.398979 
L 472.19976 18.118365 
" style="fill: none; stroke: #000000; stroke-width: 0.8; stroke-linejoin: miter; stroke-linecap: square"/>
   </g>
   <g id="patch_5">
    <path d="M 43.088521 268.398979 
L 472.19976 268.398979 
" style="fill: none; stroke: #000000; stroke-width: 0.8; stroke-linejoin: miter; stroke-linecap: square"/>
   </g>
   <g id="patch_6">
    <path d="M 43.088521 18.118365 
L 472.19976 18.118365 
" style="fill: none; stroke: #000000; stroke-width: 0.8; stroke-linejoin: miter; stroke-linecap: square"/>
   </g>
   <g id="text_15">
    <!-- FORMAL · response length p95 -->
    <g transform="translate(165.321016 12.118365) scale(0.12 -0.12)">
     <defs>
      <path id="DejaVuSans-29" d="M 628 4666 
L 3309 4666 
L 3309 4134 
L 1259 4134 
L 1259 2759 
L 3109 2759 
L 3109 2228 
L 1259 2228 
L 1259 0 
L 628 0 
L 628 4666 
z
" transform="scale(0.015625)"/>
      <path id="DejaVuSans-32" d="M 2522 4238 
Q 1834 4238 1429 3725 
Q 1025 3213 1025 2328 
Q 1025 1447 1429 934 
Q 1834 422 2522 422 
Q 3209 422 3611 934 
Q 4013 1447 4013 2328 
Q 4013 3213 3611 3725 
Q 3209 4238 2522 4238 
z
M 2522 4750 
Q 3503 4750 4090 4092 
Q 4678 3434 4678 2328 
Q 4678 1225 4090 567 
Q 3503 -91 2522 -91 
Q 1538 -91 948 565 
Q 359 1222 359 2328 
Q 359 3434 948 4092 
Q 1538 4750 2522 4750 
z
" transform="scale(0.015625)"/>
      <path id="DejaVuSans-35" d="M 2841 2188 
Q 3044 2119 3236 1894 
Q 3428 1669 3622 1275 
L 4263 0 
L 3584 0 
L 2988 1197 
Q 2756 1666 2539 1819 
Q 2322 1972 1947 1972 
L 1259 1972 
L 1259 0 
L 628 0 
L 628 4666 
L 2053 4666 
Q 2853 4666 3247 4331 
Q 3641 3997 3641 3322 
Q 3641 2881 3436 2590 
Q 3231 2300 2841 2188 
z
M 1259 4147 
L 1259 2491 
L 2053 2491 
Q 2509 2491 2742 2702 
Q 2975 2913 2975 3322 
Q 2975 3731 2742 3939 
Q 2509 4147 2053 4147 
L 1259 4147 
z
" transform="scale(0.015625)"/>
      <path id="DejaVuSans-30" d="M 628 4666 
L 1569 4666 
L 2759 1491 
L 3956 4666 
L 4897 4666 
L 4897 0 
L 4281 0 
L 4281 4097 
L 3078 897 
L 2444 897 
L 1241 4097 
L 1241 0 
L 628 0 
L 628 4666 
z
" transform="scale(0.015625)"/>
      <path id="DejaVuSans-24" d="M 2188 4044 
L 1331 1722 
L 3047 1722 
L 2188 4044 
z
M 1831 4666 
L 2547 4666 
L 4325 0 
L 3669 0 
L 3244 1197 
L 1141 1197 
L 716 0 
L 50 0 
L 1831 4666 
z
" transform="scale(0.015625)"/>
      <path id="DejaVuSans-2f" d="M 628 4666 
L 1259 4666 
L 1259 531 
L 3531 531 
L 3531 0 
L 628 0 
L 628 4666 
z
" transform="scale(0.015625)"/>
      <path id="DejaVuSans-79" d="M 684 2619 
L 1344 2619 
L 1344 1825 
L 684 1825 
L 684 2619 
z
" transform="scale(0.015625)"/>
      <path id="DejaVuSans-4b" d="M 3513 2113 
L 3513 0 
L 2938 0 
L 2938 2094 
Q 2938 2591 2744 2837 
Q 2550 3084 2163 3084 
Q 1697 3084 1428 2787 
Q 1159 2491 1159 1978 
L 1159 0 
L 581 0 
L 581 4863 
L 1159 4863 
L 1159 2956 
Q 1366 3272 1645 3428 
Q 1925 3584 2291 3584 
Q 2894 3584 3203 3211 
Q 3513 2838 3513 2113 
z
" transform="scale(0.015625)"/>
     </defs>
     <use xlink:href="#DejaVuSans-29"/>
     <use xlink:href="#DejaVuSans-32" transform="translate(57.515625 0)"/>
     <use xlink:href="#DejaVuSans-35" transform="translate(136.234375 0)"/>
     <use xlink:href="#DejaVuSans-30" transform="translate(205.71875 0)"/>
     <use xlink:href="#DejaVuSans-24" transform="translate(292 0)"/>
     <use xlink:href="#DejaVuSans-2f" transform="translate(360.40625 0)"/>
     <use xlink:href="#DejaVuSans-3" transform="translate(416.125 0)"/>
     <use xlink:href="#DejaVuSans-79" transform="translate(447.90625 0)"/>
     <use xlink:href="#DejaVuSans-3" transform="translate(479.6875 0)"/>
     <use xlink:href="#DejaVuSans-55" transform="translate(511.46875 0)"/>
     <use xlink:href="#DejaVuSans-48" transform="translate(550.375 0)"/>
     <use xlink:href="#DejaVuSans-56" transform="translate(611.90625 0)"/>
     <use xlink:href="#DejaVuSans-53" transform="translate(664 0)"/>
     <use xlink:href="#DejaVuSans-52" transform="translate(727.484375 0)"/>
     <use xlink:href="#DejaVuSans-51" transform="translate(788.671875 0)"/>
     <use xlink:href="#DejaVuSans-56" transform="translate(852.046875 0)"/>
     <use xlink:href="#DejaVuSans-48" transform="translate(904.140625 0)"/>
     <use xlink:href="#DejaVuSans-3" transform="translate(965.671875 0)"/>
     <use xlink:href="#DejaVuSans-4f" transform="translate(997.453125 0)"/>
     <use xlink:href="#DejaVuSans-48" transform="translate(1025.234375 0)"/>
     <use xlink:href="#DejaVuSans-51" transform="translate(1086.765625 0)"/>
     <use xlink:href="#DejaVuSans-4a" transform="translate(1150.140625 0)"/>
     <use xlink:href="#DejaVuSans-57" transform="translate(1213.625 0)"/>
     <use xlink:href="#DejaVuSans-4b" transform="translate(1252.828125 0)"/>
     <use xlink:href="#DejaVuSans-3" transform="translate(1316.203125 0)"/>
     <use xlink:href="#DejaVuSans-53" transform="translate(1347.984375 0)"/>
     <use xlink:href="#DejaVuSans-1c" transform="translate(1411.46875 0)"/>
     <use xlink:href="#DejaVuSans-18" transform="translate(1475.09375 0)"/>
    </g>
   </g>
   <g id="legend_1">
    <g id="line2d_27">
     <path d="M 392.44976 31.216803 
L 402.44976 31.216803 
L 412.44976 31.216803 
" style="fill: none; stroke: #2563eb; stroke-width: 1.5; stroke-linecap: square"/>
    </g>
    <g id="text_16">
     <!-- vanilla -->
     <g transform="translate(420.44976 34.716803) scale(0.1 -0.1)">
      <defs>
       <path id="DejaVuSans-59" d="M 191 3500 
L 800 3500 
L 1894 563 
L 2988 3500 
L 3597 3500 
L 2284 0 
L 1503 0 
L 191 3500 
z
" transform="scale(0.015625)"/>
      </defs>
      <use xlink:href="#DejaVuSans-59"/>
      <use xlink:href="#DejaVuSans-44" transform="translate(59.1875 0)"/>
      <use xlink:href="#DejaVuSans-51" transform="translate(120.46875 0)"/>
      <use xlink:href="#DejaVuSans-4c" transform="translate(183.84375 0)"/>
      <use xlink:href="#DejaVuSans-4f" transform="translate(211.625 0)"/>
      <use xlink:href="#DejaVuSans-4f" transform="translate(239.40625 0)"/>
      <use xlink:href="#DejaVuSans-44" transform="translate(267.1875 0)"/>
     </g>
    </g>
    <g id="line2d_28">
     <path d="M 392.44976 46.217584 
L 402.44976 46.217584 
L 412.44976 46.217584 
" style="fill: none; stroke: #d97706; stroke-width: 1.5; stroke-linecap: square"/>
    </g>
    <g id="text_17">
     <!-- dynamic -->
     <g transform="translate(420.44976 49.717584) scale(0.1 -0.1)">
      <defs>
       <path id="DejaVuSans-47" d="M 2906 2969 
L 2906 4863 
L 3481 4863 
L 3481 0 
L 2906 0 
L 2906 525 
Q 2725 213 2448 61 
Q 2172 -91 1784 -91 
Q 1150 -91 751 415 
Q 353 922 353 1747 
Q 353 2572 751 3078 
Q 1150 3584 1784 3584 
Q 2172 3584 2448 3432 
Q 2725 3281 2906 2969 
z
M 947 1747 
Q 947 1113 1208 752 
Q 1469 391 1925 391 
Q 2381 391 2643 752 
Q 2906 1113 2906 1747 
Q 2906 2381 2643 2742 
Q 2381 3103 1925 3103 
Q 1469 3103 1208 2742 
Q 947 2381 947 1747 
z
" transform="scale(0.015625)"/>
       <path id="DejaVuSans-5c" d="M 2059 -325 
Q 1816 -950 1584 -1140 
Q 1353 -1331 966 -1331 
L 506 -1331 
L 506 -850 
L 844 -850 
Q 1081 -850 1212 -737 
Q 1344 -625 1503 -206 
L 1606 56 
L 191 3500 
L 800 3500 
L 1894 763 
L 2988 3500 
L 3597 3500 
L 2059 -325 
z
" transform="scale(0.015625)"/>
       <path id="DejaVuSans-50" d="M 3328 2828 
Q 3544 3216 3844 3400 
Q 4144 3584 4550 3584 
Q 5097 3584 5394 3201 
Q 5691 2819 5691 2113 
L 5691 0 
L 5113 0 
L 5113 2094 
Q 5113 2597 4934 2840 
Q 4756 3084 4391 3084 
Q 3944 3084 3684 2787 
Q 3425 2491 3425 1978 
L 3425 0 
L 2847 0 
L 2847 2094 
Q 2847 2600 2669 2842 
Q 2491 3084 2119 3084 
Q 1678 3084 1418 2786 
Q 1159 2488 1159 1978 
L 1159 0 
L 581 0 
L 581 3500 
L 1159 3500 
L 1159 2956 
Q 1356 3278 1631 3431 
Q 1906 3584 2284 3584 
Q 2666 3584 2933 3390 
Q 3200 3197 3328 2828 
z
" transform="scale(0.015625)"/>
       <path id="DejaVuSans-46" d="M 3122 3366 
L 3122 2828 
Q 2878 2963 2633 3030 
Q 2388 3097 2138 3097 
Q 1578 3097 1268 2742 
Q 959 2388 959 1747 
Q 959 1106 1268 751 
Q 1578 397 2138 397 
Q 2388 397 2633 464 
Q 2878 531 3122 666 
L 3122 134 
Q 2881 22 2623 -34 
Q 2366 -91 2075 -91 
Q 1284 -91 818 406 
Q 353 903 353 1747 
Q 353 2603 823 3093 
Q 1294 3584 2113 3584 
Q 2378 3584 2631 3529 
Q 2884 3475 3122 3366 
z
" transform="scale(0.015625)"/>
      </defs>
      <use xlink:href="#DejaVuSans-47"/>
      <use xlink:href="#DejaVuSans-5c" transform="translate(63.484375 0)"/>
      <use xlink:href="#DejaVuSans-51" transform="translate(122.671875 0)"/>
      <use xlink:href="#DejaVuSans-44" transform="translate(186.046875 0)"/>
      <use xlink:href="#DejaVuSans-50" transform="translate(247.328125 0)"/>
      <use xlink:href="#DejaVuSans-4c" transform="translate(344.734375 0)"/>
      <use xlink:href="#DejaVuSans-46" transform="translate(372.515625 0)"/>
     </g>
    </g>
   </g>
  </g>
 </g>
 <defs>
  <clipPath id="p2a695e9c2d">
   <rect x="43.088521" y="18.118365" width="429.111239" height="250.280614"/>
  </clipPath>
 </defs>
</svg>
