<?xml version="1.0" encoding="utf-8" standalone="no"?>
<!DOCTYPE svg PUBLIC "-//W3C//DTD SVG 1.1//EN"
  "http://www.w3.org/Graphics/SVG/1.1/DTD/svg11.dtd">
<svg xmlns:xlink="http://www.w3.org/1999/xlink" width="475.2pt" height="302.4pt" viewBox="0 0 475.2 302.4" xmlns="http://www.w3.org/2000/svg" version="1.1">
 <metadata>
  <rdf:RDF xmlns:dc="http://purl.org/dc/elements/1.1/" xmlns:cc="http://creativecommons.org/ns#" xmlns:rdf="http://www.w3.org/1999/02/22-rdf-syntax-ns#">
   <cc:Work>
    <dc:type rdf:resource="http://purl.org/dc/dcmitype/StillImage"/>
    <dc:date>2026-09-13T13:56:59.267555</dc:date>
    <dc:format>image/svg+xml</dc:format>
    <dc:creator>
     <cc:Agent>
      <dc:title>Matplotlib v3.11.1, https://matplotlib.org/</dc:title>
     </cc:Agent>
    </dc:creator>
   </cc:Work>
  </rdf:RDF>
 </metadata>
 <defs>
  <style type="text/css">*{stroke-linejoin: round; stroke-linecap: butt}</style>
 </defs>
 <g id="figure_1">
  <g id="patch_1">
   <path d="M 0 302.4 
L 475.2 302.4 
L 475.2 0 
L 0 0 
z
" style="fill: #ffffff"/>
  </g>
  <g id="axes_1">
   <g id="patch_2">
    <path d="M 46.266646 268.398979 
L 472.19976 268.398979 
L 472.19976 18.118365 
L 46.266646 18.118365 
z
" style="fill: #ffffff"/>
   </g>
   <g id="matplotlib.axis_1">
    <g id="xtick_1">
     <g id="line2d_1">
      <path d="M 65.00671 268.398979 
L 65.00671 18.118365 
" clip-path="url(#pbf628822fb)" style="fill: none; stroke: #b0b0b0; stroke-opacity: 0.2; stroke-width: 0.8; stroke-linecap: square"/>
     </g>
     <g id="line2d_2">
      <defs>
       <path id="mbf7a2501df" d="M 0 0 
L 0 3.5 
" style="stroke: #000000; stroke-width: 0.8"/>
      </defs>
      <g>
       <use xlink:href="#mbf7a2501df" x="65.00671" y="268.398979" style="stroke: #000000; stroke-width: 0.8"/>
      </g>
     </g>
     <g id="text_1">
      <!-- 0 -->
      <g transform="translate(61.82546 282.996635) scale(0.1 -0.1)">
       <defs>
        <path id="DejaVuSans-13" d="M 2034 4250 
Q 1547 4250 1301 3770 
Q 1056 3291 1056 2328 
Q 1056 1369 1301 889 
Q 1547 409 2034 409 
Q 2525 409 2770 889 
Q 3016 1369 3016 2328 
Q 3016 3291 2770 3770 
Q 2525 4250 2034 4250 
z
M 2034 4750 
Q 2819 4750 3233 4129 
Q 3647 3509 3647 2328 
Q 3647 1150 3233 529 
Q 2819 -91 2034 -91 
Q 1250 -91 836 529 
Q 422 1150 422 2328 
Q 422 3509 836 4129 
Q 1250 4750 2034 4750 
z
" transform="scale(0.015625)"/>
       </defs>
       <use xlink:href="#DejaVuSans-13"/>
      </g>
     </g>
    </g>
    <g id="xtick_2">
     <g id="line2d_3">
      <path d="M 142.573201 268.398979 
L 142.573201 18.118365 
" clip-path="url(#pbf628822fb)" style="fill: none; stroke: #b0b0b0; stroke-opacity: 0.2; stroke-width: 0.8; stroke-linecap: square"/>
     </g>
     <g id="line2d_4">
      <g>
       <use xlink:href="#mbf7a2501df" x="142.573201" y="268.398979" style="stroke: #000000; stroke-width: 0.8"/>
      </g>
     </g>
     <g id="text_2">
      <!-- 1000 -->
      <g transform="translate(129.848201 282.996635) scale(0.1 -0.1)">
       <defs>
        <path id="DejaVuSans-14" d="M 794 531 
L 1825 531 
L 1825 4091 
L 703 3866 
L 703 4441 
L 1819 4666 
L 2450 4666 
L 2450 531 
L 3481 531 
L 3481 0 
L 794 0 
L 794 531 
z
" transform="scale(0.015625)"/>
       </defs>
       <use xlink:href="#DejaVuSans-14"/>
       <use xlink:href="#DejaVuSans-13" transform="translate(63.625 0)"/>
       <use xlink:href="#DejaVuSans-13" transform="translate(127.25 0)"/>
       <use xlink:href="#DejaVuSans-13" transform="translate(190.875 0)"/>
      </g>
     </g>
    </g>
    <g id="xtick_3">
     <g id="line2d_5">
      <path d="M 220.139692 268.398979 
L 220.139692 18.118365 
" clip-path="url(#pbf628822fb)" style="fill: none; stroke: #b0b0b0; stroke-opacity: 0.2; stroke-width: 0.8; stroke-linecap: square"/>
     </g>
     <g id="line2d_6">
      <g>
       <use xlink:href="#mbf7a2501df" x="220.139692" y="268.398979" style="stroke: #000000; stroke-width: 0.8"/>
      </g>
     </g>
     <g id="text_3">
      <!-- 2000 -->
      <g transform="translate(207.414692 282.996635) scale(0.1 -0.1)">
       <defs>
        <path id="DejaVuSans-15" d="M 1228 531 
L 3431 531 
L 3431 0 
L 469 0 
L 469 531 
Q 828 903 1448 1529 
Q 2069 2156 2228 2338 
Q 2531 2678 2651 2914 
Q 2772 3150 2772 3378 
Q 2772 3750 2511 3984 
Q 2250 4219 1831 4219 
Q 1534 4219 1204 4116 
Q 875 4013 500 3803 
L 500 4441 
Q 881 4594 1212 4672 
Q 1544 4750 1819 4750 
Q 2544 4750 2975 4387 
Q 3406 4025 3406 3419 
Q 3406 3131 3298 2873 
Q 3191 2616 2906 2266 
Q 2828 2175 2409 1742 
Q 1991 1309 1228 531 
z
" transform="scale(0.015625)"/>
       </defs>
       <use xlink:href="#DejaVuSans-15"/>
       <use xlink:href="#DejaVuSans-13" transform="translate(63.625 0)"/>
       <use xlink:href="#DejaVuSans-13" transform="translate(127.25 0)"/>
       <use xlink:href="#DejaVuSans-13" transform="translate(190.875 0)"/>
      </g>
     </g>
    </g>
    <g id="xtick_4">
     <g id="line2d_7">
      <path d="M 297.706183 268.398979 
L 297.706183 18.118365 
" clip-path="url(#pbf628822fb)" style="fill: none; stroke: #b0b0b0; stroke-opacity: 0.2; stroke-width: 0.8; stroke-linecap: square"/>
     </g>
     <g id="line2d_8">
      <g>
       <use xlink:href="#mbf7a2501df" x="297.706183" y="268.398979" style="stroke: #000000; stroke-width: 0.8"/>
      </g>
     </g>
     <g id="text_4">
      <!-- 3000 -->
      <g transform="translate(284.981183 282.996635) scale(0.1 -0.1)">
       <defs>
        <path id="DejaVuSans-16" d="M 2597 2516 
Q 3050 2419 3304 2112 
Q 3559 1806 3559 1356 
Q 3559 666 3084 287 
Q 2609 -91 1734 -91 
Q 1441 -91 1130 -33 
Q 819 25 488 141 
L 488 750 
Q 750 597 1062 519 
Q 1375 441 1716 441 
Q 2309 441 2620 675 
Q 2931 909 2931 1356 
Q 2931 1769 2642 2001 
Q 2353 2234 1838 2234 
L 1294 2234 
L 1294 2753 
L 1863 2753 
Q 2328 2753 2575 2939 
Q 2822 3125 2822 3475 
Q 2822 3834 2567 4026 
Q 2313 4219 1838 4219 
Q 1578 4219 1281 4162 
Q 984 4106 628 3988 
L 628 4550 
Q 988 4650 1302 4700 
Q 1616 4750 1894 4750 
Q 2613 4750 3031 4423 
Q 3450 4097 3450 3541 
Q 3450 3153 3228 2886 
Q 3006 2619 2597 2516 
z
" transform="scale(0.015625)"/>
       </defs>
       <use xlink:href="#DejaVuSans-16"/>
       <use xlink:href="#DejaVuSans-13" transform="translate(63.625 0)"/>
       <use xlink:href="#DejaVuSans-13" transform="translate(127.25 0)"/>
       <use xlink:href="#DejaVuSans-13" transform="translate(190.875 0)"/>
      </g>
     </g>
    </g>
    <g id="xtick_5">
     <g id="line2d_9">
      <path d="M 375.272673 268.398979 
L 375.272673 18.118365 
" clip-path="url(#pbf628822fb)" style="fill: none; stroke: #b0b0b0; stroke-opacity: 0.2; stroke-width: 0.8; stroke-linecap: square"/>
     </g>
     <g id="line2d_10">
      <g>
       <use xlink:href="#mbf7a2501df" x="375.272673" y="268.398979" style="stroke: #000000; stroke-width: 0.8"/>
      </g>
     </g>
     <g id="text_5">
      <!-- 4000 -->
      <g transform="translate(362.547673 282.996635) scale(0.1 -0.1)">
       <defs>
        <path id="DejaVuSans-17" d="M 2419 4116 
L 825 1625 
L 2419 1625 
L 2419 4116 
z
M 2253 4666 
L 3047 4666 
L 3047 1625 
L 3713 1625 
L 3713 1100 
L 3047 1100 
L 3047 0 
L 2419 0 
L 2419 1100 
L 313 1100 
L 313 1709 
L 2253 4666 
z
" transform="scale(0.015625)"/>
       </defs>
       <use xlink:href="#DejaVuSans-17"/>
       <use xlink:href="#DejaVuSans-13" transform="translate(63.625 0)"/>
       <use xlink:href="#DejaVuSans-13" transform="translate(127.25 0)"/>
       <use xlink:href="#DejaVuSans-13" transform="translate(190.875 0)"/>
      </g>
     </g>
    </g>
    <g id="xtick_6">
     <g id="line2d_11">
      <path d="M 452.839164 268.398979 
L 452.839164 18.118365 
" clip-path="url(#pbf628822fb)" style="fill: none; stroke: #b0b0b0; stroke-opacity: 0.2; stroke-width: 0.8; stroke-linecap: square"/>
     </g>
     <g id="line2d_12">
      <g>
       <use xlink:href="#mbf7a2501df" x="452.839164" y="268.398979" style="stroke: #000000; stroke-width: 0.8"/>
      </g>
     </g>
     <g id="text_6">
      <!-- 5000 -->
      <g transform="translate(440.114164 282.996635) scale(0.1 -0.1)">
       <defs>
        <path id="DejaVuSans-18" d="M 691 4666 
L 3169 4666 
L 3169 4134 
L 1269 4134 
L 1269 2991 
Q 1406 3038 1543 3061 
Q 1681 3084 1819 3084 
Q 2600 3084 3056 2656 
Q 3513 2228 3513 1497 
Q 3513 744 3044 326 
Q 2575 -91 1722 -91 
Q 1428 -91 1123 -41 
Q 819 9 494 109 
L 494 744 
Q 775 591 1075 516 
Q 1375 441 1709 441 
Q 2250 441 2565 725 
Q 2881 1009 2881 1497 
Q 2881 1984 2565 2268 
Q 2250 2553 1709 2553 
Q 1456 2553 1204 2497 
Q 953 2441 691 2322 
L 691 4666 
z
" transform="scale(0.015625)"/>
       </defs>
       <use xlink:href="#DejaVuSans-18"/>
       <use xlink:href="#DejaVuSans-13" transform="translate(63.625 0)"/>
       <use xlink:href="#DejaVuSans-13" transform="translate(127.25 0)"/>
       <use xlink:href="#DejaVuSans-13" transform="translate(190.875 0)"/>
      </g>
     </g>
    </g>
    <g id="text_7">
     <!-- Training groups -->
     <g transform="translate(220.789453 296.997416) scale(0.1 -0.1)">
      <defs>
       <path id="DejaVuSans-37" d="M -19 4666 
L 3928 4666 
L 3928 4134 
L 2272 4134 
L 2272 0 
L 1638 0 
L 1638 4134 
L -19 4134 
L -19 4666 
z
" transform="scale(0.015625)"/>
       <path id="DejaVuSans-55" d="M 2631 2963 
Q 2534 3019 2420 3045 
Q 2306 3072 2169 3072 
Q 1681 3072 1420 2755 
Q 1159 2438 1159 1844 
L 1159 0 
L 581 0 
L 581 3500 
L 1159 3500 
L 1159 2956 
Q 1341 3275 1631 3429 
Q 1922 3584 2338 3584 
Q 2397 3584 2469 3576 
Q 2541 3569 2628 3553 
L 2631 2963 
z
" transform="scale(0.015625)"/>
       <path id="DejaVuSans-44" d="M 2194 1759 
Q 1497 1759 1228 1600 
Q 959 1441 959 1056 
Q 959 750 1161 570 
Q 1363 391 1709 391 
Q 2188 391 2477 730 
Q 2766 1069 2766 1631 
L 2766 1759 
L 2194 1759 
z
M 3341 1997 
L 3341 0 
L 2766 0 
L 2766 531 
Q 2569 213 2275 61 
Q 1981 -91 1556 -91 
Q 1019 -91 701 211 
Q 384 513 384 1019 
Q 384 1609 779 1909 
Q 1175 2209 1959 2209 
L 2766 2209 
L 2766 2266 
Q 2766 2663 2505 2880 
Q 2244 3097 1772 3097 
Q 1472 3097 1187 3025 
Q 903 2953 641 2809 
L 641 3341 
Q 956 3463 1253 3523 
Q 1550 3584 1831 3584 
Q 2591 3584 2966 3190 
Q 3341 2797 3341 1997 
z
" transform="scale(0.015625)"/>
       <path id="DejaVuSans-4c" d="M 603 3500 
L 1178 3500 
L 1178 0 
L 603 0 
L 603 3500 
z
M 603 4863 
L 1178 4863 
L 1178 4134 
L 603 4134 
L 603 4863 
z
" transform="scale(0.015625)"/>
       <path id="DejaVuSans-51" d="M 3513 2113 
L 3513 0 
L 2938 0 
L 2938 2094 
Q 2938 2591 2744 2837 
Q 2550 3084 2163 3084 
Q 1697 3084 1428 2787 
Q 1159 2491 1159 1978 
L 1159 0 
L 581 0 
L 581 3500 
L 1159 3500 
L 1159 2956 
Q 1366 3272 1645 3428 
Q 1925 3584 2291 3584 
Q 2894 3584 3203 3211 
Q 3513 2838 3513 2113 
z
" transform="scale(0.015625)"/>
       <path id="DejaVuSans-4a" d="M 2906 1791 
Q 2906 2416 2648 2759 
Q 2391 3103 1925 3103 
Q 1463 3103 1205 2759 
Q 947 2416 947 1791 
Q 947 1169 1205 825 
Q 1463 481 1925 481 
Q 2391 481 2648 825 
Q 2906 1169 2906 1791 
z
M 3481 434 
Q 3481 -459 3084 -895 
Q 2688 -1331 1869 -1331 
Q 1566 -1331 1297 -1286 
Q 1028 -1241 775 -1147 
L 775 -588 
Q 1028 -725 1275 -790 
Q 1522 -856 1778 -856 
Q 2344 -856 2625 -561 
Q 2906 -266 2906 331 
L 2906 616 
Q 2728 306 2450 153 
Q 2172 0 1784 0 
Q 1141 0 747 490 
Q 353 981 353 1791 
Q 353 2603 747 3093 
Q 1141 3584 1784 3584 
Q 2172 3584 2450 3431 
Q 2728 3278 2906 2969 
L 2906 3500 
L 3481 3500 
L 3481 434 
z
" transform="scale(0.015625)"/>
       <path id="DejaVuSans-3" transform="scale(0.015625)"/>
       <path id="DejaVuSans-52" d="M 1959 3097 
Q 1497 3097 1228 2736 
Q 959 2375 959 1747 
Q 959 1119 1226 758 
Q 1494 397 1959 397 
Q 2419 397 2687 759 
Q 2956 1122 2956 1747 
Q 2956 2369 2687 2733 
Q 2419 3097 1959 3097 
z
M 1959 3584 
Q 2709 3584 3137 3096 
Q 3566 2609 3566 1747 
Q 3566 888 3137 398 
Q 2709 -91 1959 -91 
Q 1206 -91 779 398 
Q 353 888 353 1747 
Q 353 2609 779 3096 
Q 1206 3584 1959 3584 
z
" transform="scale(0.015625)"/>
       <path id="DejaVuSans-58" d="M 544 1381 
L 544 3500 
L 1119 3500 
L 1119 1403 
Q 1119 906 1312 657 
Q 1506 409 1894 409 
Q 2359 409 2629 706 
Q 2900 1003 2900 1516 
L 2900 3500 
L 3475 3500 
L 3475 0 
L 2900 0 
L 2900 538 
Q 2691 219 2414 64 
Q 2138 -91 1772 -91 
Q 1169 -91 856 284 
Q 544 659 544 1381 
z
M 1991 3584 
L 1991 3584 
z
" transform="scale(0.015625)"/>
       <path id="DejaVuSans-53" d="M 1159 525 
L 1159 -1331 
L 581 -1331 
L 581 3500 
L 1159 3500 
L 1159 2969 
Q 1341 3281 1617 3432 
Q 1894 3584 2278 3584 
Q 2916 3584 3314 3078 
Q 3713 2572 3713 1747 
Q 3713 922 3314 415 
Q 2916 -91 2278 -91 
Q 1894 -91 1617 61 
Q 1341 213 1159 525 
z
M 3116 1747 
Q 3116 2381 2855 2742 
Q 2594 3103 2138 3103 
Q 1681 3103 1420 2742 
Q 1159 2381 1159 1747 
Q 1159 1113 1420 752 
Q 1681 391 2138 391 
Q 2594 391 2855 752 
Q 3116 1113 3116 1747 
z
" transform="scale(0.015625)"/>
       <path id="DejaVuSans-56" d="M 2834 3397 
L 2834 2853 
Q 2591 2978 2328 3040 
Q 2066 3103 1784 3103 
Q 1356 3103 1142 2972 
Q 928 2841 928 2578 
Q 928 2378 1081 2264 
Q 1234 2150 1697 2047 
L 1894 2003 
Q 2506 1872 2764 1633 
Q 3022 1394 3022 966 
Q 3022 478 2636 193 
Q 2250 -91 1575 -91 
Q 1294 -91 989 -36 
Q 684 19 347 128 
L 347 722 
Q 666 556 975 473 
Q 1284 391 1588 391 
Q 1994 391 2212 530 
Q 2431 669 2431 922 
Q 2431 1156 2273 1281 
Q 2116 1406 1581 1522 
L 1381 1569 
Q 847 1681 609 1914 
Q 372 2147 372 2553 
Q 372 3047 722 3315 
Q 1072 3584 1716 3584 
Q 2034 3584 2315 3537 
Q 2597 3491 2834 3397 
z
" transform="scale(0.015625)"/>
      </defs>
      <use xlink:href="#DejaVuSans-37"/>
      <use xlink:href="#DejaVuSans-55" transform="translate(46.375 0)"/>
      <use xlink:href="#DejaVuSans-44" transform="translate(87.484375 0)"/>
      <use xlink:href="#DejaVuSans-4c" transform="translate(148.765625 0)"/>
      <use xlink:href="#DejaVuSans-51" transform="translate(176.546875 0)"/>
      <use xlink:href="#DejaVuSans-4c" transform="translate(239.921875 0)"/>
      <use xlink:href="#DejaVuSans-51" transform="translate(267.703125 0)"/>
      <use xlink:href="#DejaVuSans-4a" transform="translate(331.078125 0)"/>
      <use xlink:href="#DejaVuSans-3" transform="translate(394.5625 0)"/>
      <use xlink:href="#DejaVuSans-4a" transform="translate(426.34375 0)"/>
      <use xlink:href="#DejaVuSans-55" transform="translate(489.828125 0)"/>
      <use xlink:href="#DejaVuSans-52" transform="translate(528.734375 0)"/>
      <use xlink:href="#DejaVuSans-58" transform="translate(589.921875 0)"/>
      <use xlink:href="#DejaVuSans-53" transform="translate(653.296875 0)"/>
      <use xlink:href="#DejaVuSans-56" transform="translate(716.78125 0)"/>
     </g>
    </g>
   </g>
   <g id="matplotlib.axis_2">
    <g id="ytick_1">
     <g id="line2d_13">
      <path d="M 46.266646 257.022587 
L 472.19976 257.022587 
" clip-path="url(#pbf628822fb)" style="fill: none; stroke: #b0b0b0; stroke-opacity: 0.2; stroke-width: 0.8; stroke-linecap: square"/>
     </g>
     <g id="line2d_14">
      <defs>
       <path id="m7572012700" d="M 0 0 
L -3.5 0 
" style="stroke: #000000; stroke-width: 0.8"/>
      </defs>
      <g>
       <use xlink:href="#m7572012700" x="46.266646" y="257.022587" style="stroke: #000000; stroke-width: 0.8"/>
      </g>
     </g>
     <g id="text_8">
      <!-- 1.00 -->
      <g transform="translate(17.001021 260.821415) scale(0.1 -0.1)">
       <defs>
        <path id="DejaVuSans-11" d="M 684 794 
L 1344 794 
L 1344 0 
L 684 0 
L 684 794 
z
" transform="scale(0.015625)"/>
       </defs>
       <use xlink:href="#DejaVuSans-14"/>
       <use xlink:href="#DejaVuSans-11" transform="translate(63.625 0)"/>
       <use xlink:href="#DejaVuSans-13" transform="translate(95.40625 0)"/>
       <use xlink:href="#DejaVuSans-13" transform="translate(159.03125 0)"/>
      </g>
     </g>
    </g>
    <g id="ytick_2">
     <g id="line2d_15">
      <path d="M 46.266646 228.341397 
L 472.19976 228.341397 
" clip-path="url(#pbf628822fb)" style="fill: none; stroke: #b0b0b0; stroke-opacity: 0.2; stroke-width: 0.8; stroke-linecap: square"/>
     </g>
     <g id="line2d_16">
      <g>
       <use xlink:href="#m7572012700" x="46.266646" y="228.341397" style="stroke: #000000; stroke-width: 0.8"/>
      </g>
     </g>
     <g id="text_9">
      <!-- 1.25 -->
      <g transform="translate(17.001021 232.140226) scale(0.1 -0.1)">
       <use xlink:href="#DejaVuSans-14"/>
       <use xlink:href="#DejaVuSans-11" transform="translate(63.625 0)"/>
       <use xlink:href="#DejaVuSans-15" transform="translate(95.40625 0)"/>
       <use xlink:href="#DejaVuSans-18" transform="translate(159.03125 0)"/>
      </g>
     </g>
    </g>
    <g id="ytick_3">
     <g id="line2d_17">
      <path d="M 46.266646 199.660208 
L 472.19976 199.660208 
" clip-path="url(#pbf628822fb)" style="fill: none; stroke: #b0b0b0; stroke-opacity: 0.2; stroke-width: 0.8; stroke-linecap: square"/>
     </g>
     <g id="line2d_18">
      <g>
       <use xlink:href="#m7572012700" x="46.266646" y="199.660208" style="stroke: #000000; stroke-width: 0.8"/>
      </g>
     </g>
     <g id="text_10">
      <!-- 1.50 -->
      <g transform="translate(17.001021 203.459036) scale(0.1 -0.1)">
       <use xlink:href="#DejaVuSans-14"/>
       <use xlink:href="#DejaVuSans-11" transform="translate(63.625 0)"/>
       <use xlink:href="#DejaVuSans-18" transform="translate(95.40625 0)"/>
       <use xlink:href="#DejaVuSans-13" transform="translate(159.03125 0)"/>
      </g>
     </g>
    </g>
    <g id="ytick_4">
     <g id="line2d_19">
      <path d="M 46.266646 170.979018 
L 472.19976 170.979018 
" clip-path="url(#pbf628822fb)" style="fill: none; stroke: #b0b0b0; stroke-opacity: 0.2; stroke-width: 0.8; stroke-linecap: square"/>
     </g>
     <g id="line2d_20">
      <g>
       <use xlink:href="#m7572012700" x="46.266646" y="170.979018" style="stroke: #000000; stroke-width: 0.8"/>
      </g>
     </g>
     <g id="text_11">
      <!-- 1.75 -->
      <g transform="translate(17.001021 174.777846) scale(0.1 -0.1)">
       <defs>
        <path id="DejaVuSans-1a" d="M 525 4666 
L 3525 4666 
L 3525 4397 
L 1831 0 
L 1172 0 
L 2766 4134 
L 525 4134 
L 525 4666 
z
" transform="scale(0.015625)"/>
       </defs>
       <use xlink:href="#DejaVuSans-14"/>
       <use xlink:href="#DejaVuSans-11" transform="translate(63.625 0)"/>
       <use xlink:href="#DejaVuSans-1a" transform="translate(95.40625 0)"/>
       <use xlink:href="#DejaVuSans-18" transform="translate(159.03125 0)"/>
      </g>
     </g>
    </g>
    <g id="ytick_5">
     <g id="line2d_21">
      <path d="M 46.266646 142.297828 
L 472.19976 142.297828 
" clip-path="url(#pbf628822fb)" style="fill: none; stroke: #b0b0b0; stroke-opacity: 0.2; stroke-width: 0.8; stroke-linecap: square"/>
     </g>
     <g id="line2d_22">
      <g>
       <use xlink:href="#m7572012700" x="46.266646" y="142.297828" style="stroke: #000000; stroke-width: 0.8"/>
      </g>
     </g>
     <g id="text_12">
      <!-- 2.00 -->
      <g transform="translate(17.001021 146.096656) scale(0.1 -0.1)">
       <use xlink:href="#DejaVuSans-15"/>
       <use xlink:href="#DejaVuSans-11" transform="translate(63.625 0)"/>
       <use xlink:href="#DejaVuSans-13" transform="translate(95.40625 0)"/>
       <use xlink:href="#DejaVuSans-13" transform="translate(159.03125 0)"/>
      </g>
     </g>
    </g>
    <g id="ytick_6">
     <g id="line2d_23">
      <path d="M 46.266646 113.616638 
L 472.19976 113.616638 
" clip-path="url(#pbf628822fb)" style="fill: none; stroke: #b0b0b0; stroke-opacity: 0.2; stroke-width: 0.8; stroke-linecap: square"/>
     </g>
     <g id="line2d_24">
      <g>
       <use xlink:href="#m7572012700" x="46.266646" y="113.616638" style="stroke: #000000; stroke-width: 0.8"/>
      </g>
     </g>
     <g id="text_13">
      <!-- 2.25 -->
      <g transform="translate(17.001021 117.415466) scale(0.1 -0.1)">
       <use xlink:href="#DejaVuSans-15"/>
       <use xlink:href="#DejaVuSans-11" transform="translate(63.625 0)"/>
       <use xlink:href="#DejaVuSans-15" transform="translate(95.40625 0)"/>
       <use xlink:href="#DejaVuSans-18" transform="translate(159.03125 0)"/>
      </g>
     </g>
    </g>
    <g id="ytick_7">
     <g id="line2d_25">
      <path d="M 46.266646 84.935448 
L 472.19976 84.935448 
" clip-path="url(#pbf628822fb)" style="fill: none; stroke: #b0b0b0; stroke-opacity: 0.2; stroke-width: 0.8; stroke-linecap: square"/>
     </g>
     <g id="line2d_26">
      <g>
       <use xlink:href="#m7572012700" x="46.266646" y="84.935448" style="stroke: #000000; stroke-width: 0.8"/>
      </g>
     </g>
     <g id="text_14">
      <!-- 2.50 -->
      <g transform="translate(17.001021 88.734277) scale(0.1 -0.1)">
       <use xlink:href="#DejaVuSans-15"/>
       <use xlink:href="#DejaVuSans-11" transform="translate(63.625 0)"/>
       <use xlink:href="#DejaVuSans-18" transform="translate(95.40625 0)"/>
       <use xlink:href="#DejaVuSans-13" transform="translate(159.03125 0)"/>
      </g>
     </g>
    </g>
    <g id="ytick_8">
     <g id="line2d_27">
      <path d="M 46.266646 56.254259 
L 472.19976 56.254259 
" clip-path="url(#pbf628822fb)" style="fill: none; stroke: #b0b0b0; stroke-opacity: 0.2; stroke-width: 0.8; stroke-linecap: square"/>
     </g>
     <g id="line2d_28">
      <g>
       <use xlink:href="#m7572012700" x="46.266646" y="56.254259" style="stroke: #000000; stroke-width: 0.8"/>
      </g>
     </g>
     <g id="text_15">
      <!-- 2.75 -->
      <g transform="translate(17.001021 60.053087) scale(0.1 -0.1)">
       <use xlink:href="#DejaVuSans-15"/>
       <use xlink:href="#DejaVuSans-11" transform="translate(63.625 0)"/>
       <use xlink:href="#DejaVuSans-1a" transform="translate(95.40625 0)"/>
       <use xlink:href="#DejaVuSans-18" transform="translate(159.03125 0)"/>
      </g>
     </g>
    </g>
    <g id="ytick_9">
     <g id="line2d_29">
      <path d="M 46.266646 27.573069 
L 472.19976 27.573069 
" clip-path="url(#pbf628822fb)" style="fill: none; stroke: #b0b0b0; stroke-opacity: 0.2; stroke-width: 0.8; stroke-linecap: square"/>
     </g>
     <g id="line2d_30">
      <g>
       <use xlink:href="#m7572012700" x="46.266646" y="27.573069" style="stroke: #000000; stroke-width: 0.8"/>
      </g>
     </g>
     <g id="text_16">
      <!-- 3.00 -->
      <g transform="translate(17.001021 31.371897) scale(0.1 -0.1)">
       <use xlink:href="#DejaVuSans-16"/>
       <use xlink:href="#DejaVuSans-11" transform="translate(63.625 0)"/>
       <use xlink:href="#DejaVuSans-13" transform="translate(95.40625 0)"/>
       <use xlink:href="#DejaVuSans-13" transform="translate(159.03125 0)"/>
      </g>
     </g>
    </g>
    <g id="text_17">
     <!-- Generated groups / training groups -->
     <g transform="translate(10.598678 231.448516) rotate(-90) scale(0.1 -0.1)">
      <defs>
       <path id="DejaVuSans-2a" d="M 3809 666 
L 3809 1919 
L 2778 1919 
L 2778 2438 
L 4434 2438 
L 4434 434 
Q 4069 175 3628 42 
Q 3188 -91 2688 -91 
Q 1594 -91 976 548 
Q 359 1188 359 2328 
Q 359 3472 976 4111 
Q 1594 4750 2688 4750 
Q 3144 4750 3555 4637 
Q 3966 4525 4313 4306 
L 4313 3634 
Q 3963 3931 3569 4081 
Q 3175 4231 2741 4231 
Q 1884 4231 1454 3753 
Q 1025 3275 1025 2328 
Q 1025 1384 1454 906 
Q 1884 428 2741 428 
Q 3075 428 3337 486 
Q 3600 544 3809 666 
z
" transform="scale(0.015625)"/>
       <path id="DejaVuSans-48" d="M 3597 1894 
L 3597 1613 
L 953 1613 
Q 991 1019 1311 708 
Q 1631 397 2203 397 
Q 2534 397 2845 478 
Q 3156 559 3463 722 
L 3463 178 
Q 3153 47 2828 -22 
Q 2503 -91 2169 -91 
Q 1331 -91 842 396 
Q 353 884 353 1716 
Q 353 2575 817 3079 
Q 1281 3584 2069 3584 
Q 2775 3584 3186 3129 
Q 3597 2675 3597 1894 
z
M 3022 2063 
Q 3016 2534 2758 2815 
Q 2500 3097 2075 3097 
Q 1594 3097 1305 2825 
Q 1016 2553 972 2059 
L 3022 2063 
z
" transform="scale(0.015625)"/>
       <path id="DejaVuSans-57" d="M 1172 4494 
L 1172 3500 
L 2356 3500 
L 2356 3053 
L 1172 3053 
L 1172 1153 
Q 1172 725 1289 603 
Q 1406 481 1766 481 
L 2356 481 
L 2356 0 
L 1766 0 
Q 1100 0 847 248 
Q 594 497 594 1153 
L 594 3053 
L 172 3053 
L 172 3500 
L 594 3500 
L 594 4494 
L 1172 4494 
z
" transform="scale(0.015625)"/>
       <path id="DejaVuSans-47" d="M 2906 2969 
L 2906 4863 
L 3481 4863 
L 3481 0 
L 2906 0 
L 2906 525 
Q 2725 213 2448 61 
Q 2172 -91 1784 -91 
Q 1150 -91 751 415 
Q 353 922 353 1747 
Q 353 2572 751 3078 
Q 1150 3584 1784 3584 
Q 2172 3584 2448 3432 
Q 2725 3281 2906 2969 
z
M 947 1747 
Q 947 1113 1208 752 
Q 1469 391 1925 391 
Q 2381 391 2643 752 
Q 2906 1113 2906 1747 
Q 2906 2381 2643 2742 
Q 2381 3103 1925 3103 
Q 1469 3103 1208 2742 
Q 947 2381 947 1747 
z
" transform="scale(0.015625)"/>
       <path id="DejaVuSans-12" d="M 1625 4666 
L 2156 4666 
L 531 -594 
L 0 -594 
L 1625 4666 
z
" transform="scale(0.015625)"/>
      </defs>
      <use xlink:href="#DejaVuSans-2a"/>
      <use xlink:href="#DejaVuSans-48" transform="translate(77.484375 0)"/>
      <use xlink:href="#DejaVuSans-51" transform="translate(139.015625 0)"/>
      <use xlink:href="#DejaVuSans-48" transform="translate(202.390625 0)"/>
      <use xlink:href="#DejaVuSans-55" transform="translate(263.921875 0)"/>
      <use xlink:href="#DejaVuSans-44" transform="translate(305.03125 0)"/>
      <use xlink:href="#DejaVuSans-57" transform="translate(366.3125 0)"/>
      <use xlink:href="#DejaVuSans-48" transform="translate(405.515625 0)"/>
      <use xlink:href="#DejaVuSans-47" transform="translate(467.046875 0)"/>
      <use xlink:href="#DejaVuSans-3" transform="translate(530.53125 0)"/>
      <use xlink:href="#DejaVuSans-4a" transform="translate(562.3125 0)"/>
      <use xlink:href="#DejaVuSans-55" transform="translate(625.796875 0)"/>
      <use xlink:href="#DejaVuSans-52" transform="translate(664.703125 0)"/>
      <use xlink:href="#DejaVuSans-58" transform="translate(725.890625 0)"/>
      <use xlink:href="#DejaVuSans-53" transform="translate(789.265625 0)"/>
      <use xlink:href="#DejaVuSans-56" transform="translate(852.75 0)"/>
      <use xlink:href="#DejaVuSans-3" transform="translate(904.84375 0)"/>
      <use xlink:href="#DejaVuSans-12" transform="translate(936.625 0)"/>
      <use xlink:href="#DejaVuSans-3" transform="translate(970.3125 0)"/>
      <use xlink:href="#DejaVuSans-57" transform="translate(1002.09375 0)"/>
      <use xlink:href="#DejaVuSans-55" transform="translate(1041.296875 0)"/>
      <use xlink:href="#DejaVuSans-44" transform="translate(1082.40625 0)"/>
      <use xlink:href="#DejaVuSans-4c" transform="translate(1143.6875 0)"/>
      <use xlink:href="#DejaVuSans-51" transform="translate(1171.46875 0)"/>
      <use xlink:href="#DejaVuSans-4c" transform="translate(1234.84375 0)"/>
      <use xlink:href="#DejaVuSans-51" transform="translate(1262.625 0)"/>
      <use xlink:href="#DejaVuSans-4a" transform="translate(1326 0)"/>
      <use xlink:href="#DejaVuSans-3" transform="translate(1389.484375 0)"/>
      <use xlink:href="#DejaVuSans-4a" transform="translate(1421.265625 0)"/>
      <use xlink:href="#DejaVuSans-55" transform="translate(1484.75 0)"/>
      <use xlink:href="#DejaVuSans-52" transform="translate(1523.65625 0)"/>
      <use xlink:href="#DejaVuSans-58" transform="translate(1584.84375 0)"/>
      <use xlink:href="#DejaVuSans-53" transform="translate(1648.21875 0)"/>
      <use xlink:href="#DejaVuSans-56" transform="translate(1711.703125 0)"/>
     </g>
    </g>
   </g>
   <g id="line2d_31">
    <path d="M 65.627242 257.022587 
L 452.839164 257.022587 
L 452.839164 257.022587 
" clip-path="url(#pbf628822fb)" style="fill: none; stroke: #2563eb; stroke-width: 1.5; stroke-linecap: square"/>
   </g>
   <g id="line2d_32">
    <path d="M 65.627242 142.297828 
L 66.868306 142.297828 
L 67.488838 113.616638 
L 68.10937 119.352876 
L 68.729902 123.177035 
L 69.350434 109.519325 
L 69.970966 113.616638 
L 70.591498 116.803437 
L 71.21203 107.8804 
L 72.453094 113.616638 
L 73.073625 106.997902 
L 74.314689 111.704559 
L 75.555753 115.303767 
L 76.176285 116.803437 
L 76.796817 112.107102 
L 77.417349 113.616638 
L 78.658413 105.794496 
L 79.278945 102.393564 
L 79.899477 104.056242 
L 81.14054 98.172921 
L 82.381604 101.3247 
L 83.622668 96.407924 
L 84.2432 97.888244 
L 84.863732 95.690895 
L 86.725328 99.685775 
L 87.966392 101.989129 
L 89.207456 98.172921 
L 89.827987 99.276043 
L 90.448519 97.52719 
L 91.069051 98.593158 
L 91.689583 91.605493 
L 92.310115 87.542829 
L 94.171711 83.714972 
L 94.792243 82.545349 
L 95.412775 79.082144 
L 96.033307 80.346458 
L 97.274371 78.316712 
L 98.515434 80.686383 
L 99.756498 74.692166 
L 100.37703 75.878231 
L 101.618094 74.240767 
L 102.238626 71.550893 
L 103.47969 70.132254 
L 104.100222 67.635683 
L 105.961817 65.814655 
L 108.443945 70.185122 
L 109.064477 69.584952 
L 109.685009 70.594853 
L 112.787669 67.801231 
L 113.408201 68.756316 
L 115.269796 67.23101 
L 115.890328 63.949212 
L 116.51086 62.128719 
L 117.131392 58.9858 
L 117.751924 57.266536 
L 118.372456 56.921263 
L 118.992988 55.265252 
L 120.234052 54.642956 
L 121.475116 56.569436 
L 122.095648 53.760242 
L 122.716179 53.47866 
L 123.336711 54.423544 
L 123.957243 54.140908 
L 124.577775 55.059209 
L 125.818839 54.498267 
L 126.439371 55.385132 
L 127.680435 54.834398 
L 128.300967 55.691882 
L 130.162563 54.888488 
L 130.783095 55.713104 
L 131.403626 54.377919 
L 132.64469 53.886087 
L 133.265222 54.68983 
L 133.885754 54.445535 
L 135.126818 56.000443 
L 135.74735 55.75108 
L 136.988414 53.287239 
L 137.608946 54.048013 
L 138.229478 53.823649 
L 139.470541 55.298219 
L 140.711605 54.843708 
L 141.332137 53.689274 
L 143.814265 52.866716 
L 144.434797 53.565397 
L 145.055329 53.363906 
L 145.675861 52.283017 
L 146.296393 52.970153 
L 147.537457 50.863057 
L 148.157988 51.545407 
L 148.77852 51.367834 
L 149.399052 52.036437 
L 150.019584 51.857872 
L 153.742776 55.652555 
L 156.224903 54.888488 
L 156.845435 55.479091 
L 159.327563 54.744722 
L 161.189159 56.439299 
L 161.809691 56.254259 
L 162.430223 56.802307 
L 163.050755 56.617312 
L 164.291819 57.688318 
L 164.91235 57.501267 
L 165.532882 55.90017 
L 166.153414 56.430217 
L 166.773946 56.254259 
L 167.394478 56.775735 
L 168.01501 55.908702 
L 168.635542 52.991129 
L 169.256074 52.839831 
L 169.876606 52.011479 
L 171.11767 51.72565 
L 171.738202 52.252232 
L 172.979265 51.968564 
L 173.599797 50.518021 
L 176.081925 50.005284 
L 176.702457 49.243301 
L 179.805117 48.657619 
L 181.04618 49.659119 
L 181.666712 49.54164 
L 182.287244 48.818395 
L 184.14884 48.486436 
L 184.769372 48.972506 
L 187.2515 48.537999 
L 188.492564 49.480309 
L 193.456819 48.633653 
L 195.318415 49.971712 
L 195.938947 49.865558 
L 196.559479 49.21925 
L 197.180011 49.117624 
L 197.800542 48.480852 
L 199.041606 48.287261 
L 199.662138 47.663119 
L 203.38533 47.122579 
L 204.005862 47.547469 
L 204.626394 47.458694 
L 205.246926 46.863073 
L 205.867458 45.767304 
L 206.487989 45.184326 
L 209.590649 44.806402 
L 210.211181 44.242478 
L 211.452245 44.101212 
L 212.072777 44.515544 
L 214.554904 44.234341 
L 215.795968 45.041448 
L 216.4165 44.969856 
L 217.037032 44.430584 
L 218.278096 44.294086 
L 218.898628 44.689263 
L 219.51916 44.159781 
L 220.139692 44.093434 
L 220.760224 43.570545 
L 222.62182 43.381599 
L 223.242351 43.769505 
L 223.862883 43.258094 
L 224.483415 43.197063 
L 225.103947 43.581175 
L 225.724479 43.519367 
L 226.965543 42.518057 
L 228.206607 42.404406 
L 229.447671 41.426625 
L 230.688735 42.182214 
L 231.309266 41.699625 
L 231.929798 41.64711 
L 232.55033 40.745171 
L 233.170862 40.273227 
L 233.791394 40.226535 
L 235.032458 39.296767 
L 236.273522 39.211812 
L 236.894054 39.583964 
L 238.135118 39.497865 
L 238.75565 39.045545 
L 239.376182 39.004717 
L 239.996713 39.371005 
L 241.237777 39.287921 
L 243.099373 40.36468 
L 243.719905 40.320264 
L 244.960969 41.023558 
L 245.581501 40.977336 
L 246.202033 40.538538 
L 246.822565 40.885839 
L 247.443097 40.450338 
L 248.063628 39.628891 
L 248.68416 39.200578 
L 249.304692 38.388871 
L 249.925224 38.352576 
L 251.166288 37.515881 
L 254.88948 37.320924 
L 255.510012 37.662868 
L 256.130543 37.257626 
L 257.371607 37.195145 
L 257.992139 36.795316 
L 259.233203 36.736388 
L 261.094799 37.738554 
L 261.715331 37.706486 
L 262.956395 38.362231 
L 263.576927 38.328515 
L 264.197459 37.937611 
L 264.81799 37.192847 
L 265.438522 37.163064 
L 266.059054 36.779377 
L 268.541182 38.066187 
L 270.402778 37.971083 
L 271.02331 37.594207 
L 271.643842 37.908633 
L 272.884905 37.846928 
L 273.505437 38.157794 
L 274.125969 38.126385 
L 274.746501 38.434584 
L 275.367033 38.402545 
L 275.987565 38.033267 
L 276.608097 38.002592 
L 277.228629 38.307549 
L 277.849161 38.276253 
L 279.090225 38.879277 
L 279.710757 38.515026 
L 280.951821 38.452141 
L 281.572352 38.749693 
L 282.192884 38.71776 
L 282.813416 39.01286 
L 285.295544 38.883961 
L 285.916076 39.174449 
L 286.536608 39.141952 
L 287.15714 39.430097 
L 287.777672 39.397069 
L 290.259799 40.530962 
L 292.741927 40.389731 
L 293.362459 40.666655 
L 293.982991 40.631171 
L 295.224055 39.942315 
L 295.844587 39.909064 
L 297.085651 39.229595 
L 297.706183 39.504444 
L 300.808842 39.347452 
L 301.429374 39.015433 
L 302.049906 38.0845 
L 302.670438 38.057055 
L 304.532034 38.867216 
L 305.152566 38.541586 
L 307.634693 38.429376 
L 308.255225 38.694346 
L 308.875757 38.374128 
L 309.496289 38.346714 
L 311.357885 39.132238 
L 312.598949 38.499236 
L 313.219481 38.758733 
L 314.460545 38.703083 
L 315.701608 38.080039 
L 316.32214 38.054096 
L 316.942672 38.310854 
L 317.563204 38.284471 
L 318.804268 37.671092 
L 319.4248 37.646462 
L 320.665864 37.040646 
L 321.906928 37.549135 
L 323.768523 36.652007 
L 325.009587 36.60867 
L 325.630119 36.314003 
L 326.871183 36.272577 
L 328.112247 35.690387 
L 329.973843 35.633356 
L 330.594375 35.078427 
L 331.214906 35.060932 
L 331.835438 34.776716 
L 333.076502 34.743366 
L 333.697034 34.99176 
L 335.55863 34.940714 
L 336.179162 35.186382 
L 336.799694 35.169 
L 337.420226 34.890365 
L 338.040758 34.873735 
L 338.66129 35.117327 
L 340.522885 35.066353 
L 341.143417 35.307322 
L 341.763949 35.03275 
L 345.487141 34.933728 
L 346.107673 34.664224 
L 346.728205 34.648605 
L 347.348737 34.885196 
L 348.5898 34.853196 
L 349.210332 34.58681 
L 349.830864 34.821474 
L 350.451396 34.805717 
L 351.071928 34.541167 
L 352.312992 35.006638 
L 353.554056 34.974666 
L 354.174588 34.712592 
L 355.415652 34.682082 
L 356.036184 34.91154 
L 356.656715 34.895926 
L 357.897779 34.378775 
L 358.518311 33.879292 
L 359.759375 34.335791 
L 360.379907 34.080566 
L 361.000439 34.307436 
L 363.482567 34.251433 
L 364.103099 33.999559 
L 364.72363 33.986254 
L 365.964694 34.4329 
L 366.585226 34.418785 
L 367.205758 34.169153 
L 367.82629 34.155637 
L 368.446822 33.907565 
L 369.687886 33.881762 
L 370.308418 33.635759 
L 370.92895 33.623462 
L 371.549482 33.378978 
L 372.170014 33.599016 
L 375.272673 33.538756 
L 375.893205 33.75584 
L 377.754801 33.719038 
L 378.995865 34.148203 
L 379.616397 33.908953 
L 380.236929 34.122317 
L 380.857461 33.884057 
L 381.477992 33.421782 
L 383.339588 33.387579 
L 384.580652 32.919465 
L 385.201184 32.464434 
L 385.821716 32.454973 
L 387.06278 32.87826 
L 387.683312 32.868058 
L 388.303844 32.417492 
L 394.509163 32.32626 
L 395.750227 31.877938 
L 396.991291 31.861845 
L 397.611823 31.639805 
L 398.232354 31.632232 
L 398.852886 31.83793 
L 399.473418 31.830017 
L 400.714482 32.238401 
L 401.335014 32.229793 
L 401.955546 32.432497 
L 403.19661 32.414664 
L 403.817142 32.615915 
L 405.058206 32.178807 
L 405.678738 32.170418 
L 406.299269 31.744878 
L 406.919801 31.529095 
L 410.642993 31.486481 
L 411.263525 31.273867 
L 413.745653 31.247527 
L 414.366185 31.444775 
L 416.848312 31.417461 
L 417.468844 31.208713 
L 418.089376 31.202323 
L 418.709908 31.397227 
L 419.33044 31.189611 
L 419.950972 31.383856 
L 421.192036 30.97084 
L 421.812568 30.964931 
L 423.053631 31.350834 
L 424.294695 31.337785 
L 424.915227 30.935691 
L 425.535759 30.732443 
L 426.156291 30.924136 
L 426.776823 30.918388 
L 427.397355 30.519766 
L 428.017887 30.318619 
L 429.879483 30.304611 
L 430.500015 30.105194 
L 431.120547 30.100902 
L 432.36161 30.479946 
L 432.982142 30.475044 
L 434.223206 30.07966 
L 434.843738 29.690472 
L 435.46427 29.494757 
L 436.084802 29.68339 
L 438.56693 29.669368 
L 439.187462 29.856149 
L 439.807993 29.852369 
L 441.049057 30.223476 
L 441.669589 30.219109 
L 442.290121 30.026065 
L 443.531185 30.018023 
L 444.151717 29.826256 
L 444.772249 29.822574 
L 445.392781 30.006057 
L 446.013313 30.002095 
L 446.633845 29.811601 
L 447.254377 29.807967 
L 449.115972 30.353152 
L 450.357036 30.344198 
L 450.977568 30.524188 
L 452.839164 30.510023 
L 452.839164 30.510023 
" clip-path="url(#pbf628822fb)" style="fill: none; stroke: #d97706; stroke-width: 1.5; stroke-linecap: square"/>
   </g>
   <g id="patch_3">
    <path d="M 46.266646 268.398979 
L 46.266646 18.118365 
" style="fill: none; stroke: #000000; stroke-width: 0.8; stroke-linejoin: miter; stroke-linecap: square"/>
   </g>
   <g id="patch_4">
    <path d="M 472.19976 268.398979 
L 472.19976 18.118365 
" style="fill: none; stroke: #000000; stroke-width: 0.8; stroke-linejoin: miter; stroke-linecap: square"/>
   </g>
   <g id="patch_5">
    <path d="M 46.266646 268.398979 
L 472.19976 268.398979 
" style="fill: none; stroke: #000000; stroke-width: 0.8; stroke-linejoin: miter; stroke-linecap: square"/>
   </g>
   <g id="patch_6">
    <path d="M 46.266646 18.118365 
L 472.19976 18.118365 
" style="fill: none; stroke: #000000; stroke-width: 0.8; stroke-linejoin: miter; stroke-linecap: square"/>
   </g>
   <g id="text_18">
    <!-- FORMAL · sampling amplification -->
    <g transform="translate(160.325078 12.118365) scale(0.12 -0.12)">
     <defs>
      <path id="DejaVuSans-29" d="M 628 4666 
L 3309 4666 
L 3309 4134 
L 1259 4134 
L 1259 2759 
L 3109 2759 
L 3109 2228 
L 1259 2228 
L 1259 0 
L 628 0 
L 628 4666 
z
" transform="scale(0.015625)"/>
      <path id="DejaVuSans-32" d="M 2522 4238 
Q 1834 4238 1429 3725 
Q 1025 3213 1025 2328 
Q 1025 1447 1429 934 
Q 1834 422 2522 422 
Q 3209 422 3611 934 
Q 4013 1447 4013 2328 
Q 4013 3213 3611 3725 
Q 3209 4238 2522 4238 
z
M 2522 4750 
Q 3503 4750 4090 4092 
Q 4678 3434 4678 2328 
Q 4678 1225 4090 567 
Q 3503 -91 2522 -91 
Q 1538 -91 948 565 
Q 359 1222 359 2328 
Q 359 3434 948 4092 
Q 1538 4750 2522 4750 
z
" transform="scale(0.015625)"/>
      <path id="DejaVuSans-35" d="M 2841 2188 
Q 3044 2119 3236 1894 
Q 3428 1669 3622 1275 
L 4263 0 
L 3584 0 
L 2988 1197 
Q 2756 1666 2539 1819 
Q 2322 1972 1947 1972 
L 1259 1972 
L 1259 0 
L 628 0 
L 628 4666 
L 2053 4666 
Q 2853 4666 3247 4331 
Q 3641 3997 3641 3322 
Q 3641 2881 3436 2590 
Q 3231 2300 2841 2188 
z
M 1259 4147 
L 1259 2491 
L 2053 2491 
Q 2509 2491 2742 2702 
Q 2975 2913 2975 3322 
Q 2975 3731 2742 3939 
Q 2509 4147 2053 4147 
L 1259 4147 
z
" transform="scale(0.015625)"/>
      <path id="DejaVuSans-30" d="M 628 4666 
L 1569 4666 
L 2759 1491 
L 3956 4666 
L 4897 4666 
L 4897 0 
L 4281 0 
L 4281 4097 
L 3078 897 
L 2444 897 
L 1241 4097 
L 1241 0 
L 628 0 
L 628 4666 
z
" transform="scale(0.015625)"/>
      <path id="DejaVuSans-24" d="M 2188 4044 
L 1331 1722 
L 3047 1722 
L 2188 4044 
z
M 1831 4666 
L 2547 4666 
L 4325 0 
L 3669 0 
L 3244 1197 
L 1141 1197 
L 716 0 
L 50 0 
L 1831 4666 
z
" transform="scale(0.015625)"/>
      <path id="DejaVuSans-2f" d="M 628 4666 
L 1259 4666 
L 1259 531 
L 3531 531 
L 3531 0 
L 628 0 
L 628 4666 
z
" transform="scale(0.015625)"/>
      <path id="DejaVuSans-79" d="M 684 2619 
L 1344 2619 
L 1344 1825 
L 684 1825 
L 684 2619 
z
" transform="scale(0.015625)"/>
      <path id="DejaVuSans-50" d="M 3328 2828 
Q 3544 3216 3844 3400 
Q 4144 3584 4550 3584 
Q 5097 3584 5394 3201 
Q 5691 2819 5691 2113 
L 5691 0 
L 5113 0 
L 5113 2094 
Q 5113 2597 4934 2840 
Q 4756 3084 4391 3084 
Q 3944 3084 3684 2787 
Q 3425 2491 3425 1978 
L 3425 0 
L 2847 0 
L 2847 2094 
Q 2847 2600 2669 2842 
Q 2491 3084 2119 3084 
Q 1678 3084 1418 2786 
Q 1159 2488 1159 1978 
L 1159 0 
L 581 0 
L 581 3500 
L 1159 3500 
L 1159 2956 
Q 1356 3278 1631 3431 
Q 1906 3584 2284 3584 
Q 2666 3584 2933 3390 
Q 3200 3197 3328 2828 
z
" transform="scale(0.015625)"/>
      <path id="DejaVuSans-4f" d="M 603 4863 
L 1178 4863 
L 1178 0 
L 603 0 
L 603 4863 
z
" transform="scale(0.015625)"/>
      <path id="DejaVuSans-13af" d="M 3431 3500 
L 3431 0 
L 2853 0 
L 2853 3053 
L 1275 3053 
L 1275 0 
L 697 0 
L 697 3053 
L 147 3053 
L 147 3500 
L 697 3500 
L 697 3744 
Q 697 4316 967 4589 
Q 1238 4863 1797 4863 
L 2375 4863 
L 2375 4384 
L 1825 4384 
Q 1516 4384 1395 4259 
Q 1275 4134 1275 3809 
L 1275 3500 
L 3431 3500 
z
M 2853 4856 
L 3431 4856 
L 3431 4128 
L 2853 4128 
L 2853 4856 
z
" transform="scale(0.015625)"/>
      <path id="DejaVuSans-46" d="M 3122 3366 
L 3122 2828 
Q 2878 2963 2633 3030 
Q 2388 3097 2138 3097 
Q 1578 3097 1268 2742 
Q 959 2388 959 1747 
Q 959 1106 1268 751 
Q 1578 397 2138 397 
Q 2388 397 2633 464 
Q 2878 531 3122 666 
L 3122 134 
Q 2881 22 2623 -34 
Q 2366 -91 2075 -91 
Q 1284 -91 818 406 
Q 353 903 353 1747 
Q 353 2603 823 3093 
Q 1294 3584 2113 3584 
Q 2378 3584 2631 3529 
Q 2884 3475 3122 3366 
z
" transform="scale(0.015625)"/>
     </defs>
     <use xlink:href="#DejaVuSans-29"/>
     <use xlink:href="#DejaVuSans-32" transform="translate(57.515625 0)"/>
     <use xlink:href="#DejaVuSans-35" transform="translate(136.234375 0)"/>
     <use xlink:href="#DejaVuSans-30" transform="translate(205.71875 0)"/>
     <use xlink:href="#DejaVuSans-24" transform="translate(292 0)"/>
     <use xlink:href="#DejaVuSans-2f" transform="translate(360.40625 0)"/>
     <use xlink:href="#DejaVuSans-3" transform="translate(416.125 0)"/>
     <use xlink:href="#DejaVuSans-79" transform="translate(447.90625 0)"/>
     <use xlink:href="#DejaVuSans-3" transform="translate(479.6875 0)"/>
     <use xlink:href="#DejaVuSans-56" transform="translate(511.46875 0)"/>
     <use xlink:href="#DejaVuSans-44" transform="translate(563.5625 0)"/>
     <use xlink:href="#DejaVuSans-50" transform="translate(624.84375 0)"/>
     <use xlink:href="#DejaVuSans-53" transform="translate(722.25 0)"/>
     <use xlink:href="#DejaVuSans-4f" transform="translate(785.734375 0)"/>
     <use xlink:href="#DejaVuSans-4c" transform="translate(813.515625 0)"/>
     <use xlink:href="#DejaVuSans-51" transform="translate(841.296875 0)"/>
     <use xlink:href="#DejaVuSans-4a" transform="translate(904.671875 0)"/>
     <use xlink:href="#DejaVuSans-3" transform="translate(968.15625 0)"/>
     <use xlink:href="#DejaVuSans-44" transform="translate(999.9375 0)"/>
     <use xlink:href="#DejaVuSans-50" transform="translate(1061.21875 0)"/>
     <use xlink:href="#DejaVuSans-53" transform="translate(1158.625 0)"/>
     <use xlink:href="#DejaVuSans-4f" transform="translate(1222.109375 0)"/>
     <use xlink:href="#DejaVuSans-4c" transform="translate(1249.890625 0)"/>
     <use xlink:href="#DejaVuSans-13af" transform="translate(1277.671875 0)"/>
     <use xlink:href="#DejaVuSans-46" transform="translate(1340.65625 0)"/>
     <use xlink:href="#DejaVuSans-44" transform="translate(1395.640625 0)"/>
     <use xlink:href="#DejaVuSans-57" transform="translate(1456.921875 0)"/>
     <use xlink:href="#DejaVuSans-4c" transform="translate(1496.125 0)"/>
     <use xlink:href="#DejaVuSans-52" transform="translate(1523.90625 0)"/>
     <use xlink:href="#DejaVuSans-51" transform="translate(1585.09375 0)"/>
    </g>
   </g>
   <g id="legend_1">
    <g id="line2d_33">
     <path d="M 392.44976 134.856328 
L 402.44976 134.856328 
L 412.44976 134.856328 
" style="fill: none; stroke: #2563eb; stroke-width: 1.5; stroke-linecap: square"/>
    </g>
    <g id="text_19">
     <!-- vanilla -->
     <g transform="translate(420.44976 138.356328) scale(0.1 -0.1)">
      <defs>
       <path id="DejaVuSans-59" d="M 191 3500 
L 800 3500 
L 1894 563 
L 2988 3500 
L 3597 3500 
L 2284 0 
L 1503 0 
L 191 3500 
z
" transform="scale(0.015625)"/>
      </defs>
      <use xlink:href="#DejaVuSans-59"/>
      <use xlink:href="#DejaVuSans-44" transform="translate(59.1875 0)"/>
      <use xlink:href="#DejaVuSans-51" transform="translate(120.46875 0)"/>
      <use xlink:href="#DejaVuSans-4c" transform="translate(183.84375 0)"/>
      <use xlink:href="#DejaVuSans-4f" transform="translate(211.625 0)"/>
      <use xlink:href="#DejaVuSans-4f" transform="translate(239.40625 0)"/>
      <use xlink:href="#DejaVuSans-44" transform="translate(267.1875 0)"/>
     </g>
    </g>
    <g id="line2d_34">
     <path d="M 392.44976 149.857109 
L 402.44976 149.857109 
L 412.44976 149.857109 
" style="fill: none; stroke: #d97706; stroke-width: 1.5; stroke-linecap: square"/>
    </g>
    <g id="text_20">
     <!-- dynamic -->
     <g transform="translate(420.44976 153.357109) scale(0.1 -0.1)">
      <defs>
       <path id="DejaVuSans-5c" d="M 2059 -325 
Q 1816 -950 1584 -1140 
Q 1353 -1331 966 -1331 
L 506 -1331 
L 506 -850 
L 844 -850 
Q 1081 -850 1212 -737 
Q 1344 -625 1503 -206 
L 1606 56 
L 191 3500 
L 800 3500 
L 1894 763 
L 2988 3500 
L 3597 3500 
L 2059 -325 
z
" transform="scale(0.015625)"/>
      </defs>
      <use xlink:href="#DejaVuSans-47"/>
      <use xlink:href="#DejaVuSans-5c" transform="translate(63.484375 0)"/>
      <use xlink:href="#DejaVuSans-51" transform="translate(122.671875 0)"/>
      <use xlink:href="#DejaVuSans-44" transform="translate(186.046875 0)"/>
      <use xlink:href="#DejaVuSans-50" transform="translate(247.328125 0)"/>
      <use xlink:href="#DejaVuSans-4c" transform="translate(344.734375 0)"/>
      <use xlink:href="#DejaVuSans-46" transform="translate(372.515625 0)"/>
     </g>
    </g>
   </g>
  </g>
 </g>
 <defs>
  <clipPath id="pbf628822fb">
   <rect x="46.266646" y="18.118365" width="425.933114" height="250.280614"/>
  </clipPath>
 </defs>
</svg>
