<?xml version="1.0" encoding="utf-8" standalone="no"?>
<!DOCTYPE svg PUBLIC "-//W3C//DTD SVG 1.1//EN"
  "http://www.w3.org/Graphics/SVG/1.1/DTD/svg11.dtd">
<svg xmlns:xlink="http://www.w3.org/1999/xlink" width="475.2pt" height="302.4pt" viewBox="0 0 475.2 302.4" xmlns="http://www.w3.org/2000/svg" version="1.1">
 <metadata>
  <rdf:RDF xmlns:dc="http://purl.org/dc/elements/1.1/" xmlns:cc="http://creativecommons.org/ns#" xmlns:rdf="http://www.w3.org/1999/02/22-rdf-syntax-ns#">
   <cc:Work>
    <dc:type rdf:resource="http://purl.org/dc/dcmitype/StillImage"/>
    <dc:date>2026-09-13T13:57:00.569229</dc:date>
    <dc:format>image/svg+xml</dc:format>
    <dc:creator>
     <cc:Agent>
      <dc:title>Matplotlib v3.11.1, https://matplotlib.org/</dc:title>
     </cc:Agent>
    </dc:creator>
   </cc:Work>
  </rdf:RDF>
 </metadata>
 <defs>
  <style type="text/css">*{stroke-linejoin: round; stroke-linecap: butt}</style>
 </defs>
 <g id="figure_1">
  <g id="patch_1">
   <path d="M 0 302.4 
L 475.2 302.4 
L 475.2 0 
L 0 0 
z
" style="fill: #ffffff"/>
  </g>
  <g id="axes_1">
   <g id="patch_2">
    <path d="M 52.629146 268.398979 
L 472.19976 268.398979 
L 472.19976 18.118365 
L 52.629146 18.118365 
z
" style="fill: #ffffff"/>
   </g>
   <g id="matplotlib.axis_1">
    <g id="xtick_1">
     <g id="line2d_1">
      <path d="M 71.089275 268.398979 
L 71.089275 18.118365 
" clip-path="url(#pb949c0b727)" style="fill: none; stroke: #b0b0b0; stroke-opacity: 0.2; stroke-width: 0.8; stroke-linecap: square"/>
     </g>
     <g id="line2d_2">
      <defs>
       <path id="m8d059cf148" d="M 0 0 
L 0 3.5 
" style="stroke: #000000; stroke-width: 0.8"/>
      </defs>
      <g>
       <use xlink:href="#m8d059cf148" x="71.089275" y="268.398979" style="stroke: #000000; stroke-width: 0.8"/>
      </g>
     </g>
     <g id="text_1">
      <!-- 0 -->
      <g transform="translate(67.908025 282.996635) scale(0.1 -0.1)">
       <defs>
        <path id="DejaVuSans-13" d="M 2034 4250 
Q 1547 4250 1301 3770 
Q 1056 3291 1056 2328 
Q 1056 1369 1301 889 
Q 1547 409 2034 409 
Q 2525 409 2770 889 
Q 3016 1369 3016 2328 
Q 3016 3291 2770 3770 
Q 2525 4250 2034 4250 
z
M 2034 4750 
Q 2819 4750 3233 4129 
Q 3647 3509 3647 2328 
Q 3647 1150 3233 529 
Q 2819 -91 2034 -91 
Q 1250 -91 836 529 
Q 422 1150 422 2328 
Q 422 3509 836 4129 
Q 1250 4750 2034 4750 
z
" transform="scale(0.015625)"/>
       </defs>
       <use xlink:href="#DejaVuSans-13"/>
      </g>
     </g>
    </g>
    <g id="xtick_2">
     <g id="line2d_3">
      <path d="M 147.497094 268.398979 
L 147.497094 18.118365 
" clip-path="url(#pb949c0b727)" style="fill: none; stroke: #b0b0b0; stroke-opacity: 0.2; stroke-width: 0.8; stroke-linecap: square"/>
     </g>
     <g id="line2d_4">
      <g>
       <use xlink:href="#m8d059cf148" x="147.497094" y="268.398979" style="stroke: #000000; stroke-width: 0.8"/>
      </g>
     </g>
     <g id="text_2">
      <!-- 1000 -->
      <g transform="translate(134.772094 282.996635) scale(0.1 -0.1)">
       <defs>
        <path id="DejaVuSans-14" d="M 794 531 
L 1825 531 
L 1825 4091 
L 703 3866 
L 703 4441 
L 1819 4666 
L 2450 4666 
L 2450 531 
L 3481 531 
L 3481 0 
L 794 0 
L 794 531 
z
" transform="scale(0.015625)"/>
       </defs>
       <use xlink:href="#DejaVuSans-14"/>
       <use xlink:href="#DejaVuSans-13" transform="translate(63.625 0)"/>
       <use xlink:href="#DejaVuSans-13" transform="translate(127.25 0)"/>
       <use xlink:href="#DejaVuSans-13" transform="translate(190.875 0)"/>
      </g>
     </g>
    </g>
    <g id="xtick_3">
     <g id="line2d_5">
      <path d="M 223.904913 268.398979 
L 223.904913 18.118365 
" clip-path="url(#pb949c0b727)" style="fill: none; stroke: #b0b0b0; stroke-opacity: 0.2; stroke-width: 0.8; stroke-linecap: square"/>
     </g>
     <g id="line2d_6">
      <g>
       <use xlink:href="#m8d059cf148" x="223.904913" y="268.398979" style="stroke: #000000; stroke-width: 0.8"/>
      </g>
     </g>
     <g id="text_3">
      <!-- 2000 -->
      <g transform="translate(211.179913 282.996635) scale(0.1 -0.1)">
       <defs>
        <path id="DejaVuSans-15" d="M 1228 531 
L 3431 531 
L 3431 0 
L 469 0 
L 469 531 
Q 828 903 1448 1529 
Q 2069 2156 2228 2338 
Q 2531 2678 2651 2914 
Q 2772 3150 2772 3378 
Q 2772 3750 2511 3984 
Q 2250 4219 1831 4219 
Q 1534 4219 1204 4116 
Q 875 4013 500 3803 
L 500 4441 
Q 881 4594 1212 4672 
Q 1544 4750 1819 4750 
Q 2544 4750 2975 4387 
Q 3406 4025 3406 3419 
Q 3406 3131 3298 2873 
Q 3191 2616 2906 2266 
Q 2828 2175 2409 1742 
Q 1991 1309 1228 531 
z
" transform="scale(0.015625)"/>
       </defs>
       <use xlink:href="#DejaVuSans-15"/>
       <use xlink:href="#DejaVuSans-13" transform="translate(63.625 0)"/>
       <use xlink:href="#DejaVuSans-13" transform="translate(127.25 0)"/>
       <use xlink:href="#DejaVuSans-13" transform="translate(190.875 0)"/>
      </g>
     </g>
    </g>
    <g id="xtick_4">
     <g id="line2d_7">
      <path d="M 300.312731 268.398979 
L 300.312731 18.118365 
" clip-path="url(#pb949c0b727)" style="fill: none; stroke: #b0b0b0; stroke-opacity: 0.2; stroke-width: 0.8; stroke-linecap: square"/>
     </g>
     <g id="line2d_8">
      <g>
       <use xlink:href="#m8d059cf148" x="300.312731" y="268.398979" style="stroke: #000000; stroke-width: 0.8"/>
      </g>
     </g>
     <g id="text_4">
      <!-- 3000 -->
      <g transform="translate(287.587731 282.996635) scale(0.1 -0.1)">
       <defs>
        <path id="DejaVuSans-16" d="M 2597 2516 
Q 3050 2419 3304 2112 
Q 3559 1806 3559 1356 
Q 3559 666 3084 287 
Q 2609 -91 1734 -91 
Q 1441 -91 1130 -33 
Q 819 25 488 141 
L 488 750 
Q 750 597 1062 519 
Q 1375 441 1716 441 
Q 2309 441 2620 675 
Q 2931 909 2931 1356 
Q 2931 1769 2642 2001 
Q 2353 2234 1838 2234 
L 1294 2234 
L 1294 2753 
L 1863 2753 
Q 2328 2753 2575 2939 
Q 2822 3125 2822 3475 
Q 2822 3834 2567 4026 
Q 2313 4219 1838 4219 
Q 1578 4219 1281 4162 
Q 984 4106 628 3988 
L 628 4550 
Q 988 4650 1302 4700 
Q 1616 4750 1894 4750 
Q 2613 4750 3031 4423 
Q 3450 4097 3450 3541 
Q 3450 3153 3228 2886 
Q 3006 2619 2597 2516 
z
" transform="scale(0.015625)"/>
       </defs>
       <use xlink:href="#DejaVuSans-16"/>
       <use xlink:href="#DejaVuSans-13" transform="translate(63.625 0)"/>
       <use xlink:href="#DejaVuSans-13" transform="translate(127.25 0)"/>
       <use xlink:href="#DejaVuSans-13" transform="translate(190.875 0)"/>
      </g>
     </g>
    </g>
    <g id="xtick_5">
     <g id="line2d_9">
      <path d="M 376.72055 268.398979 
L 376.72055 18.118365 
" clip-path="url(#pb949c0b727)" style="fill: none; stroke: #b0b0b0; stroke-opacity: 0.2; stroke-width: 0.8; stroke-linecap: square"/>
     </g>
     <g id="line2d_10">
      <g>
       <use xlink:href="#m8d059cf148" x="376.72055" y="268.398979" style="stroke: #000000; stroke-width: 0.8"/>
      </g>
     </g>
     <g id="text_5">
      <!-- 4000 -->
      <g transform="translate(363.99555 282.996635) scale(0.1 -0.1)">
       <defs>
        <path id="DejaVuSans-17" d="M 2419 4116 
L 825 1625 
L 2419 1625 
L 2419 4116 
z
M 2253 4666 
L 3047 4666 
L 3047 1625 
L 3713 1625 
L 3713 1100 
L 3047 1100 
L 3047 0 
L 2419 0 
L 2419 1100 
L 313 1100 
L 313 1709 
L 2253 4666 
z
" transform="scale(0.015625)"/>
       </defs>
       <use xlink:href="#DejaVuSans-17"/>
       <use xlink:href="#DejaVuSans-13" transform="translate(63.625 0)"/>
       <use xlink:href="#DejaVuSans-13" transform="translate(127.25 0)"/>
       <use xlink:href="#DejaVuSans-13" transform="translate(190.875 0)"/>
      </g>
     </g>
    </g>
    <g id="xtick_6">
     <g id="line2d_11">
      <path d="M 453.128368 268.398979 
L 453.128368 18.118365 
" clip-path="url(#pb949c0b727)" style="fill: none; stroke: #b0b0b0; stroke-opacity: 0.2; stroke-width: 0.8; stroke-linecap: square"/>
     </g>
     <g id="line2d_12">
      <g>
       <use xlink:href="#m8d059cf148" x="453.128368" y="268.398979" style="stroke: #000000; stroke-width: 0.8"/>
      </g>
     </g>
     <g id="text_6">
      <!-- 5000 -->
      <g transform="translate(440.403368 282.996635) scale(0.1 -0.1)">
       <defs>
        <path id="DejaVuSans-18" d="M 691 4666 
L 3169 4666 
L 3169 4134 
L 1269 4134 
L 1269 2991 
Q 1406 3038 1543 3061 
Q 1681 3084 1819 3084 
Q 2600 3084 3056 2656 
Q 3513 2228 3513 1497 
Q 3513 744 3044 326 
Q 2575 -91 1722 -91 
Q 1428 -91 1123 -41 
Q 819 9 494 109 
L 494 744 
Q 775 591 1075 516 
Q 1375 441 1709 441 
Q 2250 441 2565 725 
Q 2881 1009 2881 1497 
Q 2881 1984 2565 2268 
Q 2250 2553 1709 2553 
Q 1456 2553 1204 2497 
Q 953 2441 691 2322 
L 691 4666 
z
" transform="scale(0.015625)"/>
       </defs>
       <use xlink:href="#DejaVuSans-18"/>
       <use xlink:href="#DejaVuSans-13" transform="translate(63.625 0)"/>
       <use xlink:href="#DejaVuSans-13" transform="translate(127.25 0)"/>
       <use xlink:href="#DejaVuSans-13" transform="translate(190.875 0)"/>
      </g>
     </g>
    </g>
    <g id="text_7">
     <!-- Training groups -->
     <g transform="translate(223.970703 296.997416) scale(0.1 -0.1)">
      <defs>
       <path id="DejaVuSans-37" d="M -19 4666 
L 3928 4666 
L 3928 4134 
L 2272 4134 
L 2272 0 
L 1638 0 
L 1638 4134 
L -19 4134 
L -19 4666 
z
" transform="scale(0.015625)"/>
       <path id="DejaVuSans-55" d="M 2631 2963 
Q 2534 3019 2420 3045 
Q 2306 3072 2169 3072 
Q 1681 3072 1420 2755 
Q 1159 2438 1159 1844 
L 1159 0 
L 581 0 
L 581 3500 
L 1159 3500 
L 1159 2956 
Q 1341 3275 1631 3429 
Q 1922 3584 2338 3584 
Q 2397 3584 2469 3576 
Q 2541 3569 2628 3553 
L 2631 2963 
z
" transform="scale(0.015625)"/>
       <path id="DejaVuSans-44" d="M 2194 1759 
Q 1497 1759 1228 1600 
Q 959 1441 959 1056 
Q 959 750 1161 570 
Q 1363 391 1709 391 
Q 2188 391 2477 730 
Q 2766 1069 2766 1631 
L 2766 1759 
L 2194 1759 
z
M 3341 1997 
L 3341 0 
L 2766 0 
L 2766 531 
Q 2569 213 2275 61 
Q 1981 -91 1556 -91 
Q 1019 -91 701 211 
Q 384 513 384 1019 
Q 384 1609 779 1909 
Q 1175 2209 1959 2209 
L 2766 2209 
L 2766 2266 
Q 2766 2663 2505 2880 
Q 2244 3097 1772 3097 
Q 1472 3097 1187 3025 
Q 903 2953 641 2809 
L 641 3341 
Q 956 3463 1253 3523 
Q 1550 3584 1831 3584 
Q 2591 3584 2966 3190 
Q 3341 2797 3341 1997 
z
" transform="scale(0.015625)"/>
       <path id="DejaVuSans-4c" d="M 603 3500 
L 1178 3500 
L 1178 0 
L 603 0 
L 603 3500 
z
M 603 4863 
L 1178 4863 
L 1178 4134 
L 603 4134 
L 603 4863 
z
" transform="scale(0.015625)"/>
       <path id="DejaVuSans-51" d="M 3513 2113 
L 3513 0 
L 2938 0 
L 2938 2094 
Q 2938 2591 2744 2837 
Q 2550 3084 2163 3084 
Q 1697 3084 1428 2787 
Q 1159 2491 1159 1978 
L 1159 0 
L 581 0 
L 581 3500 
L 1159 3500 
L 1159 2956 
Q 1366 3272 1645 3428 
Q 1925 3584 2291 3584 
Q 2894 3584 3203 3211 
Q 3513 2838 3513 2113 
z
" transform="scale(0.015625)"/>
       <path id="DejaVuSans-4a" d="M 2906 1791 
Q 2906 2416 2648 2759 
Q 2391 3103 1925 3103 
Q 1463 3103 1205 2759 
Q 947 2416 947 1791 
Q 947 1169 1205 825 
Q 1463 481 1925 481 
Q 2391 481 2648 825 
Q 2906 1169 2906 1791 
z
M 3481 434 
Q 3481 -459 3084 -895 
Q 2688 -1331 1869 -1331 
Q 1566 -1331 1297 -1286 
Q 1028 -1241 775 -1147 
L 775 -588 
Q 1028 -725 1275 -790 
Q 1522 -856 1778 -856 
Q 2344 -856 2625 -561 
Q 2906 -266 2906 331 
L 2906 616 
Q 2728 306 2450 153 
Q 2172 0 1784 0 
Q 1141 0 747 490 
Q 353 981 353 1791 
Q 353 2603 747 3093 
Q 1141 3584 1784 3584 
Q 2172 3584 2450 3431 
Q 2728 3278 2906 2969 
L 2906 3500 
L 3481 3500 
L 3481 434 
z
" transform="scale(0.015625)"/>
       <path id="DejaVuSans-3" transform="scale(0.015625)"/>
       <path id="DejaVuSans-52" d="M 1959 3097 
Q 1497 3097 1228 2736 
Q 959 2375 959 1747 
Q 959 1119 1226 758 
Q 1494 397 1959 397 
Q 2419 397 2687 759 
Q 2956 1122 2956 1747 
Q 2956 2369 2687 2733 
Q 2419 3097 1959 3097 
z
M 1959 3584 
Q 2709 3584 3137 3096 
Q 3566 2609 3566 1747 
Q 3566 888 3137 398 
Q 2709 -91 1959 -91 
Q 1206 -91 779 398 
Q 353 888 353 1747 
Q 353 2609 779 3096 
Q 1206 3584 1959 3584 
z
" transform="scale(0.015625)"/>
       <path id="DejaVuSans-58" d="M 544 1381 
L 544 3500 
L 1119 3500 
L 1119 1403 
Q 1119 906 1312 657 
Q 1506 409 1894 409 
Q 2359 409 2629 706 
Q 2900 1003 2900 1516 
L 2900 3500 
L 3475 3500 
L 3475 0 
L 2900 0 
L 2900 538 
Q 2691 219 2414 64 
Q 2138 -91 1772 -91 
Q 1169 -91 856 284 
Q 544 659 544 1381 
z
M 1991 3584 
L 1991 3584 
z
" transform="scale(0.015625)"/>
       <path id="DejaVuSans-53" d="M 1159 525 
L 1159 -1331 
L 581 -1331 
L 581 3500 
L 1159 3500 
L 1159 2969 
Q 1341 3281 1617 3432 
Q 1894 3584 2278 3584 
Q 2916 3584 3314 3078 
Q 3713 2572 3713 1747 
Q 3713 922 3314 415 
Q 2916 -91 2278 -91 
Q 1894 -91 1617 61 
Q 1341 213 1159 525 
z
M 3116 1747 
Q 3116 2381 2855 2742 
Q 2594 3103 2138 3103 
Q 1681 3103 1420 2742 
Q 1159 2381 1159 1747 
Q 1159 1113 1420 752 
Q 1681 391 2138 391 
Q 2594 391 2855 752 
Q 3116 1113 3116 1747 
z
" transform="scale(0.015625)"/>
       <path id="DejaVuSans-56" d="M 2834 3397 
L 2834 2853 
Q 2591 2978 2328 3040 
Q 2066 3103 1784 3103 
Q 1356 3103 1142 2972 
Q 928 2841 928 2578 
Q 928 2378 1081 2264 
Q 1234 2150 1697 2047 
L 1894 2003 
Q 2506 1872 2764 1633 
Q 3022 1394 3022 966 
Q 3022 478 2636 193 
Q 2250 -91 1575 -91 
Q 1294 -91 989 -36 
Q 684 19 347 128 
L 347 722 
Q 666 556 975 473 
Q 1284 391 1588 391 
Q 1994 391 2212 530 
Q 2431 669 2431 922 
Q 2431 1156 2273 1281 
Q 2116 1406 1581 1522 
L 1381 1569 
Q 847 1681 609 1914 
Q 372 2147 372 2553 
Q 372 3047 722 3315 
Q 1072 3584 1716 3584 
Q 2034 3584 2315 3537 
Q 2597 3491 2834 3397 
z
" transform="scale(0.015625)"/>
      </defs>
      <use xlink:href="#DejaVuSans-37"/>
      <use xlink:href="#DejaVuSans-55" transform="translate(46.375 0)"/>
      <use xlink:href="#DejaVuSans-44" transform="translate(87.484375 0)"/>
      <use xlink:href="#DejaVuSans-4c" transform="translate(148.765625 0)"/>
      <use xlink:href="#DejaVuSans-51" transform="translate(176.546875 0)"/>
      <use xlink:href="#DejaVuSans-4c" transform="translate(239.921875 0)"/>
      <use xlink:href="#DejaVuSans-51" transform="translate(267.703125 0)"/>
      <use xlink:href="#DejaVuSans-4a" transform="translate(331.078125 0)"/>
      <use xlink:href="#DejaVuSans-3" transform="translate(394.5625 0)"/>
      <use xlink:href="#DejaVuSans-4a" transform="translate(426.34375 0)"/>
      <use xlink:href="#DejaVuSans-55" transform="translate(489.828125 0)"/>
      <use xlink:href="#DejaVuSans-52" transform="translate(528.734375 0)"/>
      <use xlink:href="#DejaVuSans-58" transform="translate(589.921875 0)"/>
      <use xlink:href="#DejaVuSans-53" transform="translate(653.296875 0)"/>
      <use xlink:href="#DejaVuSans-56" transform="translate(716.78125 0)"/>
     </g>
    </g>
   </g>
   <g id="matplotlib.axis_2">
    <g id="ytick_1">
     <g id="line2d_13">
      <path d="M 52.629146 267.563605 
L 472.19976 267.563605 
" clip-path="url(#pb949c0b727)" style="fill: none; stroke: #b0b0b0; stroke-opacity: 0.2; stroke-width: 0.8; stroke-linecap: square"/>
     </g>
     <g id="line2d_14">
      <defs>
       <path id="m41e54d314f" d="M 0 0 
L -3.5 0 
" style="stroke: #000000; stroke-width: 0.8"/>
      </defs>
      <g>
       <use xlink:href="#m41e54d314f" x="52.629146" y="267.563605" style="stroke: #000000; stroke-width: 0.8"/>
      </g>
     </g>
     <g id="text_8">
      <!-- 1.000 -->
      <g transform="translate(17.001021 271.362434) scale(0.1 -0.1)">
       <defs>
        <path id="DejaVuSans-11" d="M 684 794 
L 1344 794 
L 1344 0 
L 684 0 
L 684 794 
z
" transform="scale(0.015625)"/>
       </defs>
       <use xlink:href="#DejaVuSans-14"/>
       <use xlink:href="#DejaVuSans-11" transform="translate(63.625 0)"/>
       <use xlink:href="#DejaVuSans-13" transform="translate(95.40625 0)"/>
       <use xlink:href="#DejaVuSans-13" transform="translate(159.03125 0)"/>
       <use xlink:href="#DejaVuSans-13" transform="translate(222.65625 0)"/>
      </g>
     </g>
    </g>
    <g id="ytick_2">
     <g id="line2d_15">
      <path d="M 52.629146 227.840124 
L 472.19976 227.840124 
" clip-path="url(#pb949c0b727)" style="fill: none; stroke: #b0b0b0; stroke-opacity: 0.2; stroke-width: 0.8; stroke-linecap: square"/>
     </g>
     <g id="line2d_16">
      <g>
       <use xlink:href="#m41e54d314f" x="52.629146" y="227.840124" style="stroke: #000000; stroke-width: 0.8"/>
      </g>
     </g>
     <g id="text_9">
      <!-- 1.005 -->
      <g transform="translate(17.001021 231.638952) scale(0.1 -0.1)">
       <use xlink:href="#DejaVuSans-14"/>
       <use xlink:href="#DejaVuSans-11" transform="translate(63.625 0)"/>
       <use xlink:href="#DejaVuSans-13" transform="translate(95.40625 0)"/>
       <use xlink:href="#DejaVuSans-13" transform="translate(159.03125 0)"/>
       <use xlink:href="#DejaVuSans-18" transform="translate(222.65625 0)"/>
      </g>
     </g>
    </g>
    <g id="ytick_3">
     <g id="line2d_17">
      <path d="M 52.629146 188.116643 
L 472.19976 188.116643 
" clip-path="url(#pb949c0b727)" style="fill: none; stroke: #b0b0b0; stroke-opacity: 0.2; stroke-width: 0.8; stroke-linecap: square"/>
     </g>
     <g id="line2d_18">
      <g>
       <use xlink:href="#m41e54d314f" x="52.629146" y="188.116643" style="stroke: #000000; stroke-width: 0.8"/>
      </g>
     </g>
     <g id="text_10">
      <!-- 1.010 -->
      <g transform="translate(17.001021 191.915471) scale(0.1 -0.1)">
       <use xlink:href="#DejaVuSans-14"/>
       <use xlink:href="#DejaVuSans-11" transform="translate(63.625 0)"/>
       <use xlink:href="#DejaVuSans-13" transform="translate(95.40625 0)"/>
       <use xlink:href="#DejaVuSans-14" transform="translate(159.03125 0)"/>
       <use xlink:href="#DejaVuSans-13" transform="translate(222.65625 0)"/>
      </g>
     </g>
    </g>
    <g id="ytick_4">
     <g id="line2d_19">
      <path d="M 52.629146 148.393161 
L 472.19976 148.393161 
" clip-path="url(#pb949c0b727)" style="fill: none; stroke: #b0b0b0; stroke-opacity: 0.2; stroke-width: 0.8; stroke-linecap: square"/>
     </g>
     <g id="line2d_20">
      <g>
       <use xlink:href="#m41e54d314f" x="52.629146" y="148.393161" style="stroke: #000000; stroke-width: 0.8"/>
      </g>
     </g>
     <g id="text_11">
      <!-- 1.015 -->
      <g transform="translate(17.001021 152.191989) scale(0.1 -0.1)">
       <use xlink:href="#DejaVuSans-14"/>
       <use xlink:href="#DejaVuSans-11" transform="translate(63.625 0)"/>
       <use xlink:href="#DejaVuSans-13" transform="translate(95.40625 0)"/>
       <use xlink:href="#DejaVuSans-14" transform="translate(159.03125 0)"/>
       <use xlink:href="#DejaVuSans-18" transform="translate(222.65625 0)"/>
      </g>
     </g>
    </g>
    <g id="ytick_5">
     <g id="line2d_21">
      <path d="M 52.629146 108.66968 
L 472.19976 108.66968 
" clip-path="url(#pb949c0b727)" style="fill: none; stroke: #b0b0b0; stroke-opacity: 0.2; stroke-width: 0.8; stroke-linecap: square"/>
     </g>
     <g id="line2d_22">
      <g>
       <use xlink:href="#m41e54d314f" x="52.629146" y="108.66968" style="stroke: #000000; stroke-width: 0.8"/>
      </g>
     </g>
     <g id="text_12">
      <!-- 1.020 -->
      <g transform="translate(17.001021 112.468508) scale(0.1 -0.1)">
       <use xlink:href="#DejaVuSans-14"/>
       <use xlink:href="#DejaVuSans-11" transform="translate(63.625 0)"/>
       <use xlink:href="#DejaVuSans-13" transform="translate(95.40625 0)"/>
       <use xlink:href="#DejaVuSans-15" transform="translate(159.03125 0)"/>
       <use xlink:href="#DejaVuSans-13" transform="translate(222.65625 0)"/>
      </g>
     </g>
    </g>
    <g id="ytick_6">
     <g id="line2d_23">
      <path d="M 52.629146 68.946198 
L 472.19976 68.946198 
" clip-path="url(#pb949c0b727)" style="fill: none; stroke: #b0b0b0; stroke-opacity: 0.2; stroke-width: 0.8; stroke-linecap: square"/>
     </g>
     <g id="line2d_24">
      <g>
       <use xlink:href="#m41e54d314f" x="52.629146" y="68.946198" style="stroke: #000000; stroke-width: 0.8"/>
      </g>
     </g>
     <g id="text_13">
      <!-- 1.025 -->
      <g transform="translate(17.001021 72.745026) scale(0.1 -0.1)">
       <use xlink:href="#DejaVuSans-14"/>
       <use xlink:href="#DejaVuSans-11" transform="translate(63.625 0)"/>
       <use xlink:href="#DejaVuSans-13" transform="translate(95.40625 0)"/>
       <use xlink:href="#DejaVuSans-15" transform="translate(159.03125 0)"/>
       <use xlink:href="#DejaVuSans-18" transform="translate(222.65625 0)"/>
      </g>
     </g>
    </g>
    <g id="ytick_7">
     <g id="line2d_25">
      <path d="M 52.629146 29.222717 
L 472.19976 29.222717 
" clip-path="url(#pb949c0b727)" style="fill: none; stroke: #b0b0b0; stroke-opacity: 0.2; stroke-width: 0.8; stroke-linecap: square"/>
     </g>
     <g id="line2d_26">
      <g>
       <use xlink:href="#m41e54d314f" x="52.629146" y="29.222717" style="stroke: #000000; stroke-width: 0.8"/>
      </g>
     </g>
     <g id="text_14">
      <!-- 1.030 -->
      <g transform="translate(17.001021 33.021545) scale(0.1 -0.1)">
       <use xlink:href="#DejaVuSans-14"/>
       <use xlink:href="#DejaVuSans-11" transform="translate(63.625 0)"/>
       <use xlink:href="#DejaVuSans-13" transform="translate(95.40625 0)"/>
       <use xlink:href="#DejaVuSans-16" transform="translate(159.03125 0)"/>
       <use xlink:href="#DejaVuSans-13" transform="translate(222.65625 0)"/>
      </g>
     </g>
    </g>
    <g id="text_15">
     <!-- Maximum sequence importance ratio -->
     <g transform="translate(10.598678 236.852422) rotate(-90) scale(0.1 -0.1)">
      <defs>
       <path id="DejaVuSans-30" d="M 628 4666 
L 1569 4666 
L 2759 1491 
L 3956 4666 
L 4897 4666 
L 4897 0 
L 4281 0 
L 4281 4097 
L 3078 897 
L 2444 897 
L 1241 4097 
L 1241 0 
L 628 0 
L 628 4666 
z
" transform="scale(0.015625)"/>
       <path id="DejaVuSans-5b" d="M 3513 3500 
L 2247 1797 
L 3578 0 
L 2900 0 
L 1881 1375 
L 863 0 
L 184 0 
L 1544 1831 
L 300 3500 
L 978 3500 
L 1906 2253 
L 2834 3500 
L 3513 3500 
z
" transform="scale(0.015625)"/>
       <path id="DejaVuSans-50" d="M 3328 2828 
Q 3544 3216 3844 3400 
Q 4144 3584 4550 3584 
Q 5097 3584 5394 3201 
Q 5691 2819 5691 2113 
L 5691 0 
L 5113 0 
L 5113 2094 
Q 5113 2597 4934 2840 
Q 4756 3084 4391 3084 
Q 3944 3084 3684 2787 
Q 3425 2491 3425 1978 
L 3425 0 
L 2847 0 
L 2847 2094 
Q 2847 2600 2669 2842 
Q 2491 3084 2119 3084 
Q 1678 3084 1418 2786 
Q 1159 2488 1159 1978 
L 1159 0 
L 581 0 
L 581 3500 
L 1159 3500 
L 1159 2956 
Q 1356 3278 1631 3431 
Q 1906 3584 2284 3584 
Q 2666 3584 2933 3390 
Q 3200 3197 3328 2828 
z
" transform="scale(0.015625)"/>
       <path id="DejaVuSans-48" d="M 3597 1894 
L 3597 1613 
L 953 1613 
Q 991 1019 1311 708 
Q 1631 397 2203 397 
Q 2534 397 2845 478 
Q 3156 559 3463 722 
L 3463 178 
Q 3153 47 2828 -22 
Q 2503 -91 2169 -91 
Q 1331 -91 842 396 
Q 353 884 353 1716 
Q 353 2575 817 3079 
Q 1281 3584 2069 3584 
Q 2775 3584 3186 3129 
Q 3597 2675 3597 1894 
z
M 3022 2063 
Q 3016 2534 2758 2815 
Q 2500 3097 2075 3097 
Q 1594 3097 1305 2825 
Q 1016 2553 972 2059 
L 3022 2063 
z
" transform="scale(0.015625)"/>
       <path id="DejaVuSans-54" d="M 947 1747 
Q 947 1113 1208 752 
Q 1469 391 1925 391 
Q 2381 391 2643 752 
Q 2906 1113 2906 1747 
Q 2906 2381 2643 2742 
Q 2381 3103 1925 3103 
Q 1469 3103 1208 2742 
Q 947 2381 947 1747 
z
M 2906 525 
Q 2725 213 2448 61 
Q 2172 -91 1784 -91 
Q 1150 -91 751 415 
Q 353 922 353 1747 
Q 353 2572 751 3078 
Q 1150 3584 1784 3584 
Q 2172 3584 2448 3432 
Q 2725 3281 2906 2969 
L 2906 3500 
L 3481 3500 
L 3481 -1331 
L 2906 -1331 
L 2906 525 
z
" transform="scale(0.015625)"/>
       <path id="DejaVuSans-46" d="M 3122 3366 
L 3122 2828 
Q 2878 2963 2633 3030 
Q 2388 3097 2138 3097 
Q 1578 3097 1268 2742 
Q 959 2388 959 1747 
Q 959 1106 1268 751 
Q 1578 397 2138 397 
Q 2388 397 2633 464 
Q 2878 531 3122 666 
L 3122 134 
Q 2881 22 2623 -34 
Q 2366 -91 2075 -91 
Q 1284 -91 818 406 
Q 353 903 353 1747 
Q 353 2603 823 3093 
Q 1294 3584 2113 3584 
Q 2378 3584 2631 3529 
Q 2884 3475 3122 3366 
z
" transform="scale(0.015625)"/>
       <path id="DejaVuSans-57" d="M 1172 4494 
L 1172 3500 
L 2356 3500 
L 2356 3053 
L 1172 3053 
L 1172 1153 
Q 1172 725 1289 603 
Q 1406 481 1766 481 
L 2356 481 
L 2356 0 
L 1766 0 
Q 1100 0 847 248 
Q 594 497 594 1153 
L 594 3053 
L 172 3053 
L 172 3500 
L 594 3500 
L 594 4494 
L 1172 4494 
z
" transform="scale(0.015625)"/>
      </defs>
      <use xlink:href="#DejaVuSans-30"/>
      <use xlink:href="#DejaVuSans-44" transform="translate(86.28125 0)"/>
      <use xlink:href="#DejaVuSans-5b" transform="translate(147.5625 0)"/>
      <use xlink:href="#DejaVuSans-4c" transform="translate(206.75 0)"/>
      <use xlink:href="#DejaVuSans-50" transform="translate(234.53125 0)"/>
      <use xlink:href="#DejaVuSans-58" transform="translate(331.9375 0)"/>
      <use xlink:href="#DejaVuSans-50" transform="translate(395.3125 0)"/>
      <use xlink:href="#DejaVuSans-3" transform="translate(492.71875 0)"/>
      <use xlink:href="#DejaVuSans-56" transform="translate(524.5 0)"/>
      <use xlink:href="#DejaVuSans-48" transform="translate(576.59375 0)"/>
      <use xlink:href="#DejaVuSans-54" transform="translate(638.125 0)"/>
      <use xlink:href="#DejaVuSans-58" transform="translate(701.609375 0)"/>
      <use xlink:href="#DejaVuSans-48" transform="translate(764.984375 0)"/>
      <use xlink:href="#DejaVuSans-51" transform="translate(826.515625 0)"/>
      <use xlink:href="#DejaVuSans-46" transform="translate(889.890625 0)"/>
      <use xlink:href="#DejaVuSans-48" transform="translate(944.875 0)"/>
      <use xlink:href="#DejaVuSans-3" transform="translate(1006.40625 0)"/>
      <use xlink:href="#DejaVuSans-4c" transform="translate(1038.1875 0)"/>
      <use xlink:href="#DejaVuSans-50" transform="translate(1065.96875 0)"/>
      <use xlink:href="#DejaVuSans-53" transform="translate(1163.375 0)"/>
      <use xlink:href="#DejaVuSans-52" transform="translate(1226.859375 0)"/>
      <use xlink:href="#DejaVuSans-55" transform="translate(1288.046875 0)"/>
      <use xlink:href="#DejaVuSans-57" transform="translate(1329.15625 0)"/>
      <use xlink:href="#DejaVuSans-44" transform="translate(1368.359375 0)"/>
      <use xlink:href="#DejaVuSans-51" transform="translate(1429.640625 0)"/>
      <use xlink:href="#DejaVuSans-46" transform="translate(1493.015625 0)"/>
      <use xlink:href="#DejaVuSans-48" transform="translate(1548 0)"/>
      <use xlink:href="#DejaVuSans-3" transform="translate(1609.53125 0)"/>
      <use xlink:href="#DejaVuSans-55" transform="translate(1641.3125 0)"/>
      <use xlink:href="#DejaVuSans-44" transform="translate(1682.421875 0)"/>
      <use xlink:href="#DejaVuSans-57" transform="translate(1743.703125 0)"/>
      <use xlink:href="#DejaVuSans-4c" transform="translate(1782.90625 0)"/>
      <use xlink:href="#DejaVuSans-52" transform="translate(1810.6875 0)"/>
     </g>
    </g>
   </g>
   <g id="line2d_27">
    <path d="M 71.700538 209.348394 
L 72.3118 143.576418 
L 72.923063 106.624135 
L 73.534325 240.116234 
L 74.145588 231.373723 
L 74.756851 200.641872 
L 75.368113 220.863959 
L 75.979376 231.140741 
L 76.590638 238.646363 
L 77.201901 229.086521 
L 77.813163 216.242201 
L 78.424426 231.550828 
L 79.035688 250.131621 
L 79.646951 213.022123 
L 80.258213 232.222308 
L 80.869476 245.270252 
L 81.480739 219.983173 
L 82.092001 244.713368 
L 82.703264 229.632987 
L 83.314526 184.744161 
L 83.925789 250.293572 
L 84.537051 29.494757 
L 85.148314 242.946113 
L 85.759576 210.692302 
L 86.370839 232.112447 
L 87.593364 209.771739 
L 88.204627 227.528572 
L 88.815889 221.481456 
L 89.427152 203.226458 
L 90.649677 247.229763 
L 91.260939 195.450918 
L 91.872202 224.767829 
L 93.094727 207.691001 
L 93.70599 233.038693 
L 94.317252 203.133644 
L 94.928515 232.822758 
L 95.539777 163.77388 
L 96.15104 222.644472 
L 96.762302 240.791503 
L 97.373565 222.872719 
L 97.984827 211.863842 
L 98.59609 207.925877 
L 99.207352 194.909188 
L 99.818615 227.833532 
L 100.429878 236.405568 
L 101.04114 221.075158 
L 101.652403 219.472696 
L 102.263665 193.920434 
L 102.874928 196.827028 
L 103.48619 220.513539 
L 104.097453 227.05882 
L 104.708715 238.340456 
L 105.319978 247.2828 
L 105.931241 237.138609 
L 106.542503 240.454342 
L 107.153766 225.605049 
L 107.765028 225.391009 
L 108.376291 234.163826 
L 108.987553 213.035382 
L 109.598816 227.480271 
L 110.210078 207.666377 
L 110.821341 169.60222 
L 111.432603 207.314062 
L 112.043866 215.692893 
L 112.655129 232.147489 
L 113.266391 212.262564 
L 113.877654 216.854015 
L 114.488916 235.23024 
L 115.100179 205.092209 
L 115.711441 204.943517 
L 116.322704 234.550235 
L 116.933966 218.180877 
L 117.545229 219.686736 
L 118.156492 207.705207 
L 118.767754 223.024252 
L 119.379017 206.278902 
L 119.990279 231.395506 
L 120.601542 244.963397 
L 121.212804 246.832936 
L 121.824067 241.138135 
L 122.435329 244.399884 
L 123.046592 192.09162 
L 123.657854 212.127131 
L 124.269117 212.050417 
L 124.88038 224.019635 
L 125.491642 226.630739 
L 126.102905 224.459081 
L 126.714167 216.837915 
L 127.32543 199.953344 
L 127.936692 207.032779 
L 128.547955 205.966365 
L 129.159217 217.592739 
L 129.77048 217.182653 
L 130.381743 245.681285 
L 130.993005 203.19994 
L 131.604268 190.046871 
L 132.21553 225.307666 
L 132.826793 212.368637 
L 133.438055 239.311214 
L 134.049318 233.259363 
L 134.66058 224.074565 
L 135.271843 226.661045 
L 135.883105 218.404388 
L 137.105631 234.411961 
L 137.716893 232.931673 
L 138.328156 202.241493 
L 138.939418 207.094339 
L 139.550681 208.370058 
L 140.161943 230.302574 
L 140.773206 217.37491 
L 141.384468 194.418599 
L 141.995731 241.601258 
L 142.606993 238.126415 
L 143.218256 252.704842 
L 143.829519 226.580543 
L 144.440781 221.265521 
L 145.052044 231.497791 
L 145.663306 222.553552 
L 146.274569 227.596762 
L 146.885831 229.718225 
L 147.497094 236.731364 
L 148.108356 230.17093 
L 148.719619 230.085692 
L 149.330882 229.060003 
L 149.942144 201.646726 
L 150.553407 221.644354 
L 151.164669 213.820513 
L 151.775932 238.49483 
L 152.387194 218.06628 
L 152.998457 241.574739 
L 153.609719 227.44807 
L 154.220982 233.516022 
L 154.832244 221.839453 
L 155.443507 207.914512 
L 156.05477 229.668029 
L 156.666032 216.679752 
L 157.277295 215.16821 
L 157.888557 239.398346 
L 158.49982 229.855552 
L 159.111082 243.845841 
L 159.722345 235.583501 
L 160.333607 183.233566 
L 160.94487 220.599723 
L 161.556133 236.553313 
L 162.167395 213.892491 
L 162.778658 215.569773 
L 163.38992 240.250719 
L 164.001183 214.060125 
L 164.612445 233.800146 
L 165.223708 179.521953 
L 165.83497 235.2918 
L 166.446233 223.350048 
L 167.057495 219.645065 
L 167.668758 225.026382 
L 168.280021 219.680107 
L 168.891283 221.234268 
L 170.113808 236.713369 
L 170.725071 211.823118 
L 171.336333 220.877218 
L 171.947596 235.754923 
L 172.558858 231.173889 
L 173.170121 242.64873 
L 173.781383 214.760018 
L 174.392646 226.349455 
L 175.003909 209.08037 
L 175.615171 207.192836 
L 176.226434 230.755279 
L 176.837696 204.081673 
L 177.448959 222.146307 
L 178.060221 216.686382 
L 178.671484 239.069708 
L 179.282746 213.997617 
L 180.505272 234.134466 
L 181.116534 216.402257 
L 181.727797 232.276292 
L 182.339059 221.893437 
L 182.950322 224.178744 
L 183.561584 238.975 
L 184.172847 224.067936 
L 184.784109 212.634767 
L 185.395372 239.063079 
L 186.006634 225.550119 
L 186.617897 220.031474 
L 187.22916 240.48749 
L 187.840422 222.484415 
L 188.451685 240.981866 
L 189.062947 245.059052 
L 189.67421 223.565983 
L 190.285472 235.773864 
L 190.896735 213.229534 
L 191.507997 229.505131 
L 192.11926 218.269902 
L 192.730523 236.734205 
L 193.341785 230.196501 
L 193.953048 210.973586 
L 194.56431 241.869282 
L 195.175573 242.280315 
L 195.786835 232.135177 
L 196.398098 242.308727 
L 197.00936 232.63713 
L 197.620623 219.496373 
L 198.231885 218.996314 
L 198.843148 209.861712 
L 199.454411 220.598776 
L 200.065673 246.128308 
L 200.676936 221.024016 
L 201.288198 230.023185 
L 201.899461 230.394441 
L 202.510723 205.743801 
L 203.121986 247.281853 
L 203.733248 212.279611 
L 204.344511 242.17803 
L 204.955774 235.843001 
L 205.567036 192.823714 
L 206.178299 231.072551 
L 206.789561 240.283867 
L 207.400824 234.328618 
L 208.012086 186.346623 
L 208.623349 235.044612 
L 209.234611 208.725214 
L 209.845874 220.916995 
L 210.457136 229.410423 
L 211.068399 225.487611 
L 211.679662 208.874853 
L 212.290924 220.857329 
L 212.902187 217.529284 
L 213.513449 215.90504 
L 214.124712 212.956775 
L 214.735974 218.368399 
L 215.347237 233.018804 
L 215.958499 217.911905 
L 216.569762 206.383081 
L 217.181024 233.745216 
L 217.792287 233.333235 
L 218.40355 243.713249 
L 219.014812 221.561958 
L 219.626075 222.156725 
L 220.237337 208.301868 
L 220.8486 236.741782 
L 221.459862 235.672527 
L 222.071125 222.787482 
L 222.682387 221.230479 
L 223.29365 235.575924 
L 223.904913 235.35336 
L 224.516175 229.289197 
L 225.127438 243.85247 
L 225.7387 216.911787 
L 226.349963 239.952388 
L 226.961225 231.977014 
L 227.572488 213.63962 
L 228.18375 221.193543 
L 228.795013 223.3008 
L 229.406275 209.395748 
L 230.017538 209.971573 
L 230.628801 241.179806 
L 231.240063 237.590367 
L 231.851326 235.911191 
L 232.462588 243.028509 
L 233.073851 212.407467 
L 233.685113 234.935697 
L 234.296376 228.479442 
L 234.907638 203.309801 
L 235.518901 211.391249 
L 236.130164 222.033605 
L 236.741426 248.758353 
L 237.963951 206.780855 
L 238.575214 235.244446 
L 239.186476 217.636305 
L 239.797739 219.752085 
L 240.409001 238.275107 
L 241.020264 249.419416 
L 241.631526 191.335849 
L 242.854052 218.475419 
L 243.465314 239.501578 
L 244.076577 238.007083 
L 244.687839 232.985656 
L 245.299102 217.291567 
L 245.910364 214.024135 
L 246.521627 224.012058 
L 247.132889 213.040118 
L 248.355414 232.711003 
L 248.966677 211.369466 
L 249.57794 240.4515 
L 250.189202 227.748295 
L 250.800465 201.008393 
L 251.411727 164.573217 
L 252.02299 241.607887 
L 252.634252 230.969319 
L 253.245515 241.515073 
L 253.856777 232.163589 
L 254.46804 237.600785 
L 255.690565 202.552136 
L 256.301828 232.029104 
L 256.91309 204.276772 
L 257.524353 222.07717 
L 258.746878 241.005543 
L 259.35814 223.284699 
L 259.969403 217.255578 
L 260.580665 237.920898 
L 261.191928 208.339752 
L 261.803191 215.43434 
L 263.025716 225.333237 
L 263.636978 217.560538 
L 264.248241 237.187857 
L 264.859503 231.214614 
L 265.470766 209.447837 
L 266.082028 217.258419 
L 266.693291 211.547517 
L 267.304554 226.593802 
L 267.915816 230.352769 
L 268.527079 198.811164 
L 269.138341 220.230361 
L 269.749604 232.516851 
L 270.972129 222.43422 
L 271.583391 222.007086 
L 272.194654 226.034077 
L 272.805916 232.322699 
L 273.417179 210.536981 
L 274.028442 238.045913 
L 274.639704 244.904678 
L 275.250967 240.425929 
L 275.862229 230.047809 
L 276.473492 240.852116 
L 277.084754 214.14915 
L 277.696017 214.602802 
L 278.307279 216.283872 
L 278.918542 234.231069 
L 279.529805 231.744032 
L 280.141067 182.779914 
L 280.75233 208.119082 
L 281.363592 209.663772 
L 281.974855 241.857917 
L 282.586117 234.145831 
L 283.19738 246.84146 
L 283.808642 221.489033 
L 284.419905 201.235693 
L 285.031167 231.375617 
L 285.64243 236.444398 
L 286.253693 209.809622 
L 286.864955 226.595697 
L 287.476218 236.772088 
L 288.08748 230.715502 
L 288.698743 239.279961 
L 289.310005 231.324475 
L 289.921268 212.993711 
L 290.53253 228.638552 
L 291.755055 200.546217 
L 292.366318 203.048407 
L 292.977581 214.689934 
L 293.588843 236.225622 
L 294.200106 229.612152 
L 294.811368 218.761438 
L 295.422631 243.696202 
L 296.033893 202.595702 
L 296.645156 197.883024 
L 297.256418 232.137071 
L 297.867681 199.323535 
L 298.478944 238.636892 
L 299.090206 215.651222 
L 299.701469 241.633458 
L 300.312731 246.360343 
L 300.923994 219.333475 
L 301.535256 226.380709 
L 302.146519 190.509994 
L 302.757781 230.420012 
L 303.369044 241.284932 
L 303.980306 215.95997 
L 304.591569 214.849044 
L 305.202832 220.222785 
L 305.814094 222.691826 
L 306.425357 206.48726 
L 307.036619 228.524902 
L 307.647882 230.958902 
L 308.259144 218.714084 
L 308.870407 224.082142 
L 309.481669 226.170457 
L 310.092932 218.757649 
L 310.704195 234.017975 
L 311.315457 237.567637 
L 311.92672 217.141928 
L 312.537982 235.738822 
L 313.149245 231.436231 
L 313.760507 247.58776 
L 314.983032 211.791864 
L 315.594295 220.801451 
L 316.205557 219.559827 
L 316.81682 227.228347 
L 317.428083 199.575459 
L 319.26187 239.680576 
L 319.873133 205.606474 
L 320.484395 219.53615 
L 321.095658 239.447594 
L 321.70692 210.275587 
L 322.318183 221.470091 
L 322.929445 219.401665 
L 323.540708 200.763099 
L 324.151971 227.644116 
L 324.763233 226.421434 
L 325.374496 218.622217 
L 325.985758 232.419301 
L 326.597021 224.363425 
L 327.819546 239.399293 
L 328.430808 216.371004 
L 329.042071 210.04071 
L 329.653334 233.132454 
L 330.264596 224.086877 
L 330.875859 225.618308 
L 331.487121 206.106533 
L 332.098384 195.070191 
L 332.709646 249.653345 
L 333.320909 225.17981 
L 333.932171 216.968612 
L 334.543434 216.190111 
L 335.154696 230.914389 
L 335.765959 201.986728 
L 336.377222 231.871888 
L 336.988484 232.958191 
L 337.599747 220.818499 
L 338.211009 219.25392 
L 338.822272 236.845014 
L 339.433534 243.423443 
L 340.656059 220.255932 
L 341.267322 237.621621 
L 341.878585 245.209638 
L 342.489847 209.727226 
L 343.10111 210.078594 
L 343.712372 234.261375 
L 344.323635 198.762863 
L 344.934897 238.950376 
L 345.54616 209.358812 
L 346.157422 220.09114 
L 346.768685 210.119318 
L 347.379947 234.065329 
L 347.99121 192.113403 
L 348.602473 224.700586 
L 349.213735 205.248477 
L 349.824998 241.210113 
L 350.43626 216.739418 
L 351.047523 180.072207 
L 351.658785 231.755397 
L 352.270048 232.141807 
L 352.88131 208.375741 
L 354.103836 231.421077 
L 354.715098 253.585628 
L 355.326361 222.532717 
L 355.937623 151.95146 
L 356.548886 225.856973 
L 357.160148 231.837793 
L 357.771411 232.015845 
L 358.382673 245.095989 
L 358.993936 242.277474 
L 359.605198 228.545738 
L 360.216461 237.570478 
L 360.827724 177.337036 
L 361.438986 190.932392 
L 362.050249 244.611083 
L 362.661511 217.492348 
L 363.272774 246.794106 
L 363.884036 256.525369 
L 365.106561 193.486671 
L 366.329086 219.680107 
L 366.940349 215.565984 
L 367.551612 222.792217 
L 368.162874 193.113521 
L 368.774137 213.832825 
L 369.385399 243.254862 
L 369.996662 213.57143 
L 370.607924 228.449135 
L 371.219187 191.337743 
L 371.830449 229.021173 
L 372.441712 220.569416 
L 373.052975 218.442271 
L 374.2755 240.403199 
L 374.886762 241.291562 
L 375.498025 222.975004 
L 376.109287 222.957956 
L 376.72055 229.050532 
L 377.331812 211.770081 
L 377.943075 233.861707 
L 378.554337 221.868812 
L 379.1656 230.023185 
L 379.776863 210.65726 
L 380.388125 195.053144 
L 381.61065 233.355018 
L 382.221913 234.848566 
L 382.833175 227.57782 
L 383.444438 203.457546 
L 384.0557 203.155427 
L 384.666963 210.798376 
L 385.278226 204.29666 
L 385.889488 238.725918 
L 386.500751 213.552489 
L 387.112013 220.547634 
L 387.723276 242.560651 
L 388.334538 202.543612 
L 388.945801 211.94908 
L 390.168326 245.875437 
L 390.779588 246.348031 
L 391.390851 236.073142 
L 392.002114 206.779908 
L 392.613376 231.712779 
L 393.224639 219.966125 
L 393.835901 237.595102 
L 394.447164 198.615118 
L 395.669689 243.909295 
L 396.280951 220.067463 
L 396.892214 218.677147 
L 397.503476 223.190938 
L 398.114739 208.349223 
L 398.726002 238.011818 
L 399.337264 195.792815 
L 399.948527 218.278426 
L 400.559789 212.110084 
L 401.782314 248.601138 
L 402.393577 212.089248 
L 403.004839 219.96802 
L 403.616102 204.948253 
L 404.227365 171.662123 
L 404.838627 230.771379 
L 405.44989 243.208455 
L 406.061152 241.382482 
L 406.672415 207.510108 
L 407.283677 230.553551 
L 407.89494 229.224795 
L 408.506202 241.337969 
L 409.117465 224.697745 
L 409.728727 235.410185 
L 410.33999 223.424867 
L 410.951253 230.617952 
L 411.562515 226.018924 
L 412.173778 208.800033 
L 412.78504 252.234143 
L 414.007565 160.360598 
L 414.618828 239.098121 
L 415.23009 213.190704 
L 415.841353 243.322105 
L 416.452616 234.616531 
L 417.063878 204.704853 
L 417.675141 208.800033 
L 418.286403 229.382958 
L 418.897666 204.666969 
L 419.508928 224.443927 
L 420.120191 185.518873 
L 420.731453 210.90729 
L 421.342716 231.513891 
L 421.953978 197.127253 
L 422.565241 206.013719 
L 423.176504 240.742255 
L 423.787766 237.825243 
L 424.399029 222.92102 
L 425.010291 236.792924 
L 425.621554 199.699526 
L 426.232816 198.857571 
L 426.844079 236.856379 
L 427.455341 228.940671 
L 428.066604 219.524785 
L 428.677866 245.626354 
L 429.289129 203.190469 
L 429.900392 192.664604 
L 430.511654 220.377159 
L 431.122917 232.526322 
L 431.734179 234.689456 
L 432.956704 205.225747 
L 433.567967 241.914742 
L 434.179229 239.601968 
L 434.790492 241.312398 
L 435.401755 229.70686 
L 436.013017 225.800148 
L 436.62428 196.867752 
L 437.235542 221.902907 
L 437.846805 220.361058 
L 438.458067 212.587413 
L 439.06933 236.373367 
L 440.291855 205.573326 
L 440.903117 229.269308 
L 441.51438 199.880419 
L 442.125643 233.634407 
L 443.348168 241.439307 
L 443.95943 220.251197 
L 444.570693 194.026508 
L 445.181955 243.583499 
L 445.793218 224.628608 
L 446.40448 181.583749 
L 447.015743 233.587053 
L 447.627006 235.870467 
L 448.238268 199.820753 
L 448.849531 201.622102 
L 449.460793 224.114343 
L 450.072056 227.387457 
L 450.683318 229.759896 
L 451.294581 190.126425 
L 451.905843 217.833298 
L 452.517106 213.247529 
L 453.128368 210.938544 
L 453.128368 210.938544 
" clip-path="url(#pb949c0b727)" style="fill: none; stroke: #2563eb; stroke-width: 1.5; stroke-linecap: square"/>
   </g>
   <g id="line2d_28">
    <path d="M 71.700538 90.868485 
L 72.3118 213.127249 
L 72.923063 211.301276 
L 73.534325 243.92729 
L 74.145588 242.628841 
L 74.756851 197.19639 
L 75.368113 218.386393 
L 75.979376 227.087232 
L 76.590638 205.999513 
L 77.201901 226.850462 
L 77.813163 235.313583 
L 78.424426 236.469022 
L 79.035688 208.731844 
L 79.646951 237.04106 
L 80.258213 225.13435 
L 80.869476 232.704373 
L 81.480739 192.369115 
L 82.092001 223.477904 
L 82.703264 203.746406 
L 83.314526 227.365674 
L 83.925789 229.394323 
L 84.537051 230.402018 
L 85.148314 204.421675 
L 85.759576 219.878994 
L 86.370839 202.191298 
L 86.982102 241.1817 
L 87.593364 238.270372 
L 88.204627 230.037391 
L 88.815889 196.194377 
L 89.427152 211.96518 
L 90.038414 185.677983 
L 90.649677 238.626474 
L 91.260939 234.450791 
L 91.872202 216.139916 
L 92.483464 226.089955 
L 93.094727 215.2203 
L 93.70599 207.9183 
L 94.317252 228.395152 
L 94.928515 210.937597 
L 95.539777 225.742376 
L 96.15104 207.142641 
L 96.762302 223.377513 
L 97.373565 246.87082 
L 97.984827 240.677853 
L 98.59609 218.414806 
L 99.207352 219.019991 
L 99.818615 217.298197 
L 100.429878 209.359759 
L 101.04114 225.956417 
L 101.652403 230.80358 
L 102.263665 214.936175 
L 102.874928 194.11648 
L 103.48619 223.675844 
L 104.097453 212.704851 
L 104.708715 211.076818 
L 105.319978 238.658675 
L 105.931241 180.182069 
L 106.542503 239.947653 
L 107.153766 228.913205 
L 107.765028 232.412672 
L 108.376291 225.444993 
L 108.987553 229.401899 
L 109.598816 230.957007 
L 110.210078 227.101438 
L 110.821341 214.99963 
L 111.432603 234.235804 
L 112.043866 233.382483 
L 112.655129 178.268964 
L 113.266391 245.567635 
L 113.877654 228.43777 
L 115.100179 251.856257 
L 115.711441 198.31584 
L 116.322704 213.740958 
L 116.933966 210.311576 
L 117.545229 205.346974 
L 118.156492 214.044024 
L 118.767754 248.624815 
L 119.379017 204.748418 
L 119.990279 193.851297 
L 120.601542 225.611679 
L 121.212804 226.030289 
L 121.824067 208.984714 
L 122.435329 218.062491 
L 123.046592 236.512588 
L 123.657854 216.496966 
L 124.269117 202.883615 
L 124.88038 209.747115 
L 125.491642 228.304232 
L 126.102905 235.972752 
L 126.714167 219.345787 
L 127.32543 219.708519 
L 127.936692 232.303757 
L 128.547955 215.474117 
L 129.159217 213.984358 
L 129.77048 227.2113 
L 130.381743 214.968376 
L 130.993005 233.877807 
L 131.604268 214.560184 
L 132.21553 232.81897 
L 132.826793 235.361884 
L 133.438055 199.137907 
L 134.049318 239.287537 
L 134.66058 234.231069 
L 135.271843 203.934875 
L 135.883105 230.756226 
L 136.494368 238.17661 
L 137.105631 216.879587 
L 137.716893 232.028157 
L 138.328156 204.102509 
L 138.939418 237.667081 
L 139.550681 211.844901 
L 140.161943 195.34011 
L 140.773206 232.210943 
L 141.384468 229.594157 
L 141.995731 231.152106 
L 142.606993 204.395157 
L 143.218256 211.881837 
L 143.829519 214.899239 
L 144.440781 213.022123 
L 145.052044 240.174006 
L 145.663306 230.183242 
L 146.274569 217.452571 
L 146.885831 201.034911 
L 147.497094 210.731133 
L 148.108356 215.207987 
L 148.719619 211.890361 
L 149.330882 242.226331 
L 150.553407 229.046744 
L 151.164669 243.598653 
L 151.775932 236.717158 
L 152.387194 246.624578 
L 152.998457 226.688511 
L 153.609719 238.207864 
L 154.220982 227.927293 
L 154.832244 229.922794 
L 155.443507 213.197333 
L 156.05477 206.907764 
L 156.666032 230.729708 
L 157.277295 211.803229 
L 157.888557 223.040352 
L 158.49982 237.39148 
L 159.111082 216.398469 
L 159.722345 231.332999 
L 160.333607 223.572612 
L 160.94487 246.14062 
L 161.556133 221.920902 
L 162.167395 219.889412 
L 162.778658 217.349339 
L 163.38992 218.62127 
L 164.001183 229.816721 
L 164.612445 211.848689 
L 165.223708 240.136122 
L 165.83497 209.032068 
L 166.446233 240.161693 
L 167.057495 211.204674 
L 167.668758 232.847382 
L 168.280021 223.185256 
L 168.891283 229.945524 
L 169.502546 217.561485 
L 170.113808 225.858867 
L 170.725071 223.471274 
L 171.336333 225.353126 
L 171.947596 197.109258 
L 172.558858 225.767 
L 173.170121 223.36236 
L 173.781383 233.621148 
L 174.392646 228.046626 
L 175.003909 230.732549 
L 175.615171 221.654772 
L 176.226434 224.032894 
L 176.837696 204.995607 
L 177.448959 196.142288 
L 178.060221 196.929313 
L 178.671484 222.902078 
L 179.282746 238.742965 
L 179.894009 216.61251 
L 180.505272 199.813176 
L 181.727797 246.724022 
L 182.339059 214.898292 
L 182.950322 199.797076 
L 183.561584 237.157551 
L 184.172847 212.726634 
L 184.784109 231.179572 
L 185.395372 214.330043 
L 186.006634 222.444638 
L 186.617897 204.162175 
L 187.22916 204.381898 
L 187.840422 236.935934 
L 188.451685 241.198748 
L 189.062947 230.545974 
L 189.67421 200.764046 
L 190.285472 211.260551 
L 190.896735 209.784051 
L 192.11926 250.227277 
L 192.730523 196.853546 
L 193.341785 233.822876 
L 193.953048 215.916405 
L 194.56431 231.360464 
L 195.175573 220.104399 
L 195.786835 232.894736 
L 196.398098 228.620557 
L 197.00936 205.127251 
L 197.620623 218.437536 
L 198.231885 240.00069 
L 198.843148 225.692181 
L 199.454411 245.278775 
L 200.065673 187.727468 
L 200.676936 221.364018 
L 201.288198 230.129258 
L 201.899461 252.058933 
L 202.510723 222.162408 
L 203.121986 223.702362 
L 203.733248 202.169515 
L 204.344511 201.538759 
L 204.955774 257.022587 
L 206.178299 197.27405 
L 206.789561 198.366982 
L 207.400824 217.196859 
L 208.012086 227.343891 
L 208.623349 235.539935 
L 209.845874 244.181108 
L 210.457136 204.281507 
L 211.068399 213.272153 
L 211.679662 213.702128 
L 212.290924 245.339389 
L 212.902187 229.844187 
L 213.513449 223.015728 
L 214.124712 237.010753 
L 214.735974 228.344009 
L 215.347237 234.85046 
L 215.958499 202.936651 
L 216.569762 231.673001 
L 217.181024 217.944106 
L 217.792287 219.320216 
L 218.40355 224.441086 
L 219.014812 231.859576 
L 219.626075 209.615471 
L 220.237337 215.189993 
L 220.8486 237.925634 
L 221.459862 231.880412 
L 222.071125 227.128904 
L 222.682387 231.894618 
L 223.29365 245.393372 
L 223.904913 218.573915 
L 225.127438 228.063673 
L 225.7387 224.075513 
L 226.349963 250.896863 
L 226.961225 211.814594 
L 227.572488 213.834719 
L 228.18375 238.496724 
L 228.795013 204.782513 
L 229.406275 209.617365 
L 230.017538 223.710886 
L 230.628801 233.368277 
L 231.240063 221.572376 
L 231.851326 238.41054 
L 232.462588 202.84289 
L 233.073851 221.539228 
L 233.685113 245.072312 
L 234.296376 212.366743 
L 234.907638 232.19579 
L 235.518901 228.994654 
L 236.130164 225.130561 
L 236.741426 206.969325 
L 237.352689 225.803936 
L 237.963951 236.635709 
L 238.575214 204.759783 
L 239.186476 189.39149 
L 239.797739 228.306126 
L 240.409001 212.707692 
L 241.020264 234.841936 
L 241.631526 225.415633 
L 242.242789 214.216393 
L 242.854052 213.756111 
L 243.465314 210.586229 
L 244.076577 208.30471 
L 244.687839 221.530704 
L 245.299102 227.172469 
L 245.910364 220.597829 
L 246.521627 242.696084 
L 247.132889 233.121089 
L 247.744152 200.747946 
L 248.355414 226.131627 
L 248.966677 244.557099 
L 249.57794 214.921022 
L 250.189202 214.632162 
L 250.800465 228.768302 
L 251.411727 238.481571 
L 252.02299 214.492941 
L 252.634252 197.675613 
L 253.245515 235.338207 
L 253.856777 241.999032 
L 254.46804 210.790799 
L 255.079303 221.021174 
L 255.690565 226.064384 
L 256.301828 242.092793 
L 256.91309 198.951332 
L 257.524353 217.6865 
L 258.135615 224.016793 
L 258.746878 232.474232 
L 259.35814 205.439788 
L 259.969403 222.727815 
L 260.580665 214.495782 
L 261.191928 211.652643 
L 261.803191 219.771027 
L 262.414453 236.902786 
L 263.025716 226.308731 
L 263.636978 210.530351 
L 264.248241 207.394564 
L 264.859503 232.338799 
L 265.470766 233.716803 
L 266.082028 240.269661 
L 266.693291 235.137426 
L 267.304554 218.791744 
L 267.915816 221.754216 
L 268.527079 230.906812 
L 269.138341 231.548933 
L 269.749604 224.483705 
L 270.360866 230.994891 
L 270.972129 182.275119 
L 271.583391 210.6118 
L 272.194654 247.142632 
L 272.805916 217.698812 
L 273.417179 221.452096 
L 274.028442 239.297008 
L 274.639704 228.270137 
L 275.250967 231.504421 
L 276.473492 244.667908 
L 277.084754 235.866678 
L 277.696017 231.147371 
L 278.307279 235.644114 
L 278.918542 222.333829 
L 279.529805 224.680698 
L 280.141067 212.297606 
L 280.75233 228.55805 
L 281.363592 216.405099 
L 281.974855 213.703075 
L 282.586117 234.341877 
L 283.19738 222.131154 
L 283.808642 243.740715 
L 284.419905 231.538516 
L 285.031167 214.24007 
L 285.64243 215.365203 
L 286.253693 240.138016 
L 286.864955 234.682826 
L 287.476218 214.955117 
L 288.08748 230.371711 
L 288.698743 220.00022 
L 289.310005 216.992289 
L 289.921268 235.646008 
L 290.53253 213.481458 
L 291.143793 209.893913 
L 291.755055 225.738588 
L 292.366318 197.549651 
L 292.977581 232.537687 
L 293.588843 236.899944 
L 294.200106 227.921611 
L 294.811368 233.098359 
L 295.422631 218.799321 
L 296.033893 212.10156 
L 296.645156 232.161695 
L 297.256418 215.902198 
L 297.867681 222.397284 
L 298.478944 248.239352 
L 299.090206 226.178981 
L 299.701469 238.613215 
L 300.312731 205.942688 
L 300.923994 227.290855 
L 302.757781 241.726272 
L 303.369044 222.121683 
L 303.980306 225.092678 
L 304.591569 233.934632 
L 305.202832 212.641396 
L 305.814094 216.363427 
L 306.425357 222.514722 
L 307.036619 222.301629 
L 307.647882 229.53165 
L 308.259144 241.997138 
L 308.870407 208.35017 
L 309.481669 246.737281 
L 310.092932 242.606111 
L 310.704195 198.762863 
L 311.315457 202.800271 
L 311.92672 237.167021 
L 312.537982 230.072433 
L 313.149245 199.666378 
L 313.760507 234.518034 
L 314.37177 203.594873 
L 314.983032 223.083918 
L 315.594295 222.828206 
L 316.205557 220.724738 
L 316.81682 234.787005 
L 317.428083 203.255818 
L 318.039345 211.34863 
L 318.650608 217.926112 
L 319.26187 210.575811 
L 320.484395 245.357383 
L 321.095658 226.803108 
L 321.70692 217.695024 
L 322.318183 199.882313 
L 322.929445 221.342235 
L 323.540708 223.161579 
L 324.151971 200.348277 
L 324.763233 227.741665 
L 325.374496 237.829032 
L 325.985758 233.398584 
L 326.597021 221.131036 
L 327.208283 229.266467 
L 327.819546 243.081546 
L 328.430808 226.440375 
L 329.042071 241.954519 
L 329.653334 216.756466 
L 330.264596 212.591201 
L 330.875859 224.13139 
L 331.487121 238.756224 
L 332.098384 249.430781 
L 332.709646 226.197922 
L 333.320909 208.488444 
L 333.932171 201.206333 
L 334.543434 213.262682 
L 335.154696 211.998328 
L 335.765959 225.15045 
L 336.377222 208.763097 
L 336.988484 214.98637 
L 337.599747 202.162886 
L 338.211009 211.769134 
L 338.822272 200.445827 
L 339.433534 173.750438 
L 340.044797 211.74451 
L 340.656059 230.827257 
L 341.267322 237.093149 
L 341.878585 247.546089 
L 342.489847 226.416698 
L 343.10111 219.188571 
L 343.712372 217.560538 
L 344.323635 165.345088 
L 344.934897 210.936649 
L 345.54616 221.311928 
L 346.157422 235.923503 
L 346.768685 227.551302 
L 347.379947 211.914985 
L 347.99121 229.65477 
L 348.602473 221.804411 
L 349.213735 225.692181 
L 349.824998 219.211301 
L 350.43626 214.080013 
L 351.047523 195.668747 
L 351.658785 211.174367 
L 352.270048 233.745216 
L 352.88131 220.426407 
L 353.492573 220.286239 
L 354.103836 232.765933 
L 354.715098 219.712308 
L 355.326361 234.854248 
L 355.937623 222.533664 
L 356.548886 176.368171 
L 357.160148 239.326368 
L 357.771411 212.238887 
L 358.382673 223.86526 
L 358.993936 244.224674 
L 359.605198 227.840162 
L 360.216461 181.605532 
L 360.827724 205.614051 
L 361.438986 195.853428 
L 362.050249 231.461802 
L 362.661511 211.638437 
L 363.272774 220.148912 
L 363.884036 221.570482 
L 364.495299 217.156134 
L 365.106561 227.160157 
L 365.717824 182.87178 
L 366.329086 212.606354 
L 366.940349 206.412441 
L 367.551612 222.438956 
L 368.162874 227.655481 
L 368.774137 222.722133 
L 369.385399 236.432086 
L 369.996662 216.823709 
L 370.607924 216.596409 
L 371.219187 217.345551 
L 371.830449 227.590132 
L 372.441712 208.381423 
L 373.052975 236.111025 
L 373.664237 236.344955 
L 374.2755 223.444756 
L 374.886762 220.450084 
L 375.498025 235.728405 
L 376.109287 229.309085 
L 376.72055 234.287893 
L 377.331812 238.301625 
L 377.943075 229.414211 
L 378.554337 185.66283 
L 379.1656 205.365916 
L 379.776863 233.356912 
L 380.388125 216.31702 
L 380.999388 250.145828 
L 381.61065 228.031472 
L 382.221913 228.13944 
L 382.833175 228.016319 
L 383.444438 204.616774 
L 384.666963 215.454229 
L 385.278226 176.707226 
L 385.889488 228.524902 
L 386.500751 218.85804 
L 387.112013 214.878403 
L 387.723276 208.277244 
L 388.334538 212.738946 
L 388.945801 223.023305 
L 389.557063 221.940791 
L 390.168326 228.034314 
L 390.779588 228.516378 
L 391.390851 232.588829 
L 392.002114 198.676678 
L 392.613376 236.203839 
L 393.224639 241.382482 
L 393.835901 239.684364 
L 394.447164 230.682354 
L 395.058426 223.838742 
L 395.669689 226.586226 
L 396.280951 221.235215 
L 396.892214 199.765822 
L 397.503476 157.105478 
L 398.114739 217.162764 
L 398.726002 212.440615 
L 399.337264 206.644476 
L 399.948527 239.237342 
L 400.559789 225.024488 
L 401.171052 252.770191 
L 401.782314 233.091729 
L 402.393577 223.055506 
L 403.004839 240.243143 
L 403.616102 238.863245 
L 404.227365 202.952752 
L 404.838627 236.235093 
L 405.44989 222.941856 
L 406.061152 231.280909 
L 406.672415 243.347676 
L 407.283677 210.601383 
L 407.89494 228.622451 
L 408.506202 232.708161 
L 409.117465 194.995372 
L 409.728727 243.202773 
L 410.33999 227.4547 
L 410.951253 219.69526 
L 411.562515 224.453398 
L 412.173778 209.816252 
L 412.78504 206.802638 
L 413.396303 227.469853 
L 414.007565 210.682832 
L 414.618828 239.887987 
L 415.23009 229.414211 
L 415.841353 232.821811 
L 416.452616 230.338563 
L 417.063878 228.583621 
L 417.675141 225.139085 
L 418.286403 240.4354 
L 418.897666 228.561838 
L 419.508928 203.501112 
L 420.120191 231.983644 
L 420.731453 233.270728 
L 421.342716 192.30566 
L 421.953978 190.473057 
L 422.565241 207.214619 
L 423.176504 233.730062 
L 423.787766 215.014783 
L 424.399029 211.060717 
L 425.621554 235.020935 
L 426.232816 239.436229 
L 426.844079 213.890597 
L 427.455341 205.172711 
L 428.066604 198.663419 
L 428.677866 230.139676 
L 429.289129 198.082858 
L 429.900392 209.51508 
L 430.511654 208.469502 
L 431.122917 203.830696 
L 431.734179 220.172589 
L 432.345442 223.976069 
L 432.956704 204.447246 
L 434.179229 244.326958 
L 434.790492 212.003063 
L 435.401755 230.749597 
L 436.013017 232.185372 
L 436.62428 228.961506 
L 437.235542 231.93629 
L 437.846805 206.176617 
L 438.458067 227.702835 
L 439.06933 203.450917 
L 439.680592 243.127953 
L 440.291855 218.267061 
L 440.903117 246.661515 
L 442.125643 196.207636 
L 442.736905 204.253095 
L 443.348168 236.529636 
L 443.95943 208.43446 
L 445.181955 230.43706 
L 445.793218 232.087823 
L 446.40448 188.924579 
L 447.015743 224.052783 
L 447.627006 233.42889 
L 448.238268 221.631095 
L 448.849531 231.820746 
L 449.460793 209.324717 
L 450.072056 222.926703 
L 450.683318 207.170106 
L 451.905843 217.684606 
L 452.517106 253.148076 
L 453.128368 222.398231 
L 453.128368 222.398231 
" clip-path="url(#pb949c0b727)" style="fill: none; stroke: #d97706; stroke-width: 1.5; stroke-linecap: square"/>
   </g>
   <g id="patch_3">
    <path d="M 52.629146 268.398979 
L 52.629146 18.118365 
" style="fill: none; stroke: #000000; stroke-width: 0.8; stroke-linejoin: miter; stroke-linecap: square"/>
   </g>
   <g id="patch_4">
    <path d="M 472.19976 268.398979 
L 472.19976 18.118365 
" style="fill: none; stroke: #000000; stroke-width: 0.8; stroke-linejoin: miter; stroke-linecap: square"/>
   </g>
   <g id="patch_5">
    <path d="M 52.629146 268.398979 
L 472.19976 268.398979 
" style="fill: none; stroke: #000000; stroke-width: 0.8; stroke-linejoin: miter; stroke-linecap: square"/>
   </g>
   <g id="patch_6">
    <path d="M 52.629146 18.118365 
L 472.19976 18.118365 
" style="fill: none; stroke: #000000; stroke-width: 0.8; stroke-linejoin: miter; stroke-linecap: square"/>
   </g>
   <g id="text_16">
    <!-- FORMAL · sequence ratio max -->
    <g transform="translate(172.091953 12.118365) scale(0.12 -0.12)">
     <defs>
      <path id="DejaVuSans-29" d="M 628 4666 
L 3309 4666 
L 3309 4134 
L 1259 4134 
L 1259 2759 
L 3109 2759 
L 3109 2228 
L 1259 2228 
L 1259 0 
L 628 0 
L 628 4666 
z
" transform="scale(0.015625)"/>
      <path id="DejaVuSans-32" d="M 2522 4238 
Q 1834 4238 1429 3725 
Q 1025 3213 1025 2328 
Q 1025 1447 1429 934 
Q 1834 422 2522 422 
Q 3209 422 3611 934 
Q 4013 1447 4013 2328 
Q 4013 3213 3611 3725 
Q 3209 4238 2522 4238 
z
M 2522 4750 
Q 3503 4750 4090 4092 
Q 4678 3434 4678 2328 
Q 4678 1225 4090 567 
Q 3503 -91 2522 -91 
Q 1538 -91 948 565 
Q 359 1222 359 2328 
Q 359 3434 948 4092 
Q 1538 4750 2522 4750 
z
" transform="scale(0.015625)"/>
      <path id="DejaVuSans-35" d="M 2841 2188 
Q 3044 2119 3236 1894 
Q 3428 1669 3622 1275 
L 4263 0 
L 3584 0 
L 2988 1197 
Q 2756 1666 2539 1819 
Q 2322 1972 1947 1972 
L 1259 1972 
L 1259 0 
L 628 0 
L 628 4666 
L 2053 4666 
Q 2853 4666 3247 4331 
Q 3641 3997 3641 3322 
Q 3641 2881 3436 2590 
Q 3231 2300 2841 2188 
z
M 1259 4147 
L 1259 2491 
L 2053 2491 
Q 2509 2491 2742 2702 
Q 2975 2913 2975 3322 
Q 2975 3731 2742 3939 
Q 2509 4147 2053 4147 
L 1259 4147 
z
" transform="scale(0.015625)"/>
      <path id="DejaVuSans-24" d="M 2188 4044 
L 1331 1722 
L 3047 1722 
L 2188 4044 
z
M 1831 4666 
L 2547 4666 
L 4325 0 
L 3669 0 
L 3244 1197 
L 1141 1197 
L 716 0 
L 50 0 
L 1831 4666 
z
" transform="scale(0.015625)"/>
      <path id="DejaVuSans-2f" d="M 628 4666 
L 1259 4666 
L 1259 531 
L 3531 531 
L 3531 0 
L 628 0 
L 628 4666 
z
" transform="scale(0.015625)"/>
      <path id="DejaVuSans-79" d="M 684 2619 
L 1344 2619 
L 1344 1825 
L 684 1825 
L 684 2619 
z
" transform="scale(0.015625)"/>
     </defs>
     <use xlink:href="#DejaVuSans-29"/>
     <use xlink:href="#DejaVuSans-32" transform="translate(57.515625 0)"/>
     <use xlink:href="#DejaVuSans-35" transform="translate(136.234375 0)"/>
     <use xlink:href="#DejaVuSans-30" transform="translate(205.71875 0)"/>
     <use xlink:href="#DejaVuSans-24" transform="translate(292 0)"/>
     <use xlink:href="#DejaVuSans-2f" transform="translate(360.40625 0)"/>
     <use xlink:href="#DejaVuSans-3" transform="translate(416.125 0)"/>
     <use xlink:href="#DejaVuSans-79" transform="translate(447.90625 0)"/>
     <use xlink:href="#DejaVuSans-3" transform="translate(479.6875 0)"/>
     <use xlink:href="#DejaVuSans-56" transform="translate(511.46875 0)"/>
     <use xlink:href="#DejaVuSans-48" transform="translate(563.5625 0)"/>
     <use xlink:href="#DejaVuSans-54" transform="translate(625.09375 0)"/>
     <use xlink:href="#DejaVuSans-58" transform="translate(688.578125 0)"/>
     <use xlink:href="#DejaVuSans-48" transform="translate(751.953125 0)"/>
     <use xlink:href="#DejaVuSans-51" transform="translate(813.484375 0)"/>
     <use xlink:href="#DejaVuSans-46" transform="translate(876.859375 0)"/>
     <use xlink:href="#DejaVuSans-48" transform="translate(931.84375 0)"/>
     <use xlink:href="#DejaVuSans-3" transform="translate(993.375 0)"/>
     <use xlink:href="#DejaVuSans-55" transform="translate(1025.15625 0)"/>
     <use xlink:href="#DejaVuSans-44" transform="translate(1066.265625 0)"/>
     <use xlink:href="#DejaVuSans-57" transform="translate(1127.546875 0)"/>
     <use xlink:href="#DejaVuSans-4c" transform="translate(1166.75 0)"/>
     <use xlink:href="#DejaVuSans-52" transform="translate(1194.53125 0)"/>
     <use xlink:href="#DejaVuSans-3" transform="translate(1255.71875 0)"/>
     <use xlink:href="#DejaVuSans-50" transform="translate(1287.5 0)"/>
     <use xlink:href="#DejaVuSans-44" transform="translate(1384.90625 0)"/>
     <use xlink:href="#DejaVuSans-5b" transform="translate(1446.1875 0)"/>
    </g>
   </g>
   <g id="legend_1">
    <g id="line2d_29">
     <path d="M 392.44976 31.216803 
L 402.44976 31.216803 
L 412.44976 31.216803 
" style="fill: none; stroke: #2563eb; stroke-width: 1.5; stroke-linecap: square"/>
    </g>
    <g id="text_17">
     <!-- vanilla -->
     <g transform="translate(420.44976 34.716803) scale(0.1 -0.1)">
      <defs>
       <path id="DejaVuSans-59" d="M 191 3500 
L 800 3500 
L 1894 563 
L 2988 3500 
L 3597 3500 
L 2284 0 
L 1503 0 
L 191 3500 
z
" transform="scale(0.015625)"/>
       <path id="DejaVuSans-4f" d="M 603 4863 
L 1178 4863 
L 1178 0 
L 603 0 
L 603 4863 
z
" transform="scale(0.015625)"/>
      </defs>
      <use xlink:href="#DejaVuSans-59"/>
      <use xlink:href="#DejaVuSans-44" transform="translate(59.1875 0)"/>
      <use xlink:href="#DejaVuSans-51" transform="translate(120.46875 0)"/>
      <use xlink:href="#DejaVuSans-4c" transform="translate(183.84375 0)"/>
      <use xlink:href="#DejaVuSans-4f" transform="translate(211.625 0)"/>
      <use xlink:href="#DejaVuSans-4f" transform="translate(239.40625 0)"/>
      <use xlink:href="#DejaVuSans-44" transform="translate(267.1875 0)"/>
     </g>
    </g>
    <g id="line2d_30">
     <path d="M 392.44976 46.217584 
L 402.44976 46.217584 
L 412.44976 46.217584 
" style="fill: none; stroke: #d97706; stroke-width: 1.5; stroke-linecap: square"/>
    </g>
    <g id="text_18">
     <!-- dynamic -->
     <g transform="translate(420.44976 49.717584) scale(0.1 -0.1)">
      <defs>
       <path id="DejaVuSans-47" d="M 2906 2969 
L 2906 4863 
L 3481 4863 
L 3481 0 
L 2906 0 
L 2906 525 
Q 2725 213 2448 61 
Q 2172 -91 1784 -91 
Q 1150 -91 751 415 
Q 353 922 353 1747 
Q 353 2572 751 3078 
Q 1150 3584 1784 3584 
Q 2172 3584 2448 3432 
Q 2725 3281 2906 2969 
z
M 947 1747 
Q 947 1113 1208 752 
Q 1469 391 1925 391 
Q 2381 391 2643 752 
Q 2906 1113 2906 1747 
Q 2906 2381 2643 2742 
Q 2381 3103 1925 3103 
Q 1469 3103 1208 2742 
Q 947 2381 947 1747 
z
" transform="scale(0.015625)"/>
       <path id="DejaVuSans-5c" d="M 2059 -325 
Q 1816 -950 1584 -1140 
Q 1353 -1331 966 -1331 
L 506 -1331 
L 506 -850 
L 844 -850 
Q 1081 -850 1212 -737 
Q 1344 -625 1503 -206 
L 1606 56 
L 191 3500 
L 800 3500 
L 1894 763 
L 2988 3500 
L 3597 3500 
L 2059 -325 
z
" transform="scale(0.015625)"/>
      </defs>
      <use xlink:href="#DejaVuSans-47"/>
      <use xlink:href="#DejaVuSans-5c" transform="translate(63.484375 0)"/>
      <use xlink:href="#DejaVuSans-51" transform="translate(122.671875 0)"/>
      <use xlink:href="#DejaVuSans-44" transform="translate(186.046875 0)"/>
      <use xlink:href="#DejaVuSans-50" transform="translate(247.328125 0)"/>
      <use xlink:href="#DejaVuSans-4c" transform="translate(344.734375 0)"/>
      <use xlink:href="#DejaVuSans-46" transform="translate(372.515625 0)"/>
     </g>
    </g>
   </g>
  </g>
 </g>
 <defs>
  <clipPath id="pb949c0b727">
   <rect x="52.629146" y="18.118365" width="419.570614" height="250.280614"/>
  </clipPath>
 </defs>
</svg>
